<?xml version="1.0" standalone="no"?>
<!DOCTYPE svg PUBLIC "-//W3C//DTD SVG 20010904//EN"
        "http://www.w3.org/TR/2001/REC-SVG-20010904/DTD/svg10.dtd">
<svg fill-opacity="0.3" version="1.0" xmlns="http://www.w3.org/2000/svg"
     width="400.000000pt" height="200.000000pt" viewBox="0 0 200.000000 200.000000"
     preserveAspectRatio="xMidYMid meet">
    <metadata>
        Created by potrace 1.16, written by Peter Selinger 2001-2019
    </metadata>
    <g transform="translate(0.000000,200.000000) scale(0.100000,-0.100000)"
       fill="#000000" stroke="none">
        <path d="M145 1943 c-106 -56 -144 -171 -83 -258 31 -46 70 -66 127 -67 51 0
82 11 117 44 21 18 22 18 292 -192 l270 -210 -29 -54 c-57 -105 -57 -238 2
-345 16 -30 28 -55 26 -56 -1 -1 -99 -88 -218 -193 l-216 -191 -39 14 c-57 21
-170 18 -219 -4 -70 -31 -125 -113 -125 -185 0 -69 58 -157 124 -187 178 -81
368 100 301 286 -8 22 -15 41 -15 42 0 4 433 383 439 383 3 0 20 -13 36 -28
17 -16 62 -38 103 -51 88 -29 192 -25 267 8 26 12 49 21 51 21 1 0 37 -50 79
-110 l76 -110 -29 -25 c-47 -40 -75 -117 -69 -191 12 -156 131 -254 293 -241
143 11 254 125 254 262 0 95 -43 160 -135 206 -61 30 -68 31 -157 27 -51 -3
-100 -8 -108 -11 -11 -5 -34 22 -85 99 -38 59 -72 111 -73 115 -2 5 11 26 29
46 17 20 44 62 58 93 23 48 26 68 26 155 0 92 -3 106 -31 163 l-30 62 63 56
63 56 43 -21 c56 -27 155 -28 213 -2 22 10 56 37 76 61 122 142 28 354 -157
352 -98 -1 -190 -75 -220 -176 -19 -63 -19 -83 1 -137 l15 -44 -57 -52 c-62
-57 -82 -63 -108 -34 -32 35 -116 64 -202 69 -100 5 -174 -14 -238 -63 l-46
-35 -275 213 c-201 155 -273 216 -268 227 4 8 8 38 10 65 8 120 -117 204 -222
148z m122 -38 c19 -13 20 -20 12 -49 -5 -19 -8 -40 -7 -47 2 -7 -7 -15 -20
-18 -12 -3 -35 -18 -51 -33 -16 -16 -37 -28 -46 -28 -11 0 -15 -5 -12 -14 3
-8 0 -19 -7 -25 -9 -8 -18 -5 -33 12 -32 35 -37 64 -18 114 31 81 126 127 182
88z m1562 -199 c35 -19 91 -81 91 -103 0 -15 -2 -15 -18 0 -23 21 -42 22 -42
3 0 -19 -29 -42 -49 -38 -9 1 -41 -22 -70 -52 -44 -45 -59 -54 -78 -50 -23 6
-32 -9 -13 -21 6 -4 8 -11 4 -16 -4 -6 -14 -3 -26 7 -16 16 -21 16 -28 4 -15
-24 -43 56 -35 99 25 135 160 220 264 167z m-562 -372 c63 -21 124 -68 161
-124 40 -59 44 -84 14 -88 -15 -2 -22 -9 -18 -17 3 -8 1 -17 -5 -20 -15 -10 1
-27 18 -21 22 9 43 -12 43 -42 0 -14 -3 -22 -7 -18 -4 4 -8 15 -8 24 0 9 -6
16 -14 14 -7 -1 -19 3 -27 9 -20 16 -31 2 -17 -21 15 -23 -5 -44 -32 -33 -15
5 -17 2 -13 -15 4 -12 2 -25 -3 -28 -19 -12 -8 -26 16 -20 30 8 32 -4 5 -29
-20 -18 -21 -18 -48 8 l-28 27 -29 -30 c-19 -20 -32 -27 -39 -20 -7 7 1 21 22
43 18 18 32 36 32 40 0 20 -32 1 -85 -50 -33 -32 -53 -50 -46 -41 7 9 10 22 6
29 -5 7 -24 -6 -55 -36 -26 -25 -53 -45 -61 -43 -8 2 -14 -5 -14 -14 0 -27
-22 -45 -37 -30 -17 17 -28 15 -28 -5 -1 -32 -87 74 -111 135 -68 179 26 366
211 423 44 13 148 10 197 -7z m502 -844 c49 -14 115 -60 104 -71 -12 -12 -4
-61 8 -53 5 3 14 2 19 -1 18 -11 -8 -34 -32 -28 -17 5 -19 2 -14 -14 7 -22
-13 -46 -35 -41 -8 2 -14 -4 -14 -12 0 -8 -9 -22 -20 -30 -11 -8 -28 -25 -39
-38 -14 -18 -21 -20 -32 -11 -10 8 -12 15 -4 23 14 14 13 26 -3 26 -7 0 -31
-18 -52 -40 -26 -27 -42 -37 -49 -30 -18 18 -28 11 -22 -15 6 -23 5 -24 -13
-13 -26 16 -38 4 -20 -19 7 -10 -6 0 -29 21 -109 103 -88 272 41 332 56 26
144 32 206 14z m-1364 -110 c27 -25 24 -44 -6 -35 -13 4 -19 2 -19 -9 0 -22
31 -48 51 -43 11 3 19 2 19 -2 0 -13 -39 -30 -59 -24 -21 5 -30 -10 -12 -21 5
-3 7 -16 3 -28 -4 -17 -2 -20 12 -15 29 12 38 -3 14 -23 -25 -20 -51 -10 -41
16 3 9 -2 14 -16 14 -30 0 -36 -3 -36 -19 0 -8 -5 -16 -12 -18 -15 -5 -26 14
-13 22 5 3 10 10 10 16 0 21 -29 6 -74 -40 -47 -47 -49 -48 -76 -34 -19 9 -35
29 -46 59 -14 38 -15 51 -5 87 27 91 90 129 204 124 64 -3 81 -8 102 -27z"/>
        <path d="M1070 1275 c-7 -8 -18 -15 -24 -15 -6 0 -16 -10 -21 -22 -7 -17 -17
-22 -34 -20 -18 3 -22 0 -18 -12 4 -10 1 -16 -9 -16 -10 0 -14 -6 -11 -14 3
-8 -1 -20 -9 -27 -10 -8 -12 -15 -5 -22 7 -7 15 -6 26 3 10 8 19 10 25 4 7 -7
-1 -20 -20 -39 -16 -16 -30 -32 -30 -37 0 -16 25 -7 52 19 23 22 30 24 43 13
22 -18 32 -3 16 23 -13 20 -13 21 2 9 21 -18 43 -6 27 13 -15 18 -4 35 22 35
14 0 18 5 14 16 -4 12 -1 14 14 9 24 -8 29 22 5 31 -8 4 -15 10 -15 15 0 6 -8
19 -19 30 -16 17 -19 18 -31 4z"/>
        <path d="M1140 1814 c-73 -32 -110 -86 -110 -161 0 -125 121 -181 231 -108 40
26 79 95 79 138 0 74 -65 147 -128 147 -20 -1 -53 -8 -72 -16z m117 -49 c15
-14 21 -24 13 -23 -8 2 -15 -6 -16 -19 -3 -41 -4 -43 -17 -43 -7 0 -30 -18
-51 -39 -22 -22 -45 -37 -52 -34 -9 3 -14 -2 -14 -16 0 -27 -15 -27 -34 1 -39
55 -6 146 66 181 46 23 72 21 105 -8z"/>
    </g>
</svg>