<?xml version="1.0" encoding="UTF-8" standalone="no"?>
<!DOCTYPE svg PUBLIC "-//W3C//DTD SVG 1.1//EN" "http://www.w3.org/Graphics/SVG/1.1/DTD/svg11.dtd">
<svg fill-opacity="0.3" version="1.1" id="Layer_1" xmlns="http://www.w3.org/2000/svg" xmlns:xlink="http://www.w3.org/1999/xlink" x="0px" y="0px" width="1317px" height="700px" viewBox="0 0 1017 700" enable-background="new 0 0 917 700" xml:space="preserve">
    <path style="fill:#ffffff; stroke:none;" d="M0 0L0 242L0 302C0 307.049 -2.23938 319.375 1.6034 323.157C5.77057 327.258 15.5517 328.453 21 330.344C36.9591 335.884 53.0835 341.027 69 346.692C127.028 367.344 185.565 386.855 244 406.333C264.983 413.328 286.317 419.974 307 427.808C312.399 429.853 324.659 431.448 327.972 436.419C334.133 445.662 330 468.238 330 479C307.269 473.741 285.12 464.04 263 456.667C211.564 439.521 160.436 421.479 109 404.333C85.6218 396.541 60.3498 383.596 36 380L36 505L0 493L0 700L357 700L357 699L280 669.424L90 595.681L26 570.8L3.02778 560.582L2 549L2 521L44 536.8L121 567.2L359 661L359 505L396 494L396 648L443 631.424L531 599.308L574 584L574 439L611 428L611 559L611 593L609.972 607.722L593 615.424L546 632.681L430 675.053L364 699L364 700L917 700L917 502L838 528.667L640 596C640 587.043 636.058 565.899 641.028 558.419C643.504 554.692 651.009 553.664 655 552.333C667.037 548.321 678.961 544.013 691 540C737.1 524.633 782.902 508.366 829 493C841.038 488.987 853.049 484.946 865 480.692C869.198 479.198 876.153 478.349 879.397 475.157C881.977 472.617 881 467.275 881 464L881 436L881 321L841 331.975L783 349C783 340.186 779.323 320.786 784.028 313.278C787.565 307.633 801.972 306.288 808 304.33C831.186 296.801 854.698 290.19 878 283.025C887.318 280.16 896.644 277.315 906 274.576C909.12 273.662 914.81 272.82 916.397 269.581C919.115 264.032 917 253.124 917 247L917 193L917 0L470 0L470 1L505 10L490 43C461.633 36.2809 430.97 30.2614 404 46L404 48C424.521 60.9486 459.457 59.2112 482 52.8449C487.754 51.2198 492.374 46.6482 498 45.314C508.287 42.8745 521.425 45 532 45C531.096 65.7317 511.18 79.9862 493 85.8055C458.562 96.8287 404.463 97.4769 377.04 69.9606C342.688 35.4923 395.112 1.67877 428 1C417.973 -3.20776 400.896 0 390 0L303 0L0 0z"/>
    <path style="fill:#000000; stroke:none;" d="M532 45C521.12 45 507.583 42.8044 497 45.314C490.428 46.8724 484.874 51.9146 478 53.625C454.017 59.593 426.471 58.1638 404 48L404 46C424.694 37.3842 444.579 34.1051 467 37.2855C474.898 38.4059 482.202 41.832 490 43L505 10C486.397 2.36981 468.978 0 449 0C434.915 0 421.654 0.53125 408 4.42749C382.409 11.7302 352.021 36.5308 372.044 65C374.797 68.9148 378.153 72.2359 382 75.0756C411.72 97.0125 461.294 96.8297 495 85.4838C513.001 79.4244 531.573 65.5748 532 45M709 86C698.12 86 684.583 83.8044 674 86.314C668.103 87.7126 663.014 92.4742 657 94.2785C639.744 99.4555 619.627 99.1263 602 96.2462C594.216 94.9743 586.092 93.4888 581 87C596.635 80.4991 613.787 75.5316 631 77.1697C638.388 77.8729 645.786 78.63 653 80.4784C656.536 81.3843 661.082 84.0636 664.787 83.4977C668.082 82.9945 669.47 78.5754 670.752 76C673.778 69.9221 685.393 53.2938 676.977 49.2469C646.78 34.727 599.75 36.7953 570 51.2593C551.927 60.046 536.014 78.9826 545.349 100C551.203 113.183 564.146 120.746 577 125.796C605.634 137.045 642.04 136.769 671 126.996C689.646 120.704 708.071 107.308 709 86M316 110C305.017 110 292.855 108.512 282 110.147C274.607 111.261 267.764 117.567 260 119.349C235.808 124.901 211.025 122.237 188 114C191.592 107.091 201.895 105.201 209 103.662C230.398 99.028 252.649 101.15 273 109C277.303 101.627 280.441 93.6365 284.247 86C285.532 83.4205 288.351 79.4298 287.292 76.3936C286.254 73.4196 281.6 72.543 279 71.6674C270.169 68.6929 261.212 66.8986 252 65.5795C226.968 61.995 196.522 64.8459 174 76.7816C162.846 82.6928 151.618 92.7177 150.174 106C147.519 130.418 167.016 144.423 188 151.329C217.334 160.985 250.865 160.14 280 150.333C298.482 144.111 314.384 130.311 316 110M482 149C471.12 149 457.583 146.804 447 149.314C441.103 150.713 436.014 155.474 430 157.279C412.744 162.456 392.627 162.126 375 159.246C367.216 157.974 359.092 156.489 354 150C373.679 141.818 391.83 139.503 413 141.089C418.999 141.538 434.522 148.983 439.363 145.932C446.358 141.523 451.856 122.551 455 115C438.947 105.666 413.44 101.117 395 103.286C380.617 104.977 366.917 105.693 353 110.333C328.757 118.416 302.519 144.03 322.529 170C325.463 173.808 329.09 177.411 333 180.211C362.781 201.54 411.715 201.173 445 189.656C463.356 183.305 481.1 169.898 482 149M127 175L127 345L163 356L163 222C206.191 238.533 253.485 248.242 298 260.86L339 272.579C344.743 274.216 352.005 277.762 358 277.49C371.684 276.869 387.948 268.514 401 264.344C428.282 255.627 455.767 247.546 483 238.67C563.347 212.481 644.505 188.739 725 163L725 323C709.263 325.324 693.122 332.401 678 337.33C653.091 345.449 628.02 353.199 603 360.975C533.676 382.518 461.781 401.047 394 427L394 280L357 291L357 476C369.052 475.016 381.538 469.406 393 465.67C411.597 459.608 430.32 453.831 449 448.025C519.391 426.151 589.423 402.981 660 381.72C684.753 374.263 709.192 365.689 734 358.424C740.44 356.539 757.146 354.34 760.972 348.581C763.677 344.511 762 335.714 762 331L762 285L762 114L726 123.974L662 143.28L451 207.025L387 226.424L358 234.915L337 230.151L293 218.424L180 188.37L127 175M778 195L778 233C798.211 230.39 838.476 222.497 853 242C828.1 252.213 803.779 248.248 778 246L778 272C778 274.865 777.088 279.86 779.028 282.258C780.894 284.564 785.356 284.073 788 284.424C796.544 285.561 805.389 285.041 814 284.999C835.542 284.895 863.283 280.317 879.985 265.699C905.368 243.484 884.514 212.218 860 201.72C850.615 197.701 840.165 195.202 830 194.169C812.283 192.369 795.627 194.243 778 195M110 320L107 284C94.5489 284.983 81.0889 286.103 69 281.899C65.6468 280.733 58.1533 277.702 58.7701 273.104C59.3342 268.899 66.7456 267.834 70 267.285C82.2924 265.212 94.5713 265 107 265L109 228C80.0421 228 33.2062 229.402 17.3241 259C8.67943 275.11 16.0412 293.889 30 304.073C49.1579 318.049 86.8031 326.857 110 320M783 349L881 321L881 436L881 464L878.682 475.157L863 481.053L824 494.333L700 536.667L657 551.333L641.028 557.702L640 569L640 596L701 575.667L843 527.333L897 508.808L915.972 501.298L917 485L917 441L917 271L818 300.975L794 308.28L784.028 312.51L783 323L783 349M0 323L0 447L0 480L1.02778 492.49L11 497.003L36 505L36 380C58.3257 385.165 80.272 395.019 102 402.333C153.718 419.741 205.234 437.745 257 455C280.448 462.816 305.537 475.387 330 479L329.83 446L327.397 435.086L299 424.667L231 401.667L0 323M574 439L574 584L521 602.576L396 648L396 494L359 505L359 661L286 631.8L125 568.399L44 536.4L2 521L2 550C2 553.197 1.0029 558.571 3.02778 561.301C6.088 565.427 15.3749 567.019 20 568.811C34.3455 574.368 48.715 579.891 63 585.6C117.776 607.494 173.17 627.845 228 649.601C257.585 661.34 287.448 672.38 317 684.2C329.496 689.198 346.51 699.422 360 699.867C373.617 700.316 391.202 689.455 404 685C440.874 672.163 477.23 657.824 514 644.692C537.709 636.225 561.467 627.749 585 618.808C591.204 616.451 606.09 614.029 609.972 608.49C612.229 605.271 611 598.74 611 595L611 560L611 428L574 439z"/>
</svg>
