<?xml version="1.0" standalone="no"?>
<!DOCTYPE svg PUBLIC "-//W3C//DTD SVG 20010904//EN"
 "http://www.w3.org/TR/2001/REC-SVG-20010904/DTD/svg10.dtd">
<svg version="1.0" xmlns="http://www.w3.org/2000/svg"
 width="1920.000000pt" height="1920.000000pt" viewBox="0 0 1920.000000 1920.000000"
 preserveAspectRatio="xMidYMid meet">
<metadata>
Created by potrace 1.16, written by Peter Selinger 2001-2019
</metadata>
<g transform="translate(0.000000,1920.000000) scale(0.100000,-0.100000)"
fill="#000000" stroke="none">
<path d="M8165 17105 c-5 -2 -57 -9 -115 -14 -58 -6 -181 -22 -275 -36 -93
-14 -204 -30 -245 -36 -41 -6 -104 -14 -140 -19 -68 -10 -299 -55 -580 -114
-91 -19 -187 -44 -215 -55 -55 -22 -210 -82 -295 -113 -30 -12 -77 -31 -105
-43 -27 -12 -75 -33 -105 -46 -85 -36 -202 -98 -237 -125 -17 -13 -35 -24 -38
-24 -27 0 -225 -200 -225 -226 0 -3 -9 -18 -20 -34 -87 -123 -253 -780 -300
-1190 -35 -306 -48 -1075 -31 -1855 20 -927 36 -1223 91 -1770 6 -55 15 -143
20 -195 5 -52 17 -162 25 -245 9 -82 20 -195 26 -250 5 -55 14 -143 19 -195
28 -279 39 -420 44 -560 l6 -155 -67 -70 c-37 -38 -101 -106 -142 -150 -41
-44 -107 -114 -146 -155 -39 -41 -84 -93 -101 -115 -16 -22 -54 -71 -85 -110
-114 -144 -156 -202 -206 -290 -73 -129 -77 -139 -116 -255 -41 -124 -47 -159
-56 -344 -9 -191 -18 -208 -191 -354 -139 -116 -194 -184 -249 -304 -39 -85
-49 -121 -58 -203 -18 -150 20 -247 104 -273 32 -10 43 -9 73 7 47 24 69 66
82 151 6 39 19 81 28 93 18 22 18 22 33 -33 8 -30 19 -77 26 -105 6 -27 29
-86 50 -130 34 -69 47 -86 96 -120 49 -33 64 -39 108 -38 46 1 55 5 79 34 44
52 39 111 -17 227 -49 100 -54 122 -29 122 22 0 67 -49 138 -147 93 -131 153
-188 215 -207 65 -19 104 -12 136 26 21 25 25 40 25 98 0 75 -6 86 -145 267
-85 109 -205 320 -205 358 0 22 43 28 82 12 34 -14 125 -75 161 -108 10 -9 49
-29 88 -44 65 -25 74 -26 115 -15 52 15 94 59 94 98 0 44 -53 122 -133 199
-102 97 -94 93 -329 144 -69 14 -77 29 -78 136 -1 79 3 93 65 238 63 145 153
250 380 440 33 27 90 78 127 114 l67 63 7 -28 c9 -35 -3 -852 -16 -1119 -5
-110 -14 -306 -20 -435 -5 -129 -14 -309 -20 -400 -60 -965 -78 -1241 -111
-1670 -35 -462 -51 -646 -69 -785 -20 -153 -39 -304 -50 -390 -6 -49 -20 -160
-31 -245 -11 -85 -25 -210 -31 -277 -11 -112 -10 -124 6 -142 9 -10 119 -60
244 -111 308 -125 325 -132 497 -186 83 -26 182 -57 220 -70 68 -22 155 -47
300 -84 117 -30 227 -60 280 -76 28 -8 174 -40 325 -70 151 -30 289 -59 305
-64 17 -5 71 -14 120 -20 50 -6 115 -15 145 -20 167 -28 389 -60 490 -70 63
-7 158 -18 210 -26 52 -8 132 -20 177 -26 l82 -12 5 -36 c3 -19 13 -176 22
-349 14 -262 15 -334 5 -430 -21 -195 -40 -227 -190 -325 -109 -71 -248 -130
-557 -236 -146 -50 -174 -75 -174 -153 0 -32 15 -62 52 -101 17 -18 30 -19
300 -13 265 7 328 11 533 38 145 19 186 31 249 75 49 33 68 54 98 111 36 67
39 77 53 229 8 87 20 211 26 274 7 63 15 291 18 505 l6 390 518 3 517 2 0
-347 c0 -191 5 -399 11 -462 45 -490 49 -522 79 -580 34 -69 63 -100 121 -134
55 -32 96 -42 234 -61 234 -32 300 -36 561 -36 l270 0 27 43 c24 35 28 49 23
84 -10 75 -28 89 -196 147 -75 25 -208 73 -331 119 -81 31 -92 36 -199 105
-102 65 -154 119 -168 175 -29 115 -35 256 -23 500 16 297 27 457 34 464 3 3
124 11 269 19 233 12 564 47 848 88 52 8 133 20 180 26 47 7 137 21 200 32 63
10 183 30 265 44 83 13 186 31 230 39 44 8 98 17 120 20 39 6 73 13 250 55 50
12 117 28 150 35 352 80 467 110 710 189 22 7 56 18 75 24 162 49 286 88 345
107 39 13 104 33 145 45 41 13 107 33 145 45 39 12 124 39 190 60 66 21 133
44 149 52 32 17 32 5 1 223 -9 63 -20 149 -25 190 -5 41 -16 127 -25 190 -16
117 -19 134 -54 413 -11 87 -25 186 -30 220 -5 34 -14 103 -20 152 -31 275
-37 319 -71 595 -5 41 -14 120 -20 175 -6 55 -17 152 -25 215 -13 108 -20 171
-45 403 -5 50 -17 157 -25 237 -40 366 -56 520 -95 930 -19 192 -30 360 -40
595 -6 132 -15 332 -21 445 -13 274 -13 335 -5 398 l8 53 67 -63 c36 -35 86
-79 110 -98 108 -85 283 -255 310 -300 34 -56 121 -238 121 -253 0 -7 6 -19
13 -26 18 -18 12 -200 -7 -219 -8 -8 -54 -23 -103 -33 -141 -30 -186 -46 -223
-79 -179 -158 -228 -254 -162 -320 42 -42 91 -48 171 -20 36 12 75 30 86 40
11 10 53 41 93 69 58 41 80 51 112 51 36 0 40 -3 40 -25 0 -32 -15 -66 -65
-145 -23 -36 -56 -90 -74 -120 -17 -30 -52 -80 -77 -110 -24 -30 -65 -84 -89
-120 -39 -57 -45 -71 -45 -118 0 -116 62 -163 172 -130 55 16 135 98 243 251
57 80 99 117 116 100 7 -7 -5 -42 -40 -118 -64 -135 -67 -174 -16 -229 34 -38
36 -39 90 -33 50 5 92 27 141 72 34 32 114 223 114 272 0 13 7 40 15 60 14 34
17 35 32 21 9 -9 21 -52 29 -99 14 -86 31 -120 75 -146 38 -23 96 -9 134 31
132 141 13 526 -219 708 -101 79 -176 158 -206 218 -28 56 -30 67 -30 172 0
228 -48 394 -172 606 -44 74 -120 185 -138 202 -3 3 -28 34 -55 70 -27 36 -52
67 -55 70 -3 3 -21 25 -40 50 -19 25 -61 74 -95 109 -98 105 -216 230 -305
324 -46 48 -89 95 -95 105 -11 16 -26 88 -45 212 -5 30 -21 123 -36 205 -37
207 -39 223 -68 455 -15 113 -33 259 -41 325 -24 186 -34 263 -45 360 -6 50
-18 140 -26 200 -28 220 -44 363 -54 485 -5 69 -14 168 -20 220 -5 52 -14 154
-20 225 -13 166 -26 318 -45 520 -8 88 -19 223 -25 300 -6 77 -15 183 -20 235
-5 52 -17 304 -27 560 -14 403 -15 489 -3 647 7 100 16 187 20 194 8 12 12 10
350 -96 58 -18 159 -50 225 -70 66 -20 167 -52 225 -70 58 -19 159 -50 225
-71 66 -20 167 -52 225 -70 58 -18 159 -49 225 -69 66 -20 184 -57 262 -82 78
-24 150 -43 160 -41 23 4 23 53 0 208 -9 63 -24 160 -32 215 -9 55 -20 134
-26 175 -6 41 -14 95 -19 120 -5 25 -16 88 -25 140 -18 98 -76 282 -105 335
-67 118 -200 315 -240 355 -3 3 -23 28 -44 55 -22 28 -47 57 -55 66 -9 9 -33
38 -55 63 -46 56 -233 198 -336 255 -120 67 -357 180 -434 207 -94 33 -631
190 -676 197 -19 3 -100 19 -180 35 -80 17 -181 35 -225 42 -44 6 -118 18
-165 25 -47 8 -121 19 -165 25 -44 6 -109 15 -145 20 -86 13 -287 36 -430 50
-63 6 -153 15 -200 20 -47 5 -152 14 -235 20 -207 15 -508 39 -641 50 -103 9
-3046 14 -3069 5z m3200 -187 c83 -9 227 -22 320 -28 201 -14 472 -37 570 -50
39 -5 124 -14 190 -20 366 -35 999 -139 1213 -200 76 -21 146 -41 327 -90 185
-50 203 -57 180 -65 -11 -4 -52 -32 -92 -62 -50 -38 -83 -73 -114 -121 -23
-37 -55 -86 -70 -109 -16 -23 -29 -45 -29 -49 0 -4 -12 -23 -26 -42 -15 -19
-39 -69 -54 -111 -62 -172 -108 -319 -114 -364 -6 -39 -11 -47 -24 -42 -8 3
-68 10 -131 15 -146 12 -304 27 -401 39 -108 14 -273 29 -445 41 -82 6 -206
15 -275 20 -380 29 -533 40 -695 50 -298 17 -503 30 -640 40 -71 6 -312 15
-535 21 -223 6 -538 14 -700 18 -379 11 -1354 11 -1620 1 -113 -5 -338 -13
-500 -19 -162 -6 -351 -15 -420 -21 -69 -5 -201 -14 -295 -20 -304 -19 -610
-41 -630 -45 -11 -3 -76 -9 -145 -15 -69 -5 -174 -14 -235 -20 -60 -6 -166
-15 -235 -20 -69 -6 -137 -13 -152 -16 -27 -5 -28 -4 -21 28 15 78 63 248 88
313 14 39 30 82 35 97 24 77 107 178 210 255 84 63 308 171 500 243 47 17 112
42 145 55 173 67 175 67 415 115 83 17 170 34 193 39 157 34 856 139 1027 154
25 2 718 3 1540 3 1305 -2 1514 -4 1645 -18z m3150 -591 c177 -94 224 -123
312 -193 51 -40 116 -101 145 -136 28 -35 55 -65 58 -68 4 -3 25 -30 47 -60
23 -30 59 -77 80 -105 119 -155 207 -340 232 -487 6 -35 19 -112 30 -173 11
-60 25 -150 31 -200 6 -49 16 -112 21 -138 12 -63 11 -107 -1 -107 -5 0 -51
13 -102 29 -82 25 -265 82 -368 113 -19 6 -53 17 -75 24 -22 7 -107 34 -190
59 -82 26 -161 50 -175 55 -14 5 -79 25 -145 45 -116 36 -166 51 -476 149 -80
25 -151 46 -158 46 -9 0 -11 8 -6 28 4 15 11 52 15 82 44 292 53 328 112 502
40 117 69 182 114 255 34 54 71 114 83 134 43 73 145 143 251 174 68 20 78 18
165 -28z m-4550 -782 c248 -8 599 -19 780 -25 182 -5 393 -15 470 -20 77 -5
246 -16 375 -25 583 -38 1131 -79 1290 -95 52 -5 140 -14 195 -19 138 -14 397
-41 470 -49 l60 -7 -3 -95 c-1 -52 -5 -126 -8 -164 l-6 -69 -92 6 c-50 3 -167
13 -261 21 -93 8 -244 19 -335 26 -91 6 -246 17 -345 25 -178 14 -318 24 -610
45 -82 6 -233 17 -335 25 -253 19 -472 33 -750 45 -129 6 -329 15 -445 20
-783 36 -2317 39 -2890 7 -821 -47 -958 -55 -1185 -73 -240 -18 -411 -32 -555
-44 -60 -5 -146 -12 -190 -15 -44 -4 -95 -9 -114 -12 l-33 -6 6 44 c4 24 12
76 17 114 6 39 15 91 21 118 l10 47 45 0 c24 0 86 4 136 10 232 24 403 40 527
50 74 6 180 15 235 20 90 9 219 18 680 50 77 5 264 14 415 21 151 6 390 17
530 24 365 18 1360 18 1895 0z m420 -614 c127 -6 334 -15 462 -21 215 -9 498
-27 808 -49 72 -6 168 -13 215 -16 47 -3 166 -12 265 -20 99 -8 248 -19 330
-25 361 -25 656 -47 920 -70 66 -6 134 -12 150 -13 30 -2 30 -3 31 -62 6 -449
27 -961 49 -1180 7 -77 19 -203 25 -280 22 -278 31 -393 45 -540 17 -189 32
-354 45 -520 13 -158 15 -178 40 -374 11 -86 24 -199 30 -251 6 -52 17 -140
25 -195 14 -104 27 -206 45 -360 10 -85 27 -215 51 -400 6 -44 18 -118 26
-165 8 -47 22 -131 32 -188 l17 -103 -80 80 c-118 116 -213 155 -300 122 -31
-13 -99 -104 -114 -155 -19 -66 16 -214 77 -325 20 -37 56 -105 81 -151 39
-72 71 -110 238 -278 130 -132 191 -200 188 -211 -21 -68 -24 -374 -7 -666 6
-93 15 -291 21 -440 6 -148 18 -335 26 -415 15 -151 26 -264 44 -465 6 -66 18
-176 25 -245 8 -69 19 -172 25 -230 6 -58 15 -140 21 -183 6 -44 9 -80 7 -82
-3 -3 -179 -39 -273 -56 -33 -6 -80 -15 -105 -21 -61 -13 -126 -24 -320 -54
-168 -26 -197 -30 -400 -58 -63 -9 -140 -21 -170 -26 -56 -10 -204 -30 -360
-51 -47 -6 -128 -17 -180 -24 -52 -7 -135 -19 -185 -25 -49 -6 -119 -15 -155
-20 -187 -26 -306 -40 -410 -50 -63 -6 -158 -15 -210 -20 -278 -28 -408 -40
-530 -50 -228 -18 -371 -31 -475 -41 -55 -6 -415 -13 -800 -16 -583 -5 -741
-3 -945 10 -240 16 -418 26 -810 47 -107 6 -234 12 -281 15 -47 2 -108 9 -135
14 -27 5 -87 14 -134 21 -231 31 -461 67 -613 96 -73 13 -169 31 -213 39 -153
27 -589 144 -767 204 -98 34 -185 61 -193 61 -10 0 -14 6 -10 18 2 9 7 71 11
137 3 66 12 215 20 330 7 116 19 329 25 475 6 146 16 337 22 425 5 88 12 437
14 775 l4 615 185 189 c102 103 185 192 185 196 0 4 34 68 76 141 61 107 81
153 100 229 28 112 29 134 9 189 -33 95 -118 160 -194 148 -77 -13 -139 -57
-269 -194 l-130 -136 -6 154 c-4 85 -13 210 -21 279 -8 69 -19 177 -25 240
-12 129 -23 241 -45 445 -8 77 -19 190 -25 250 -6 61 -15 153 -20 205 -57 583
-75 1109 -75 2255 0 484 4 901 8 926 l8 46 137 12 c75 6 214 18 307 26 339 30
393 35 560 45 94 6 265 17 380 25 116 8 309 19 430 25 121 6 261 13 310 16
313 22 2338 18 2830 -5z m-4220 -8926 c138 -34 277 -67 310 -73 33 -7 123 -23
200 -37 77 -14 150 -28 161 -30 27 -6 320 -50 464 -70 58 -8 134 -19 170 -24
36 -6 153 -15 260 -21 374 -21 706 -40 885 -53 235 -16 1702 -14 1890 3 324
29 449 40 570 50 72 6 173 15 225 20 52 5 149 14 215 20 150 14 369 38 455 50
36 5 108 14 160 20 52 6 138 17 190 25 119 17 219 31 335 45 84 11 212 29 350
50 33 5 96 14 140 20 44 6 109 16 145 22 36 5 92 14 125 18 162 22 352 51 389
60 22 5 91 18 151 29 61 12 157 30 214 41 57 12 105 20 106 18 3 -4 35 -289
35 -312 0 -9 -12 -17 -32 -20 -83 -13 -223 -37 -333 -55 -66 -11 -178 -30
-250 -41 -71 -11 -168 -28 -215 -36 -47 -8 -161 -26 -255 -39 -151 -21 -382
-55 -690 -99 -55 -8 -137 -20 -182 -25 -211 -27 -254 -33 -343 -46 -52 -7
-141 -18 -197 -24 -258 -27 -315 -34 -413 -47 -412 -54 -1154 -78 -2144 -70
-706 5 -1021 14 -1261 35 -66 6 -178 15 -250 21 -71 6 -157 15 -190 20 -33 5
-98 14 -145 20 -123 16 -201 27 -325 44 -60 9 -173 25 -250 36 -281 40 -433
70 -579 115 -45 14 -207 61 -361 105 -154 44 -297 85 -318 92 l-37 11 5 126
c4 69 8 140 11 157 l4 32 178 -60 c97 -33 290 -88 427 -123z m-553 -424 c314
-98 782 -225 888 -242 69 -11 163 -26 210 -34 119 -20 201 -32 305 -45 50 -6
135 -18 190 -26 198 -29 231 -33 325 -43 91 -10 287 -28 545 -50 290 -25 816
-34 1640 -28 462 3 910 10 995 16 85 6 234 15 331 20 97 6 207 15 245 20 38 5
119 15 179 21 113 11 172 18 400 45 196 23 409 50 545 70 52 8 133 19 180 25
113 14 217 29 320 45 82 13 129 20 305 45 96 14 249 37 325 50 30 5 89 14 130
20 41 7 93 15 115 20 22 5 85 16 140 25 55 8 154 25 220 36 66 12 138 23 160
26 l41 5 12 -113 c14 -127 27 -229 43 -351 6 -44 14 -118 19 -162 9 -80 14
-122 45 -346 8 -63 24 -182 35 -265 34 -266 39 -299 50 -375 25 -174 30 -210
30 -229 0 -20 -18 -27 -240 -93 -36 -11 -78 -24 -95 -29 -16 -6 -102 -33 -190
-60 -88 -28 -203 -64 -255 -81 -52 -16 -108 -34 -125 -38 -16 -4 -102 -31
-190 -58 -88 -28 -203 -60 -255 -72 -90 -20 -164 -37 -466 -109 -108 -26 -302
-63 -459 -88 -16 -3 -136 -23 -265 -45 -129 -22 -266 -44 -305 -48 -65 -9
-130 -17 -295 -39 -267 -37 -398 -51 -555 -61 -99 -6 -281 -18 -405 -28 -356
-27 -1419 -23 -1820 6 -162 12 -331 27 -375 32 -332 41 -341 42 -630 85 -213
32 -263 40 -330 55 -27 6 -95 20 -150 30 -148 28 -423 88 -480 104 -47 13
-186 51 -302 82 -125 33 -160 43 -188 52 -16 6 -111 36 -210 67 -210 66 -193
60 -450 164 -110 45 -206 81 -212 81 -7 0 -13 9 -13 21 0 22 28 256 55 454 8
61 24 187 35 280 11 94 27 220 35 280 8 61 19 178 25 260 6 83 15 204 20 270
5 66 12 161 15 210 8 122 15 155 31 155 7 0 42 -9 76 -19z"/>
</g>
</svg>
