<?xml version="1.0" standalone="no"?><!DOCTYPE svg PUBLIC "-//W3C//DTD SVG 20010904//EN"        "http://www.w3.org/TR/2001/REC-SVG-20010904/DTD/svg10.dtd"><svg fill-opacity="0.3" version="1.0" xmlns="http://www.w3.org/2000/svg"     width="400.000000pt" height="200.000000pt" viewBox="0 0 200.000000 200.000000"     preserveAspectRatio="xMidYMid meet">    <metadata>        Created by potrace 1.16, written by Peter Selinger 2001-2019    </metadata>    <g transform="translate(0.000000,200.000000) scale(0.100000,-0.100000)"       fill="#000000" stroke="none">        <path d="M1602 1958 c-20 -20 -14 -68 14 -115 30 -52 26 -73 -25 -126 l-36-38 24 -20 c36 -29 57 -23 90 24 40 58 56 70 104 76 48 7 58 28 33 66 -11 17-38 31 -86 45 -71 21 -90 38 -90 79 0 24 -10 27 -28 9z"/>        <path d="M1792 1954 c-32 -22 -28 -59 13 -107 49 -57 46 -90 -10 -97 -50 -7-76 -25 -115 -78 -33 -45 -57 -52 -100 -27 -56 32 -117 8 -149 -58 -12 -24-21 -57 -21 -73 0 -17 -7 -39 -15 -50 -13 -18 -14 -16 -9 16 6 36 -7 74 -44132 -16 27 -16 28 16 61 37 38 41 73 12 110 -11 14 -20 35 -20 47 0 13 -4 19-11 14 -7 -4 -9 -24 -5 -54 6 -46 5 -48 -30 -75 -20 -15 -43 -43 -51 -62 -13-32 -12 -38 6 -74 27 -52 26 -91 -5 -164 -38 -88 -48 -130 -36 -151 13 -23 -5-64 -29 -64 -27 0 -49 -28 -49 -64 0 -20 -8 -40 -20 -51 -26 -23 -44 -80 -36-116 4 -21 2 -29 -9 -29 -15 0 -54 77 -62 125 -6 38 40 181 69 212 24 26 1868 -11 76 -12 3 -21 15 -23 33 -3 26 -7 29 -42 32 -72 6 -107 -58 -71 -128 14-27 13 -35 -10 -104 -14 -41 -25 -89 -25 -106 0 -17 20 -80 45 -140 l45 -109-27 -58 c-15 -32 -28 -59 -28 -60 -1 -1 -17 2 -37 7 -28 8 -43 22 -71 69 -3759 -107 131 -128 131 -7 0 -18 -8 -25 -17 -14 -20 -15 -19 -78 31 l-36 28 -18-23 -19 -22 -75 74 c-118 116 -141 183 -72 209 61 23 0 54 -88 44 -32 -4 -61-11 -65 -17 -11 -17 -4 -100 13 -149 19 -57 79 -152 136 -214 l42 -46 -49 7c-74 11 -167 42 -206 68 -38 25 -49 66 -25 87 52 43 -29 40 -86 -3 -63 -48-63 -80 -1 -144 53 -54 181 -124 267 -146 48 -13 49 -14 62 -66 8 -29 28 -7245 -96 26 -36 30 -50 25 -77 -18 -89 -18 -95 9 -149 40 -79 80 -116 174 -16046 -21 105 -55 132 -74 27 -19 53 -35 58 -35 6 0 44 28 86 61 93 75 187 185224 262 27 57 28 57 46 37 27 -29 110 -25 110 5 0 17 -6 20 -36 17 -23 -2 -402 -49 12 -11 14 -9 16 17 16 32 0 63 26 63 53 0 8 -12 25 -26 36 l-26 20 2735 27 36 26 -20 c16 -13 38 -20 61 -19 20 2 54 -4 76 -11 59 -21 188 -17 2659 36 11 84 21 108 21 70 0 104 54 66 108 -8 12 -23 22 -33 22 -11 0 -21 7 -2515 -7 18 -47 20 -64 3 -7 -7 -12 -20 -12 -30 0 -17 -65 -43 -157 -63 -53 -11-136 18 -167 60 -20 25 -35 35 -55 35 -16 0 -34 7 -41 15 -11 13 -8 15 14 1515 0 43 7 64 17 20 9 60 17 87 17 42 1 52 5 60 24 6 14 15 20 25 16 66 -25 94-10 105 57 9 54 38 82 113 109 34 13 74 34 88 49 26 26 27 37 9 126 -5 26 037 49 88 54 55 56 59 56 110 0 40 -9 71 -35 126 -40 84 -43 112 -15 172 30 6726 121 -10 163 -17 19 -51 43 -76 52 -39 15 -45 21 -41 41 5 27 -1 29 -31 7zm-368 -750 c73 -43 126 -110 126 -157 0 -41 -48 -124 -96 -167 -78 -68 -149-77 -230 -31 -53 31 -80 63 -95 113 -11 39 3 72 52 126 23 24 52 68 66 98 2454 25 54 70 54 35 0 61 -9 107 -36z m-638 -436 c49 -74 60 -83 116 -93 20 -439 -13 42 -21 11 -29 -139 3 -169 36 -24 26 -55 26 -55 0 0 -36 67 -69 166-81 51 -7 96 -18 107 -27 17 -15 16 -17 -14 -48 -17 -17 -46 -40 -65 -50 -39-21 -50 -42 -28 -51 21 -8 68 19 119 68 l41 39 42 -16 c23 -10 42 -21 42 -270 -16 -133 -142 -193 -181 -43 -28 -64 -36 -83 -32 -28 7 -104 73 -104 90 019 -65 110 -124 173 -61 66 -76 96 -76 151 0 49 19 75 75 102 26 12 53 33 6246 15 24 17 24 35 7 11 -9 40 -48 64 -85z m284 47 c-34 -35 -34 -36 -18 -6325 -42 90 -84 141 -89 44 -5 46 -4 72 36 15 22 31 38 36 35 13 -7 -39 -79-100 -138 l-50 -49 -41 12 c-48 14 -116 76 -125 114 -10 38 19 103 64 145 4743 64 41 21 -3z"/>    </g></svg>