<?xml version="1.0" standalone="no"?>
<!DOCTYPE svg PUBLIC "-//W3C//DTD SVG 20010904//EN"
 "http://www.w3.org/TR/2001/REC-SVG-20010904/DTD/svg10.dtd">
<svg version="1.0" xmlns="http://www.w3.org/2000/svg"
 width="1280.000000pt" height="860.000000pt" viewBox="0 0 1280.000000 860.000000"
 preserveAspectRatio="xMidYMid meet" fill-opacity="0.3">
<metadata>
Created by potrace 1.16, written by Peter Selinger 2001-2019
</metadata>
<g transform="translate(0.000000,860.000000) scale(0.100000,-0.100000)"
fill="#000000" stroke="none">
<path d="M6357 8582 c-22 -24 -22 -38 1 -21 15 11 15 11 4 -1 -7 -8 -18 -15
-24 -15 -6 0 -13 -6 -16 -14 -3 -9 0 -11 9 -5 12 7 12 5 0 -9 -16 -20 -26 -23
-15 -4 5 8 2 8 -9 -2 -18 -14 -24 -36 -7 -26 16 10 11 -1 -7 -16 -15 -12 -16
-12 -8 1 8 13 7 13 -8 1 -20 -16 -23 -36 -4 -25 8 5 8 2 -2 -9 -16 -20 -26
-23 -15 -4 5 8 2 8 -9 -2 -20 -16 -23 -36 -4 -25 8 5 8 2 -2 -9 -16 -20 -26
-23 -15 -4 5 8 2 8 -9 -2 -20 -16 -23 -36 -4 -25 7 4 9 3 4 -2 -5 -5 -14 -9
-20 -9 -7 0 -12 -8 -12 -17 0 -10 -7 -23 -15 -30 -12 -11 -12 -10 0 7 15 20
14 20 -8 1 -23 -20 -31 -42 -9 -30 7 4 9 3 4 -2 -5 -5 -14 -9 -20 -9 -5 0 -12
-6 -15 -14 -3 -9 0 -11 9 -6 8 5 5 -1 -5 -13 -23 -26 -34 -29 -15 -4 11 14 10
13 -9 -2 -23 -20 -31 -42 -9 -30 7 4 9 3 4 -2 -5 -5 -14 -9 -19 -9 -6 0 -13
-6 -16 -14 -3 -9 0 -11 9 -5 12 7 12 5 0 -9 -16 -20 -25 -23 -15 -4 4 6 -2 3
-14 -7 -26 -23 -30 -44 -4 -25 15 11 15 11 4 -1 -7 -8 -18 -15 -24 -15 -6 0
-13 -6 -16 -14 -3 -8 0 -11 7 -7 17 11 13 0 -6 -15 -15 -12 -16 -12 -8 1 8 13
7 13 -8 1 -18 -14 -24 -36 -7 -26 16 10 11 -1 -7 -16 -15 -12 -16 -12 -8 1 8
13 7 13 -8 1 -18 -14 -24 -36 -7 -26 16 10 11 -1 -7 -16 -15 -12 -16 -12 -8 1
8 13 7 13 -8 1 -18 -14 -24 -36 -7 -26 16 10 11 -1 -7 -16 -11 -10 -14 -10 -9
-1 18 31 -5 7 -43 -43 -44 -60 -51 -75 -23 -54 15 13 16 12 4 -3 -8 -10 -19
-16 -24 -15 -6 1 -13 -4 -16 -12 -3 -10 0 -11 9 -5 12 7 12 5 0 -9 -16 -20
-25 -23 -15 -4 4 6 -2 3 -14 -7 -26 -23 -30 -45 -4 -25 15 13 16 12 4 -3 -8
-10 -19 -16 -24 -15 -6 1 -13 -4 -16 -12 -3 -10 0 -11 9 -5 12 7 12 5 0 -9
-16 -20 -26 -23 -15 -4 5 8 2 8 -9 -2 -18 -14 -24 -36 -7 -26 16 10 11 -1 -7
-16 -15 -12 -16 -12 -8 1 8 13 7 13 -8 1 -18 -14 -24 -36 -7 -26 16 10 11 -1
-7 -16 -15 -12 -16 -12 -8 1 8 13 7 13 -8 1 -18 -14 -24 -36 -7 -26 16 10 11
-1 -7 -16 -14 -12 -16 -12 -9 1 4 8 -4 2 -18 -15 -14 -16 -24 -35 -22 -42 3
-6 -3 -17 -12 -25 -16 -12 -16 -11 -2 7 15 20 14 20 -8 1 -23 -20 -31 -42 -9
-30 7 4 9 3 4 -2 -5 -5 -14 -9 -20 -9 -7 0 -12 -8 -12 -17 0 -10 -7 -23 -15
-30 -12 -11 -12 -10 0 7 15 20 14 20 -8 1 -23 -20 -31 -42 -9 -30 7 4 9 3 4
-2 -5 -5 -14 -9 -20 -9 -5 0 -12 -6 -15 -14 -3 -9 0 -11 9 -6 8 5 5 -1 -5 -13
-23 -26 -34 -29 -15 -4 11 14 10 13 -9 -2 -23 -20 -31 -42 -9 -30 7 4 9 3 4
-2 -5 -5 -14 -9 -20 -9 -5 0 -12 -6 -15 -14 -3 -9 0 -11 9 -5 12 7 12 5 0 -9
-16 -20 -26 -23 -15 -4 5 8 2 8 -9 -2 -20 -16 -23 -36 -4 -25 8 5 8 2 -2 -9
-16 -20 -26 -23 -15 -4 5 8 2 8 -9 -2 -20 -16 -23 -36 -4 -25 8 5 8 2 -2 -9
-16 -20 -26 -23 -15 -4 5 8 2 8 -9 -2 -20 -16 -23 -36 -4 -25 8 5 8 2 -2 -9
-16 -20 -25 -22 -16 -4 4 6 -5 -1 -19 -18 -14 -16 -24 -35 -22 -42 3 -6 -3
-17 -12 -25 -15 -12 -16 -11 -3 7 7 11 -1 4 -18 -15 -17 -19 -29 -40 -27 -47
3 -6 -3 -17 -12 -25 -16 -12 -16 -11 -2 7 15 20 14 20 -8 1 -23 -20 -31 -42
-9 -30 7 4 9 3 4 -2 -5 -5 -12 -9 -16 -9 -10 0 -61 -60 -61 -71 0 -5 14 7 31
26 l30 35 -26 -37 c-15 -21 -32 -36 -37 -35 -6 1 -13 -4 -16 -12 -3 -10 0 -11
9 -5 12 7 12 5 0 -9 -16 -20 -25 -23 -15 -4 4 6 -2 3 -14 -7 -26 -23 -30 -45
-4 -25 15 13 16 12 3 -3 -7 -10 -17 -16 -21 -13 -10 6 -42 -43 -36 -54 7 -10
-18 -34 -26 -26 -8 8 -40 -44 -34 -54 3 -5 -2 -15 -12 -22 -16 -13 -16 -12 -2
6 15 20 14 20 -8 1 -23 -20 -31 -43 -10 -30 7 5 8 3 4 -5 -5 -7 -11 -10 -14
-7 -7 7 -32 -13 -32 -26 0 -5 5 -6 10 -3 16 10 11 -1 -7 -16 -15 -12 -16 -12
-8 1 8 13 7 13 -8 1 -19 -15 -23 -36 -5 -25 7 5 8 3 4 -5 -5 -7 -11 -10 -14
-7 -7 7 -32 -13 -32 -26 0 -6 8 -4 18 3 15 13 16 12 3 -4 -8 -9 -16 -15 -19
-12 -7 6 -32 -15 -32 -27 0 -5 6 -6 13 -2 7 4 9 3 4 -2 -5 -5 -12 -9 -15 -9
-13 0 -32 -16 -32 -27 0 -6 7 -5 18 3 15 13 16 12 3 -4 -8 -9 -16 -15 -19 -12
-7 7 -32 -15 -32 -27 0 -6 8 -4 18 3 15 11 15 11 4 -1 -7 -8 -18 -15 -24 -15
-6 0 -13 -6 -16 -14 -3 -8 0 -11 7 -7 17 11 13 0 -6 -15 -15 -12 -16 -12 -8 1
5 9 0 8 -13 -4 -26 -23 -30 -45 -4 -25 15 13 16 12 3 -3 -7 -10 -17 -16 -21
-13 -10 6 -42 -43 -36 -54 7 -10 -18 -34 -26 -26 -8 8 -40 -44 -33 -55 5 -9
-13 -25 -29 -25 -5 0 -11 -6 -14 -14 -3 -9 0 -11 9 -6 8 5 11 4 6 -1 -5 -5
-14 -9 -20 -9 -5 0 -12 -6 -15 -14 -3 -9 0 -11 9 -6 8 5 5 -1 -5 -13 -23 -26
-34 -29 -15 -4 11 14 10 13 -9 -2 -23 -20 -31 -42 -9 -30 7 4 9 3 4 -2 -5 -5
-14 -9 -20 -9 -5 0 -12 -6 -15 -14 -3 -9 0 -11 9 -5 12 7 12 5 0 -9 -16 -20
-25 -23 -15 -4 4 6 -2 3 -14 -7 -26 -23 -30 -45 -4 -25 15 13 16 12 4 -3 -8
-10 -19 -16 -24 -15 -6 1 -13 -4 -16 -12 -3 -10 0 -11 9 -5 12 7 12 5 0 -9
-16 -20 -26 -23 -15 -4 5 8 2 8 -9 -2 -20 -16 -23 -36 -4 -25 8 5 8 2 -2 -9
-16 -20 -26 -23 -15 -4 5 8 2 8 -9 -2 -20 -16 -23 -36 -4 -25 8 5 8 2 -2 -9
-16 -20 -26 -23 -15 -4 5 8 2 8 -9 -2 -20 -16 -23 -36 -4 -25 8 5 8 2 -2 -9
-16 -20 -26 -23 -15 -4 5 8 2 8 -9 -2 -20 -16 -23 -36 -4 -25 7 4 9 3 4 -2 -5
-5 -12 -9 -15 -9 -13 0 -32 -16 -32 -26 0 -6 6 -7 13 -3 8 5 8 2 -2 -9 -16
-20 -26 -23 -15 -4 5 8 2 8 -9 -2 -20 -16 -23 -36 -4 -25 7 4 9 3 4 -2 -5 -5
-12 -9 -15 -9 -13 0 -32 -16 -32 -27 0 -6 7 -5 18 3 15 13 16 12 3 -4 -8 -9
-16 -15 -19 -12 -7 7 -32 -15 -32 -27 0 -6 8 -4 18 3 15 13 16 12 4 -3 -8 -10
-19 -16 -24 -15 -6 1 -13 -4 -16 -12 -3 -10 0 -11 9 -5 12 7 12 5 0 -9 -16
-20 -25 -23 -15 -4 4 6 -2 3 -14 -7 -26 -23 -30 -45 -4 -25 15 13 16 12 4 -3
-8 -10 -19 -16 -24 -15 -6 1 -13 -4 -16 -12 -3 -10 0 -11 9 -5 12 7 12 5 0 -9
-16 -20 -25 -23 -15 -4 4 6 -2 3 -14 -7 -26 -23 -30 -45 -4 -25 15 13 16 12 3
-3 -7 -10 -17 -16 -21 -13 -10 6 -44 -44 -36 -52 8 -8 -14 -34 -24 -28 -10 6
-42 -43 -36 -54 3 -5 -2 -15 -12 -22 -16 -13 -16 -12 -2 6 15 20 14 20 -8 1
-23 -20 -31 -42 -9 -30 7 4 9 3 4 -2 -5 -5 -14 -9 -19 -9 -6 0 -13 -6 -16 -14
-3 -9 0 -11 9 -6 8 5 5 -1 -5 -13 -23 -26 -34 -29 -15 -4 11 14 10 13 -9 -2
-23 -20 -31 -42 -9 -30 7 4 9 3 4 -2 -5 -5 -14 -9 -19 -9 -6 0 -13 -6 -16 -14
-3 -9 0 -11 9 -5 12 7 12 5 0 -9 -16 -20 -25 -23 -15 -4 4 6 -2 3 -14 -7 -26
-23 -30 -45 -4 -25 15 13 16 12 4 -3 -8 -10 -19 -16 -24 -15 -6 1 -13 -4 -16
-12 -3 -10 0 -11 9 -5 12 7 12 5 0 -9 -16 -20 -25 -23 -15 -4 4 6 -2 3 -14 -7
-26 -23 -30 -45 -4 -25 15 13 16 12 4 -3 -8 -10 -19 -16 -24 -15 -6 1 -13 -4
-16 -12 -3 -10 0 -11 9 -5 12 7 12 5 0 -9 -16 -20 -26 -23 -15 -4 5 8 2 8 -9
-2 -18 -14 -24 -36 -7 -26 16 10 11 -1 -7 -16 -15 -12 -16 -12 -8 1 8 13 7 13
-8 1 -19 -15 -23 -36 -5 -25 7 5 8 3 4 -5 -5 -7 -11 -10 -14 -7 -7 7 -32 -13
-32 -26 0 -5 5 -6 12 -2 7 5 8 3 4 -5 -5 -7 -11 -10 -14 -7 -7 7 -32 -13 -32
-26 0 -5 6 -6 13 -2 7 4 9 3 4 -2 -5 -5 -14 -9 -19 -9 -6 0 -13 -6 -16 -14 -3
-8 0 -11 7 -7 17 11 13 0 -6 -15 -15 -12 -16 -12 -8 1 5 9 0 8 -13 -4 -26 -23
-30 -45 -4 -25 15 13 16 12 4 -3 -8 -10 -19 -16 -24 -15 -6 1 -13 -4 -16 -12
-3 -8 0 -11 7 -7 17 11 13 0 -6 -15 -15 -12 -16 -12 -8 1 5 9 0 8 -13 -4 -26
-23 -30 -45 -4 -25 15 13 16 12 4 -3 -8 -10 -19 -16 -24 -15 -6 1 -13 -4 -16
-12 -3 -8 0 -11 7 -7 17 11 13 0 -6 -15 -15 -12 -16 -12 -8 1 8 13 7 13 -8 1
-18 -14 -24 -36 -7 -26 16 10 11 -1 -7 -16 -15 -12 -16 -12 -8 1 8 13 7 13 -8
1 -18 -14 -24 -36 -7 -26 16 10 11 -1 -7 -16 -15 -12 -16 -12 -8 1 8 13 7 13
-8 1 -18 -14 -24 -36 -7 -26 16 10 11 -1 -7 -16 -15 -12 -16 -12 -8 1 8 13 7
13 -8 1 -20 -16 -23 -36 -4 -25 7 4 9 3 4 -2 -5 -5 -14 -9 -20 -9 -7 0 -12 -8
-12 -17 0 -10 -7 -23 -15 -30 -12 -11 -12 -10 0 7 15 20 14 20 -8 1 -23 -20
-31 -42 -9 -30 7 4 9 3 4 -2 -5 -5 -14 -9 -20 -9 -5 0 -12 -6 -15 -14 -3 -9 0
-11 9 -6 8 5 5 -1 -5 -13 -23 -26 -34 -29 -15 -4 11 14 10 13 -9 -2 -23 -20
-31 -42 -9 -30 7 4 9 3 4 -2 -5 -5 -14 -9 -20 -9 -5 0 -12 -6 -15 -14 -3 -8 0
-11 7 -7 17 11 13 0 -6 -15 -15 -12 -16 -12 -8 1 5 9 0 8 -13 -4 -26 -23 -30
-45 -4 -25 15 13 16 12 4 -3 -8 -10 -19 -16 -24 -15 -6 1 -13 -4 -16 -12 -3
-8 0 -11 7 -7 17 11 13 0 -6 -15 -15 -12 -16 -12 -8 1 5 9 0 8 -13 -4 -26 -23
-30 -45 -4 -25 15 13 16 12 4 -3 -8 -10 -19 -16 -24 -15 -6 1 -13 -4 -16 -12
-3 -8 0 -11 7 -7 17 11 13 0 -6 -15 -15 -12 -16 -12 -8 1 8 13 7 13 -8 1 -18
-14 -24 -36 -7 -26 16 10 11 -1 -7 -16 -14 -12 -16 -12 -9 1 4 8 -4 2 -18 -15
-14 -16 -24 -35 -21 -42 2 -7 -1 -15 -7 -19 -7 -5 -8 -2 -3 7 5 8 -1 5 -13 -5
-26 -23 -30 -45 -4 -25 15 13 16 12 4 -3 -8 -10 -19 -16 -24 -15 -6 1 -13 -4
-16 -12 -3 -8 0 -11 7 -7 17 11 13 0 -6 -15 -15 -12 -16 -12 -8 1 5 9 0 8 -13
-4 -26 -23 -30 -45 -4 -25 15 13 16 12 4 -3 -8 -10 -19 -16 -24 -15 -6 1 -13
-4 -16 -12 -3 -8 0 -11 7 -7 17 11 13 0 -6 -15 -15 -12 -16 -12 -8 1 8 13 7
13 -8 1 -18 -14 -24 -36 -7 -26 16 10 11 -1 -7 -16 -15 -12 -16 -12 -8 1 8 13
7 13 -8 1 -18 -14 -24 -36 -7 -26 16 10 11 -1 -7 -16 -15 -12 -16 -12 -8 1 8
13 7 13 -8 1 -18 -14 -24 -36 -7 -26 16 10 11 -1 -7 -16 -14 -12 -16 -12 -9 1
4 8 -4 2 -18 -15 -14 -16 -24 -35 -22 -42 3 -6 -3 -17 -12 -25 -15 -12 -16
-11 -3 7 7 11 -1 4 -18 -15 -17 -19 -29 -40 -27 -47 3 -6 -3 -17 -12 -25 -16
-12 -16 -11 -2 7 15 20 14 20 -8 1 -23 -20 -31 -42 -9 -30 7 4 9 3 4 -2 -5 -5
-14 -9 -20 -9 -5 0 -12 -6 -15 -14 -3 -9 0 -11 9 -6 8 5 5 -1 -5 -13 -23 -26
-34 -29 -15 -4 11 14 10 13 -9 -2 -23 -20 -31 -42 -9 -30 7 4 9 3 4 -2 -5 -5
-14 -9 -20 -9 -5 0 -12 -6 -15 -14 -3 -9 0 -11 9 -5 12 7 12 5 0 -9 -16 -20
-25 -23 -15 -4 4 6 -2 3 -14 -7 -26 -23 -30 -44 -4 -25 15 11 15 11 4 -1 -7
-8 -18 -15 -24 -15 -6 0 -13 -6 -16 -14 -3 -9 0 -11 9 -5 12 7 12 5 0 -9 -16
-20 -26 -23 -15 -5 5 9 2 9 -9 -1 -20 -16 -23 -36 -4 -25 8 5 8 2 -2 -9 -16
-20 -26 -23 -15 -4 5 8 2 8 -9 -2 -20 -16 -23 -36 -5 -25 9 5 9 2 -1 -9 -15
-18 -26 -23 -16 -7 3 6 4 10 2 10 -7 0 -118 -152 -114 -156 2 -2 25 25 51 61
26 36 50 65 53 65 3 0 -6 -16 -21 -35 -14 -19 -38 -51 -52 -70 -14 -19 -29
-33 -33 -32 -9 2 -61 -57 -61 -69 0 -5 14 7 31 26 l30 35 -26 -37 c-15 -21
-32 -36 -37 -35 -6 1 -13 -4 -16 -12 -3 -10 0 -11 9 -5 12 7 12 5 0 -9 -16
-20 -26 -23 -15 -4 5 8 2 8 -9 -2 -20 -16 -23 -36 -4 -25 8 5 8 2 -2 -9 -16
-20 -25 -22 -16 -4 4 6 -5 -1 -19 -18 -14 -16 -24 -35 -22 -42 3 -6 -3 -17
-12 -25 -15 -12 -16 -11 -3 7 7 11 -1 4 -18 -15 -17 -19 -29 -40 -27 -47 3 -6
-3 -17 -12 -25 -16 -12 -16 -11 -2 7 15 20 14 20 -8 1 -23 -20 -31 -42 -10
-30 8 4 10 3 5 -2 -5 -5 -14 -9 -20 -9 -7 0 -12 -8 -12 -17 0 -10 -7 -23 -15
-30 -12 -11 -12 -10 0 7 15 20 14 20 -8 1 -23 -20 -31 -42 -9 -30 7 4 9 3 4
-2 -5 -5 -14 -9 -20 -9 -5 0 -12 -6 -15 -14 -3 -9 0 -11 9 -5 12 7 12 5 0 -9
-16 -20 -25 -23 -15 -4 4 6 -2 3 -14 -7 -26 -23 -30 -44 -4 -25 15 11 15 11 4
-1 -7 -8 -18 -15 -24 -15 -6 0 -13 -6 -16 -14 -3 -9 0 -11 9 -5 12 7 12 5 0
-9 -16 -20 -26 -23 -15 -4 5 8 2 8 -9 -2 -20 -16 -23 -36 -5 -25 9 5 9 2 -1
-9 -16 -20 -26 -23 -15 -4 5 8 2 8 -9 -2 -20 -16 -23 -36 -4 -25 8 5 8 2 -2
-9 -16 -20 -26 -23 -15 -5 5 9 2 9 -9 -1 -20 -16 -23 -36 -4 -25 8 5 8 2 -2
-9 -16 -20 -25 -22 -16 -4 4 6 -5 -1 -19 -18 -14 -16 -24 -35 -22 -42 3 -6 -2
-17 -10 -23 -8 -7 -14 -9 -14 -4 -1 11 -39 -38 -40 -50 0 -4 10 2 21 15 14 16
13 12 -4 -11 -13 -19 -30 -35 -37 -35 -8 0 -15 -6 -18 -14 -3 -9 0 -11 9 -6 8
5 11 4 6 -1 -5 -5 -14 -9 -19 -9 -6 0 -13 -6 -16 -14 -3 -9 0 -11 9 -5 12 7
12 5 0 -9 -16 -20 -25 -23 -15 -4 4 6 -2 3 -14 -7 -26 -23 -30 -44 -5 -25 16
11 16 11 5 -1 -7 -8 -18 -15 -24 -15 -6 0 -13 -6 -16 -14 -3 -9 0 -11 9 -5 12
7 12 5 0 -9 -16 -20 -25 -23 -15 -4 4 6 -2 3 -14 -7 -26 -23 -30 -44 -4 -25
15 11 15 11 4 -1 -7 -8 -18 -15 -24 -15 -6 0 -13 -6 -16 -14 -3 -9 0 -11 9 -5
12 7 12 5 0 -9 -16 -20 -26 -23 -15 -4 5 8 2 8 -9 -2 -20 -16 -23 -36 -5 -25
9 5 9 2 -1 -9 -16 -20 -26 -23 -15 -4 5 8 2 8 -9 -2 -20 -16 -23 -36 -4 -25 8
5 8 2 -2 -9 -16 -20 -26 -23 -15 -4 5 8 2 8 -9 -2 -20 -16 -23 -36 -4 -25 8 5
8 2 -2 -9 -16 -20 -26 -23 -15 -4 5 8 2 8 -9 -2 -19 -15 -23 -36 -5 -25 7 5 8
3 4 -5 -5 -7 -11 -10 -14 -7 -7 7 -32 -13 -32 -26 0 -5 6 -6 12 -2 9 5 9 2 -1
-9 -16 -20 -26 -23 -15 -4 5 8 2 8 -9 -2 -19 -15 -23 -36 -5 -25 7 5 8 3 4 -5
-5 -7 -11 -10 -14 -7 -7 7 -32 -13 -32 -26 0 -6 8 -4 18 3 15 13 16 12 3 -4
-8 -9 -16 -15 -19 -12 -7 7 -32 -15 -32 -27 0 -6 8 -4 18 3 15 13 16 12 3 -4
-8 -9 -16 -15 -19 -12 -7 7 -32 -15 -32 -27 0 -6 8 -4 18 3 15 13 16 12 3 -4
-8 -9 -16 -15 -19 -12 -7 7 -32 -15 -32 -27 0 -6 8 -4 18 3 15 13 16 12 3 -3
-7 -10 -17 -16 -21 -13 -10 6 -42 -43 -36 -54 7 -10 -18 -34 -26 -26 -8 8 -40
-44 -34 -54 7 -10 -18 -34 -26 -26 -8 8 -40 -44 -34 -54 3 -5 -2 -15 -12 -22
-16 -13 -16 -12 -2 6 15 20 14 20 -8 1 -23 -20 -31 -42 -9 -30 7 4 9 3 4 -2
-5 -5 -14 -9 -19 -9 -6 0 -13 -6 -16 -14 -3 -9 0 -11 9 -6 8 5 5 -1 -5 -13
-23 -26 -34 -29 -15 -4 11 14 10 13 -9 -2 -23 -20 -31 -42 -9 -30 7 4 9 3 4
-2 -5 -5 -14 -9 -19 -9 -6 0 -13 -6 -16 -14 -3 -8 0 -11 7 -7 17 11 13 0 -6
-15 -15 -12 -16 -12 -8 1 8 13 7 13 -8 1 -18 -14 -24 -36 -7 -26 16 10 11 -1
-7 -16 -15 -12 -16 -12 -8 1 8 13 7 13 -8 1 -18 -14 -24 -36 -7 -26 16 10 11
-1 -7 -16 -15 -12 -16 -12 -8 1 8 13 7 13 -8 1 -18 -14 -24 -36 -7 -26 16 10
11 -1 -7 -16 -15 -12 -16 -12 -8 1 8 13 7 13 -8 1 -18 -14 -24 -36 -7 -26 16
10 11 -1 -7 -16 -15 -12 -16 -12 -8 1 8 13 7 13 -8 1 -18 -14 -24 -36 -7 -26
16 10 11 -1 -7 -16 -15 -12 -16 -12 -8 1 8 13 7 13 -8 1 -19 -15 -23 -36 -5
-25 7 5 8 3 4 -5 -5 -7 -11 -10 -14 -7 -7 7 -32 -13 -32 -26 0 -5 5 -6 12 -2
7 5 8 3 4 -5 -5 -7 -11 -10 -14 -7 -7 7 -32 -13 -32 -26 0 -5 5 -6 12 -2 7 5
8 3 4 -5 -5 -7 -11 -10 -14 -7 -7 7 -32 -13 -32 -26 0 -6 8 -4 18 3 15 13 16
12 3 -4 -8 -9 -16 -15 -19 -12 -7 7 -32 -15 -32 -27 0 -6 8 -4 18 3 15 11 15
11 4 -1 -7 -8 -18 -15 -24 -15 -6 0 -13 -6 -16 -14 -3 -8 0 -11 7 -7 17 11 13
0 -6 -15 -15 -12 -16 -12 -8 1 5 9 0 8 -13 -4 -26 -23 -30 -44 -4 -25 15 11
15 11 4 -1 -7 -8 -18 -15 -24 -15 -6 0 -13 -6 -16 -14 -3 -8 0 -11 7 -7 17 11
13 0 -6 -15 -15 -12 -16 -12 -8 1 5 9 0 8 -13 -4 -26 -23 -30 -44 -4 -25 15
11 15 11 4 -1 -7 -8 -18 -15 -24 -15 -6 0 -13 -6 -16 -14 -3 -8 0 -11 7 -7 17
11 13 0 -6 -15 -15 -12 -16 -12 -8 1 8 13 7 13 -8 1 -18 -14 -24 -36 -7 -26
16 10 11 -1 -7 -16 -15 -12 -16 -12 -8 1 8 13 7 13 -8 1 -20 -16 -23 -36 -4
-25 7 4 9 3 4 -2 -5 -5 -14 -9 -20 -9 -7 0 -12 -8 -12 -17 0 -10 -7 -23 -15
-30 -12 -11 -12 -10 0 7 15 20 14 20 -8 1 -23 -20 -31 -42 -9 -30 7 4 9 3 4
-2 -5 -5 -14 -9 -19 -9 -6 0 -13 -6 -16 -14 -3 -9 0 -11 9 -6 8 5 5 -1 -5 -13
-23 -26 -34 -29 -15 -4 11 14 10 13 -9 -2 -23 -20 -31 -42 -9 -30 7 4 9 3 4
-2 -5 -5 -14 -9 -20 -9 -5 0 -12 -6 -15 -14 -3 -8 0 -11 7 -7 17 11 13 0 -6
-15 -15 -12 -16 -12 -8 1 5 9 0 8 -13 -4 -26 -23 -30 -44 -4 -25 15 11 15 11
4 -1 -7 -8 -18 -15 -24 -15 -6 0 -13 -6 -16 -14 -3 -8 0 -11 7 -7 17 11 13 0
-6 -15 -15 -12 -16 -12 -8 1 5 9 0 8 -13 -4 -26 -23 -30 -44 -5 -25 16 11 16
11 5 -1 -7 -8 -18 -15 -24 -15 -6 0 -13 -6 -16 -14 -3 -8 0 -11 7 -7 17 11 13
0 -6 -15 -15 -12 -16 -12 -8 1 8 13 7 13 -8 1 -18 -14 -24 -36 -7 -26 16 10
11 -1 -7 -16 -15 -12 -16 -12 -8 1 8 13 7 13 -8 1 -18 -14 -24 -36 -7 -26 16
10 11 -1 -7 -16 -15 -12 -16 -12 -8 1 8 13 7 13 -8 1 -20 -16 -23 -36 -4 -25
7 4 9 3 4 -2 -5 -5 -12 -9 -15 -9 -13 0 -32 -16 -32 -27 0 -6 7 -5 18 3 15 11
15 11 4 -1 -7 -8 -18 -15 -24 -15 -6 0 -13 -6 -16 -14 -3 -8 0 -11 7 -7 17 11
13 0 -6 -15 -15 -12 -16 -12 -8 1 5 9 0 8 -13 -4 -26 -23 -30 -44 -4 -25 16
13 16 13 0 -7 -10 -11 -18 -24 -18 -27 0 -4 2880 -7 6400 -7 3520 0 6400 3
6400 7 0 3 -8 16 -17 27 -17 20 -17 20 0 7 25 -19 21 2 -5 25 -13 12 -18 13
-13 4 8 -13 7 -13 -8 -1 -19 15 -23 26 -6 15 7 -4 10 -1 7 7 -3 8 -10 14 -16
14 -6 0 -17 7 -24 15 -11 12 -11 12 5 1 10 -8 17 -9 17 -3 0 12 -19 27 -35 27
-5 0 -10 9 -10 20 0 11 -5 20 -12 20 -6 0 -15 4 -20 9 -5 5 -3 6 5 2 18 -11
15 9 -5 25 -15 12 -16 12 -8 -1 8 -13 7 -13 -8 -1 -18 15 -23 26 -7 16 17 -10
11 12 -7 26 -15 12 -16 12 -8 -1 8 -13 7 -13 -8 -1 -19 15 -23 26 -6 15 7 -4
10 -1 7 7 -3 8 -10 14 -16 14 -6 0 -17 7 -24 15 -11 12 -11 12 5 1 25 -19 21
2 -5 25 -13 12 -18 13 -13 4 8 -13 7 -13 -8 -1 -19 15 -23 26 -6 15 7 -4 10
-1 7 7 -3 8 -10 14 -16 14 -6 0 -17 7 -24 15 -11 12 -11 12 5 1 25 -19 21 2
-5 25 -13 12 -18 13 -13 4 8 -13 7 -13 -8 -1 -19 15 -23 26 -6 15 7 -4 10 -1
7 7 -3 8 -10 14 -15 14 -6 0 -15 4 -20 9 -5 5 -3 6 5 2 6 -4 12 -3 12 2 0 12
-25 33 -32 27 -3 -3 -11 2 -19 12 -12 14 -12 15 0 9 9 -6 12 -4 9 5 -3 8 -10
14 -15 14 -6 0 -15 4 -20 9 -5 5 -3 6 5 2 21 -12 13 10 -10 30 -22 19 -23 19
-8 -1 12 -17 12 -18 0 -7 -8 7 -15 20 -15 30 0 9 -5 17 -12 17 -6 0 -15 4 -20
9 -5 5 -3 6 5 2 21 -12 13 10 -10 30 -22 19 -23 19 -8 -1 14 -18 14 -19 -2 -6
-10 7 -15 17 -12 22 6 11 -26 60 -36 54 -4 -3 -14 3 -21 13 -13 15 -12 16 4 3
25 -20 21 2 -5 25 -13 12 -18 13 -13 4 8 -13 7 -13 -8 -1 -19 15 -23 26 -6 15
7 -4 10 -1 7 7 -3 8 -10 14 -16 14 -6 0 -17 7 -24 15 -11 12 -11 12 5 1 25
-19 21 2 -5 25 -13 12 -18 13 -13 4 8 -13 7 -13 -8 -1 -19 15 -23 26 -6 15 7
-4 10 -1 7 7 -3 8 -10 14 -16 14 -6 0 -17 7 -24 15 -11 12 -11 12 5 1 25 -19
21 2 -5 25 -13 12 -18 13 -13 4 8 -13 7 -13 -8 -1 -19 15 -23 26 -6 15 7 -4
10 -1 7 7 -3 8 -10 14 -16 14 -6 0 -17 7 -24 15 -11 12 -11 12 5 1 9 -7 17 -9
17 -3 0 12 -25 34 -32 27 -3 -3 -11 3 -19 12 -13 16 -12 17 4 4 9 -7 17 -9 17
-3 0 11 -31 39 -37 34 -3 -2 -8 0 -11 4 -4 4 -1 4 6 0 18 -11 15 9 -5 25 -15
12 -16 12 -8 -1 8 -13 7 -13 -8 -1 -18 15 -23 26 -7 16 6 -3 10 -2 10 3 0 11
-21 30 -33 30 -5 0 -12 4 -15 8 -4 4 -1 4 6 0 18 -11 15 9 -5 25 -15 12 -16
12 -8 -1 8 -13 7 -13 -8 -1 -18 15 -23 26 -7 16 17 -10 11 12 -7 26 -15 12
-16 12 -8 -1 8 -13 7 -13 -8 -1 -18 15 -23 26 -7 16 17 -10 11 12 -7 26 -15
12 -16 12 -8 -1 8 -13 7 -13 -8 -1 -18 15 -23 26 -7 16 17 -10 11 12 -7 26
-15 12 -16 12 -8 -1 8 -13 7 -13 -8 -1 -18 15 -23 26 -7 16 17 -10 11 12 -7
26 -15 12 -16 12 -8 -1 8 -13 7 -13 -8 -1 -18 15 -23 26 -7 16 17 -10 11 12
-7 26 -15 12 -16 12 -8 -1 8 -13 7 -13 -8 -1 -19 15 -23 26 -6 15 7 -4 10 -1
7 7 -3 8 -10 14 -16 14 -5 0 -14 4 -19 9 -5 5 -3 6 5 2 21 -12 13 10 -10 30
-22 19 -23 19 -8 -1 15 -20 14 -20 -8 -1 -23 20 -30 32 -11 20 7 -4 10 -1 7 7
-3 8 -10 14 -16 14 -5 0 -14 4 -19 9 -5 5 -3 6 5 2 21 -12 13 10 -10 30 -22
19 -23 19 -8 -1 15 -20 14 -20 -8 -1 -23 20 -30 32 -11 20 7 -4 10 -1 7 7 -3
8 -10 14 -16 14 -5 0 -14 4 -19 9 -5 5 -3 6 5 2 21 -12 13 10 -10 30 -22 19
-23 19 -8 -1 14 -18 14 -19 -2 -6 -10 7 -15 17 -12 22 6 11 -26 60 -36 54 -4
-3 -14 3 -21 13 -13 15 -12 16 4 3 25 -20 21 2 -5 25 -13 12 -18 13 -13 4 8
-13 7 -13 -8 -1 -19 15 -23 26 -6 15 7 -4 10 -1 7 7 -3 8 -10 14 -16 14 -6 0
-17 7 -24 15 -11 12 -11 12 5 1 25 -19 21 2 -5 25 -12 10 -18 13 -14 7 10 -19
1 -16 -15 4 -12 14 -12 16 0 9 9 -6 12 -4 9 5 -3 8 -10 14 -16 14 -6 0 -17 7
-24 15 -11 12 -11 12 5 1 9 -7 17 -9 17 -3 0 12 -25 34 -32 27 -3 -3 -11 3
-19 12 -13 16 -12 17 4 4 9 -7 17 -9 17 -3 0 12 -25 34 -32 27 -3 -3 -11 3
-19 12 -13 16 -12 17 4 4 9 -7 17 -9 17 -3 0 12 -25 34 -32 27 -3 -3 -11 3
-19 12 -13 16 -12 17 4 4 9 -7 17 -9 17 -3 0 11 -30 38 -39 35 -3 -1 -8 1 -11
4 -3 4 1 3 8 -1 18 -11 15 9 -5 25 -11 10 -14 10 -9 2 11 -19 1 -16 -15 4 -10
11 -10 14 -1 9 6 -4 12 -3 12 2 0 11 -32 39 -36 32 -1 -3 -6 -1 -11 4 -5 5 -3
6 5 2 18 -11 15 9 -5 25 -11 10 -14 10 -9 2 11 -19 1 -16 -15 4 -10 11 -10 14
-1 9 18 -11 15 9 -5 25 -11 10 -14 10 -9 2 11 -19 1 -16 -15 4 -10 11 -10 14
-1 9 18 -11 15 9 -5 25 -11 10 -14 10 -9 2 11 -19 1 -16 -15 4 -10 11 -10 14
-1 9 18 -11 15 9 -5 25 -11 10 -14 10 -9 2 11 -19 1 -16 -15 4 -12 14 -12 16
0 9 9 -6 12 -4 9 5 -3 8 -10 14 -16 14 -6 0 -17 7 -24 15 -11 12 -11 12 5 1
25 -19 21 2 -5 25 -12 10 -18 13 -14 6 10 -18 1 -15 -15 5 -12 14 -12 16 0 9
9 -6 12 -4 9 5 -3 8 -10 14 -16 14 -5 0 -14 4 -19 9 -5 5 -3 6 5 2 6 -4 12 -3
12 2 0 12 -25 33 -32 27 -3 -3 -11 2 -19 12 -12 14 -12 15 0 9 9 -6 12 -4 9 5
-3 8 -10 14 -16 14 -5 0 -14 4 -19 9 -5 5 -3 6 5 2 21 -12 13 10 -10 30 -22
19 -23 19 -8 -1 14 -18 14 -19 -2 -7 -9 8 -15 19 -12 25 2 7 -10 28 -27 47
-17 19 -25 26 -18 15 13 -18 12 -19 -3 -7 -9 8 -15 19 -12 25 2 7 -10 28 -27
47 -17 19 -25 26 -18 15 13 -18 12 -19 -3 -7 -9 8 -15 19 -12 25 2 7 -8 26
-22 42 -14 17 -23 24 -19 18 9 -18 0 -16 -16 4 -10 11 -10 14 -1 9 18 -11 15
9 -5 25 -11 10 -14 10 -9 2 11 -19 1 -16 -15 4 -12 14 -12 16 0 9 9 -6 12 -4
9 5 -3 8 -10 14 -16 14 -6 0 -17 7 -24 15 -11 12 -11 12 5 1 25 -19 21 2 -5
25 -12 10 -18 13 -14 7 10 -19 1 -16 -15 4 -12 14 -12 16 0 9 9 -6 12 -4 9 5
-3 8 -10 14 -15 14 -6 0 -15 4 -20 9 -5 5 -3 6 5 2 6 -4 12 -3 12 2 0 12 -25
33 -32 27 -3 -3 -11 2 -19 12 -12 14 -12 15 0 9 9 -6 12 -4 9 5 -3 8 -10 14
-15 14 -6 0 -15 4 -20 9 -5 5 -3 6 5 2 21 -12 13 10 -10 30 -22 19 -23 19 -8
-1 14 -18 14 -19 -2 -7 -9 8 -15 19 -12 25 2 7 -10 28 -27 47 -17 19 -25 26
-18 15 13 -18 12 -19 -3 -7 -9 8 -15 19 -12 25 2 7 -10 28 -27 47 -17 19 -25
26 -18 15 13 -18 12 -19 -3 -7 -9 8 -15 19 -12 25 2 7 -8 26 -22 42 -14 17
-23 24 -19 18 9 -18 0 -16 -16 4 -10 11 -10 14 -1 9 18 -11 15 9 -5 25 -11 10
-14 10 -9 2 11 -19 1 -16 -15 4 -12 14 -12 16 0 9 9 -6 12 -4 9 5 -3 8 -10 14
-16 14 -6 0 -17 7 -24 15 -11 12 -11 12 5 1 25 -19 21 2 -5 25 -12 10 -18 13
-14 7 10 -19 1 -16 -15 4 -12 14 -12 16 0 9 9 -6 12 -4 9 5 -3 8 -10 14 -16
14 -6 0 -17 7 -24 15 -11 12 -11 12 5 1 9 -7 17 -11 17 -7 0 8 -90 126 -97
126 -3 0 1 -8 8 -17 13 -16 12 -17 -3 -5 -9 8 -15 19 -12 25 2 7 -8 26 -22 42
-14 17 -22 23 -18 15 7 -13 5 -13 -9 -1 -18 15 -23 26 -7 16 17 -10 11 12 -7
26 -15 12 -16 12 -8 -1 8 -13 7 -13 -8 -1 -18 15 -23 26 -7 16 17 -10 11 12
-7 26 -15 12 -16 12 -8 -1 8 -13 7 -13 -8 -1 -18 15 -23 26 -7 16 17 -10 11
12 -7 26 -15 12 -16 12 -8 -1 8 -13 7 -13 -8 -1 -19 15 -23 26 -6 15 7 -4 10
-1 7 7 -3 8 -10 14 -15 14 -6 0 -15 4 -20 9 -5 5 -3 6 5 2 21 -12 13 10 -10
30 -22 19 -23 19 -8 -1 15 -20 14 -20 -8 -1 -23 20 -30 32 -11 20 7 -4 10 -1
7 7 -3 8 -10 14 -15 14 -6 0 -15 4 -20 9 -5 5 -3 6 5 2 21 -12 13 10 -10 30
-22 19 -23 19 -8 -1 12 -17 12 -18 0 -7 -8 7 -15 20 -15 30 0 9 -5 17 -12 17
-6 0 -15 4 -20 9 -5 5 -3 6 5 2 21 -12 13 10 -10 30 -22 19 -23 19 -8 -1 14
-18 14 -19 -2 -7 -9 8 -15 19 -12 25 2 7 -10 28 -27 47 -17 19 -25 26 -18 15
13 -18 12 -19 -3 -7 -9 8 -15 19 -12 25 2 7 -8 26 -22 42 -14 17 -22 23 -18
15 7 -13 5 -13 -9 -1 -18 15 -23 26 -7 16 17 -10 11 12 -7 26 -15 12 -16 12
-8 -1 8 -13 7 -13 -8 -1 -19 15 -23 26 -6 15 7 -4 10 -1 7 7 -3 8 -10 13 -16
12 -5 -1 -16 5 -24 15 -12 15 -11 16 5 3 25 -20 21 2 -5 25 -13 12 -18 13 -13
4 8 -13 7 -13 -8 -1 -19 15 -23 26 -6 15 7 -4 10 -1 7 7 -3 8 -10 13 -16 12
-5 -1 -16 5 -24 15 -12 15 -11 16 5 3 25 -20 21 2 -5 25 -13 12 -18 13 -13 4
8 -13 7 -13 -8 -1 -19 15 -23 26 -6 15 7 -4 10 -1 7 7 -3 8 -10 13 -16 12 -5
-1 -16 5 -24 15 -12 15 -11 16 5 3 25 -20 21 2 -5 25 -13 12 -18 13 -13 4 8
-13 7 -13 -8 -1 -19 15 -23 26 -6 15 7 -4 10 -1 7 7 -3 8 -10 14 -15 14 -6 0
-15 4 -20 9 -5 5 -3 6 5 2 18 -11 15 9 -5 25 -15 12 -16 12 -8 -1 8 -13 7 -13
-8 -1 -18 15 -23 26 -7 16 17 -10 11 12 -7 26 -15 12 -16 12 -8 -1 8 -13 7
-13 -8 -1 -19 15 -23 26 -6 15 7 -4 10 -1 7 7 -3 8 -10 13 -16 12 -5 -1 -16 5
-24 15 -12 15 -11 16 5 3 25 -20 21 2 -5 25 -13 12 -18 13 -13 4 8 -13 7 -13
-8 -1 -19 15 -23 26 -6 15 7 -4 10 -1 7 7 -3 8 -10 13 -16 12 -5 -1 -16 5 -24
15 -12 15 -11 16 5 3 25 -20 21 2 -5 25 -13 12 -18 13 -13 4 8 -13 7 -13 -8
-1 -19 15 -23 26 -6 15 7 -4 10 -1 7 7 -3 8 -10 14 -15 14 -6 0 -15 4 -20 9
-5 5 -3 6 5 2 6 -4 12 -3 12 2 0 12 -25 33 -32 27 -3 -3 -11 2 -19 12 -12 14
-12 15 0 9 9 -6 12 -4 9 5 -3 8 -10 14 -16 14 -5 0 -14 4 -19 9 -5 5 -3 6 5 2
21 -12 13 10 -10 30 -22 19 -23 19 -8 -1 12 -17 12 -18 0 -7 -8 7 -15 20 -15
30 0 9 -5 17 -12 17 -6 0 -15 4 -20 9 -5 5 -3 6 5 2 21 -12 13 10 -10 30 -22
19 -23 19 -8 -1 14 -18 14 -19 -2 -6 -10 7 -15 17 -12 22 6 11 -26 60 -36 54
-4 -3 -14 3 -21 13 -13 15 -12 16 4 3 25 -20 21 2 -5 25 -13 12 -18 13 -13 4
8 -13 7 -13 -8 -1 -19 15 -23 26 -6 15 7 -4 10 -1 7 7 -3 8 -10 13 -16 12 -5
-1 -16 5 -24 15 -12 15 -11 16 5 3 25 -20 21 2 -5 25 -13 12 -18 13 -13 4 8
-13 7 -13 -8 -1 -19 15 -23 26 -6 15 7 -4 10 -1 7 7 -3 8 -10 13 -16 12 -5 -1
-16 5 -24 15 -12 15 -11 16 5 3 25 -20 21 2 -5 25 -13 12 -18 13 -13 4 8 -13
7 -13 -8 -1 -19 15 -23 26 -6 15 7 -4 10 -1 7 7 -3 8 -10 13 -16 12 -5 -1 -16
5 -24 15 -12 15 -11 16 5 3 9 -7 17 -9 17 -3 0 12 -25 34 -32 27 -3 -3 -11 3
-19 12 -13 16 -12 17 4 4 10 -8 17 -9 17 -3 0 11 -19 27 -32 27 -3 0 -10 4
-15 9 -5 5 -3 6 5 2 18 -11 15 9 -5 25 -11 10 -14 10 -9 2 11 -19 1 -16 -15 4
-10 11 -10 14 -1 9 6 -4 12 -3 12 2 0 11 -22 31 -32 29 -3 -1 -10 2 -15 7 -5
5 -3 6 5 2 18 -11 15 9 -5 25 -11 10 -14 10 -9 2 11 -19 1 -16 -15 4 -10 11
-10 14 -1 9 18 -11 15 9 -5 25 -11 10 -14 10 -9 2 11 -19 1 -16 -15 4 -10 11
-10 14 -1 9 18 -11 15 9 -5 25 -11 10 -14 10 -9 2 11 -19 1 -16 -15 4 -10 11
-10 14 -1 9 18 -11 15 9 -5 25 -11 10 -14 10 -9 2 11 -19 1 -16 -15 4 -10 11
-10 14 -1 9 18 -11 15 9 -5 25 -11 10 -14 10 -9 2 11 -19 1 -16 -15 4 -10 11
-10 14 -1 9 18 -11 15 9 -5 25 -11 10 -14 10 -9 2 11 -19 1 -16 -15 4 -12 14
-12 16 0 9 9 -6 12 -4 9 5 -3 8 -10 14 -16 14 -5 0 -14 4 -19 9 -5 5 -3 6 5 2
21 -12 13 10 -10 30 -22 19 -23 19 -8 -1 15 -20 14 -20 -8 -1 -23 20 -30 32
-11 20 7 -4 10 -1 7 7 -3 8 -10 14 -15 14 -6 0 -15 4 -20 9 -5 5 -3 6 5 2 21
-12 13 10 -10 30 -22 19 -23 19 -8 -1 12 -17 12 -18 0 -7 -8 7 -15 20 -15 30
0 9 -5 17 -12 17 -6 0 -15 4 -20 9 -5 5 -2 6 6 1 9 -5 12 -3 9 6 -3 8 -9 14
-14 14 -16 0 -34 16 -29 25 7 12 -25 61 -35 55 -4 -3 -14 3 -21 13 -13 15 -12
16 4 3 25 -20 21 2 -5 25 -12 10 -18 13 -14 7 10 -19 1 -16 -15 4 -12 14 -12
16 0 9 9 -6 12 -4 9 5 -3 8 -10 14 -16 14 -6 0 -17 7 -24 15 -11 12 -11 12 5
1 25 -19 21 2 -5 25 -12 10 -18 13 -14 7 10 -19 1 -16 -15 4 -12 14 -12 16 0
9 9 -6 12 -4 9 5 -3 8 -10 14 -16 14 -6 0 -17 7 -24 15 -11 12 -11 12 5 1 9
-7 17 -9 17 -3 0 12 -25 34 -32 27 -3 -3 -11 3 -19 12 -13 16 -12 17 4 4 9 -7
17 -9 17 -3 0 11 -31 39 -37 34 -3 -2 -8 0 -11 4 -4 4 -1 4 6 0 6 -4 12 -3 12
2 0 12 -25 33 -32 27 -3 -3 -11 3 -19 12 -13 16 -12 17 4 4 9 -7 17 -9 17 -3
0 11 -21 30 -33 30 -5 0 -12 4 -15 8 -4 4 -1 4 6 0 18 -11 15 9 -5 25 -15 12
-16 12 -8 -1 8 -13 7 -13 -8 -1 -18 15 -23 26 -7 16 6 -3 10 -2 10 4 0 10 -19
26 -32 26 -3 0 -10 4 -15 9 -5 5 -3 6 5 2 18 -11 15 9 -5 25 -15 12 -16 12 -8
-1 8 -13 7 -13 -8 -1 -18 15 -23 26 -7 16 17 -10 11 12 -7 26 -15 12 -16 12
-8 -1 8 -13 7 -13 -8 -1 -18 15 -23 26 -7 16 17 -10 11 12 -7 26 -15 12 -16
12 -8 -1 8 -13 7 -13 -8 -1 -18 15 -23 26 -7 16 17 -10 11 12 -7 26 -15 12
-16 12 -8 -1 8 -13 7 -13 -8 -1 -19 15 -23 26 -6 15 7 -4 10 -1 7 7 -3 8 -10
14 -16 14 -6 0 -17 7 -24 15 -11 12 -11 12 5 1 25 -19 21 2 -5 25 -13 12 -18
13 -13 4 8 -13 7 -13 -8 -1 -19 15 -23 26 -6 15 7 -4 10 -1 7 7 -3 8 -10 14
-16 14 -6 0 -17 7 -24 15 -11 12 -11 12 5 1 25 -19 21 2 -5 25 -13 12 -18 13
-13 4 8 -13 7 -13 -8 -1 -19 15 -23 26 -6 15 7 -4 10 -1 7 7 -3 8 -10 14 -15
14 -6 0 -15 4 -20 9 -5 5 -2 6 6 1 9 -5 12 -4 10 4 -3 7 -9 13 -14 13 -17 0
-34 19 -29 31 2 7 -10 28 -27 47 -17 19 -25 26 -18 15 13 -18 12 -19 -3 -7 -9
8 -15 19 -12 25 2 7 -8 26 -22 42 -14 17 -22 23 -18 15 7 -13 5 -13 -9 -1 -18
15 -23 26 -7 16 17 -10 11 12 -7 26 -15 12 -16 12 -8 -1 8 -13 7 -13 -8 -1
-18 15 -23 26 -7 16 17 -10 11 12 -7 26 -15 12 -16 12 -8 -1 8 -13 7 -13 -8
-1 -18 15 -23 26 -7 16 17 -10 11 12 -7 26 -11 10 -14 10 -9 2 11 -19 1 -16
-15 4 -12 14 -12 16 0 9 9 -6 12 -4 9 5 -3 8 -10 14 -16 14 -6 0 -17 7 -24 15
-11 12 -11 12 5 1 25 -19 21 2 -5 25 -12 10 -18 13 -14 7 10 -19 1 -16 -15 4
-12 14 -12 16 0 9 9 -6 12 -4 9 5 -3 8 -10 14 -16 14 -5 0 -14 4 -19 9 -5 5
-3 6 5 2 21 -12 13 10 -10 30 -22 19 -23 19 -8 -1 15 -20 14 -20 -8 -1 -23 20
-30 32 -11 20 7 -4 10 -1 7 7 -3 8 -10 14 -15 14 -6 0 -15 4 -20 9 -5 5 -3 6
5 2 21 -12 13 10 -10 30 -22 19 -23 19 -8 -1 14 -18 14 -19 -2 -7 -9 8 -15 19
-12 25 2 7 -10 28 -27 47 -17 19 -25 26 -18 15 13 -18 12 -19 -3 -7 -9 8 -15
19 -12 25 2 7 -10 28 -27 47 -17 19 -25 26 -18 15 13 -18 12 -19 -3 -7 -9 8
-15 19 -12 25 2 7 -8 26 -22 42 -14 17 -22 23 -18 15 7 -13 5 -13 -9 -1 -18
15 -23 26 -7 16 17 -10 11 12 -7 26 -15 12 -16 12 -8 -1 8 -13 7 -13 -8 -1
-19 15 -23 26 -6 15 7 -4 10 -1 7 7 -3 8 -10 13 -16 12 -5 -1 -22 14 -37 35
l-26 37 30 -35 c17 -19 31 -31 31 -26 0 13 -52 71 -61 69 -4 -2 -18 12 -29 30
l-22 32 26 -30 c40 -47 31 -22 -15 40 -38 50 -61 74 -43 43 5 -9 2 -9 -9 1
-18 15 -23 26 -7 16 17 -10 11 12 -7 26 -15 12 -16 12 -8 -1 8 -13 7 -13 -8
-1 -18 15 -23 26 -7 16 17 -10 11 12 -7 26 -15 12 -16 12 -8 -1 8 -13 7 -13
-8 -1 -18 15 -23 26 -7 16 17 -10 11 12 -7 26 -11 10 -14 10 -9 2 11 -19 1
-16 -15 4 -12 14 -12 16 0 9 9 -6 12 -5 9 5 -3 8 -10 13 -16 12 -5 -1 -16 5
-24 15 -12 15 -11 16 5 3 25 -20 21 2 -5 25 -12 10 -18 13 -14 7 10 -19 1 -16
-15 4 -12 14 -12 16 0 9 9 -6 12 -4 9 5 -3 8 -10 14 -15 14 -6 0 -15 4 -20 9
-5 5 -3 6 5 2 21 -12 13 10 -10 30 -22 19 -23 19 -8 -1 15 -20 14 -20 -8 -1
-23 20 -30 32 -11 20 7 -4 10 -1 7 7 -3 8 -10 14 -15 14 -6 0 -15 4 -20 9 -5
5 -3 6 5 2 21 -12 13 10 -10 30 -22 19 -23 19 -8 -1 12 -17 12 -18 0 -7 -8 7
-15 20 -15 30 0 9 -5 17 -12 17 -6 0 -15 4 -20 9 -5 5 -3 6 5 2 21 -12 13 10
-10 30 -22 19 -23 19 -8 -1 14 -18 14 -19 -2 -7 -9 8 -15 19 -12 25 2 7 -8 26
-22 42 -14 17 -22 23 -18 15 7 -13 5 -13 -9 -1 -18 15 -23 26 -7 16 17 -10 11
12 -7 26 -11 10 -14 10 -9 2 11 -19 1 -16 -15 4 -10 11 -10 14 -1 9 18 -11 15
9 -5 25 -15 12 -16 12 -8 -1 8 -13 7 -13 -8 -1 -18 15 -23 26 -7 16 17 -10 11
12 -7 26 -15 12 -16 12 -8 -1 8 -13 7 -13 -8 -1 -19 15 -23 26 -6 15 7 -4 10
-1 7 7 -3 8 -10 13 -16 12 -5 -1 -16 5 -24 15 -12 15 -11 16 5 3 25 -20 21 2
-5 25 -13 12 -18 13 -13 4 8 -13 7 -13 -8 -1 -19 15 -23 26 -6 15 7 -4 10 -1
7 7 -3 8 -10 14 -15 14 -6 0 -15 4 -20 9 -5 5 -2 6 6 1 9 -5 12 -3 9 6 -3 8
-10 14 -16 14 -6 0 -17 7 -24 15 -11 12 -11 12 5 1 25 -19 21 2 -5 25 -13 12
-18 13 -13 4 8 -13 7 -13 -8 -1 -19 15 -23 26 -6 15 7 -4 10 -1 7 7 -3 8 -10
14 -15 14 -6 0 -15 4 -20 9 -5 5 -3 6 5 2 18 -11 15 9 -5 25 -15 12 -16 12 -8
-1 8 -13 7 -13 -8 -1 -18 15 -23 26 -7 16 17 -10 11 12 -7 26 -15 12 -16 12
-8 -1 8 -13 7 -13 -8 -1 -14 11 -20 11 -34 0 -11 -10 -14 -10 -9 -1 11 18 2
15 -17 -6z m76 -742 c10 -10 9 -11 -2 -5 -9 5 -12 3 -9 -6 3 -8 10 -13 16 -12
5 1 16 -5 24 -15 12 -15 11 -16 -4 -3 -26 20 -22 -2 4 -25 12 -10 18 -13 14
-6 -10 18 -1 15 15 -5 12 -14 12 -16 0 -9 -9 6 -12 5 -9 -5 3 -8 10 -13 16
-12 5 1 16 -5 24 -15 12 -15 11 -16 -4 -3 -26 20 -22 -2 4 -25 12 -10 18 -13
14 -6 -10 18 -1 15 15 -5 12 -14 12 -16 0 -9 -9 6 -12 5 -9 -5 3 -8 10 -13 16
-12 5 1 16 -5 24 -15 12 -15 11 -16 -4 -3 -26 20 -22 -2 4 -25 12 -10 18 -13
14 -6 -10 18 -1 15 15 -5 12 -14 12 -16 0 -9 -9 6 -12 5 -9 -5 3 -8 10 -13 16
-12 5 1 16 -5 24 -15 12 -15 11 -16 -4 -3 -10 7 -18 9 -18 3 0 -12 25 -34 32
-27 3 3 11 -3 19 -12 13 -16 12 -17 -3 -4 -10 7 -18 9 -18 3 0 -13 25 -33 32
-26 3 3 9 0 14 -7 4 -8 3 -10 -4 -5 -18 11 -14 -10 5 -25 11 -10 14 -10 9 -1
-11 18 -1 15 15 -5 10 -11 10 -14 2 -9 -7 4 -13 3 -13 -3 0 -10 19 -26 32 -26
3 0 10 -4 15 -9 5 -5 3 -6 -4 -2 -19 11 -16 -9 4 -25 15 -12 16 -12 8 1 -8 13
-7 13 8 1 18 -15 23 -26 7 -16 -17 10 -11 -12 7 -26 15 -12 16 -12 8 1 -8 13
-7 13 8 1 18 -15 23 -26 7 -16 -17 10 -11 -12 7 -26 11 -10 14 -10 9 -1 -11
18 -1 15 15 -5 10 -11 10 -14 2 -9 -19 11 -16 -9 4 -25 11 -10 14 -10 9 -1
-11 18 -1 15 15 -5 10 -11 10 -14 2 -9 -19 11 -16 -9 4 -25 15 -12 16 -12 8 1
-8 13 -7 13 8 1 18 -15 23 -26 7 -16 -17 10 -11 -12 7 -26 11 -10 14 -10 9 -1
-11 18 -1 15 15 -5 10 -11 10 -14 2 -9 -19 11 -16 -9 4 -25 11 -10 14 -10 9
-1 -11 18 -1 15 15 -5 10 -11 10 -14 2 -9 -19 11 -16 -9 4 -25 11 -10 14 -10
9 -1 -11 18 -1 15 15 -5 12 -14 12 -16 0 -9 -9 6 -12 4 -9 -5 3 -8 10 -14 16
-14 5 0 14 -4 19 -9 5 -5 3 -6 -4 -2 -22 12 -14 -10 9 -30 19 -15 20 -16 9 -1
-19 24 -8 21 15 -5 10 -12 13 -18 5 -13 -9 5 -12 3 -9 -6 3 -8 10 -14 16 -14
5 0 14 -4 19 -9 5 -5 3 -6 -4 -2 -22 12 -14 -10 9 -30 19 -15 20 -16 9 -1 -19
24 -8 21 15 -5 10 -12 13 -18 5 -13 -9 5 -12 3 -9 -6 3 -8 10 -14 16 -14 5 0
14 -4 19 -9 5 -5 3 -6 -4 -2 -22 12 -14 -10 9 -30 22 -19 23 -19 8 1 -12 17
-12 18 0 7 8 -7 15 -20 15 -30 0 -9 5 -17 12 -17 6 0 15 -4 20 -9 5 -5 2 -6
-6 -1 -9 5 -12 3 -9 -6 3 -8 9 -14 14 -14 18 0 33 -16 28 -29 -3 -8 0 -17 7
-22 8 -5 10 -3 4 7 -8 12 -6 12 8 0 19 -15 23 -26 6 -15 -7 4 -10 1 -7 -7 3
-8 9 -14 14 -14 18 0 33 -16 28 -29 -3 -8 0 -17 7 -22 8 -4 10 -3 5 4 -11 18
0 14 15 -5 12 -14 12 -16 0 -9 -9 6 -12 5 -9 -5 3 -8 10 -13 16 -12 5 1 16 -5
24 -15 12 -15 11 -16 -4 -3 -26 20 -22 -2 4 -25 12 -10 18 -13 14 -6 -10 18
-1 15 15 -5 12 -14 12 -16 0 -9 -9 6 -12 4 -9 -5 3 -8 10 -14 16 -14 6 0 17
-7 24 -15 11 -12 11 -12 -4 -1 -26 19 -22 -2 4 -25 12 -10 18 -13 14 -6 -10
18 -1 15 15 -5 12 -14 12 -16 0 -9 -9 6 -12 4 -9 -5 3 -8 10 -14 16 -14 6 0
17 -7 24 -15 11 -12 11 -12 -4 -1 -10 7 -18 9 -18 3 0 -12 25 -34 32 -27 3 3
11 -3 19 -12 13 -16 12 -17 -3 -4 -10 7 -18 9 -18 3 0 -12 25 -34 32 -27 3 3
11 -3 19 -12 13 -16 12 -17 -3 -4 -10 7 -18 9 -18 3 0 -12 25 -34 32 -27 3 3
11 -3 19 -12 13 -16 12 -17 -3 -4 -10 7 -18 9 -18 3 0 -13 25 -33 32 -26 3 3
9 0 14 -7 4 -8 3 -10 -4 -5 -7 4 -12 3 -12 -2 0 -12 25 -33 32 -27 3 3 11 -3
19 -12 13 -16 12 -17 -3 -4 -10 7 -18 9 -18 3 0 -13 25 -33 32 -26 3 3 9 0 14
-7 4 -8 3 -10 -4 -5 -21 13 -13 -10 10 -30 22 -19 23 -19 8 1 -12 17 -12 18 0
7 8 -7 15 -20 15 -30 0 -9 5 -17 12 -17 6 0 15 -4 20 -9 5 -5 3 -6 -4 -2 -22
12 -14 -10 9 -30 22 -19 23 -19 8 1 -14 18 -14 19 2 7 9 -8 15 -19 12 -25 -2
-7 10 -28 27 -47 17 -19 25 -26 18 -15 -13 18 -13 19 3 6 10 -7 15 -17 12 -22
-6 -10 26 -62 34 -54 9 9 31 -16 26 -30 -3 -7 0 -16 7 -21 8 -5 10 -3 4 7 -8
12 -6 12 8 0 19 -15 23 -26 6 -15 -7 4 -10 2 -8 -5 3 -7 9 -13 14 -13 17 0 34
-19 29 -33 -3 -7 0 -16 7 -21 8 -5 10 -3 4 7 -8 12 -6 12 8 0 19 -15 23 -26 6
-15 -7 4 -10 1 -7 -7 3 -8 10 -14 16 -14 6 0 17 -7 24 -15 11 -12 11 -12 -4
-1 -26 19 -22 -2 4 -25 13 -12 18 -13 13 -4 -8 13 -7 13 8 1 19 -15 23 -26 6
-15 -7 4 -10 1 -7 -7 3 -8 10 -13 16 -12 5 1 23 -14 38 -34 15 -20 22 -33 15
-28 -9 5 -12 3 -9 -6 3 -8 10 -13 16 -12 5 1 23 -14 38 -34 15 -20 22 -33 15
-28 -9 5 -12 3 -9 -6 3 -8 10 -13 16 -12 13 3 54 -52 46 -60 -6 -6 63 -107 72
-107 3 0 2 5 -1 10 -10 16 1 11 16 -7 10 -11 10 -14 2 -9 -19 11 -16 -9 4 -25
11 -10 14 -10 9 -1 -11 18 -1 15 15 -5 10 -11 10 -14 2 -9 -19 11 -16 -9 4
-25 11 -10 14 -10 9 -1 -11 18 -1 15 15 -5 10 -11 10 -14 2 -9 -19 11 -16 -9
4 -25 11 -10 14 -10 9 -1 -11 18 -1 15 15 -5 10 -11 10 -14 2 -9 -19 11 -16
-9 4 -25 11 -10 14 -10 9 -1 -11 18 -1 15 15 -5 12 -14 12 -16 0 -9 -9 6 -12
5 -9 -5 3 -8 10 -13 16 -12 5 1 16 -5 24 -15 12 -15 11 -16 -4 -3 -26 20 -22
-2 4 -25 12 -10 18 -13 14 -6 -10 18 -1 15 15 -5 12 -14 12 -16 0 -9 -9 6 -12
4 -9 -5 3 -8 10 -14 15 -14 6 0 15 -4 20 -9 5 -5 3 -6 -4 -2 -7 4 -13 3 -13
-2 0 -12 25 -33 32 -27 3 3 11 -2 19 -12 12 -14 12 -15 0 -9 -9 6 -12 4 -9 -5
3 -8 10 -14 16 -14 5 0 14 -4 19 -9 5 -5 3 -6 -4 -2 -22 12 -14 -10 9 -30 19
-15 20 -16 9 -1 -19 24 -8 21 15 -5 10 -12 13 -18 5 -13 -9 5 -12 3 -9 -6 3
-8 10 -14 16 -14 5 0 14 -4 19 -9 5 -5 3 -6 -4 -2 -22 12 -14 -10 9 -30 19
-15 20 -16 9 -1 -19 24 -8 21 15 -5 10 -12 13 -18 5 -13 -9 5 -12 3 -9 -6 3
-8 10 -14 16 -14 5 0 14 -4 19 -9 5 -5 3 -6 -4 -2 -22 12 -14 -10 9 -30 22
-19 23 -19 8 1 -12 17 -12 18 0 7 8 -7 15 -20 15 -30 0 -9 5 -17 12 -17 6 0
15 -4 20 -9 5 -5 3 -6 -4 -2 -22 12 -14 -10 9 -30 22 -19 23 -19 8 1 -14 18
-14 19 2 7 9 -8 15 -19 12 -25 -2 -7 8 -25 22 -42 14 -16 23 -24 19 -17 -9 17
0 15 16 -5 10 -11 10 -14 2 -9 -19 11 -16 -9 4 -25 11 -10 14 -10 9 -1 -11 18
-1 15 15 -5 10 -11 10 -14 2 -9 -19 11 -16 -9 4 -25 11 -10 14 -10 9 -1 -11
18 -1 15 15 -5 10 -11 10 -14 2 -9 -19 11 -16 -9 4 -25 11 -10 14 -10 9 -1
-11 18 -1 15 15 -5 12 -14 12 -16 0 -9 -9 6 -12 5 -9 -5 3 -8 10 -13 16 -12 5
1 16 -5 24 -15 12 -15 11 -16 -4 -3 -26 20 -22 -2 4 -25 12 -10 18 -13 14 -6
-10 18 -1 15 15 -5 12 -14 12 -16 0 -9 -9 6 -12 5 -9 -5 3 -8 10 -13 16 -12 5
1 16 -5 24 -15 12 -15 11 -16 -4 -3 -26 20 -22 -2 4 -25 12 -10 18 -13 14 -6
-10 18 -1 15 15 -5 12 -14 12 -16 0 -9 -9 6 -12 5 -9 -5 3 -8 10 -13 16 -12 5
1 16 -5 24 -15 12 -15 11 -16 -4 -3 -26 20 -22 -2 4 -25 12 -10 18 -13 14 -6
-10 18 -1 15 15 -5 12 -14 12 -16 0 -9 -9 6 -12 5 -9 -5 3 -8 10 -13 16 -12 5
1 16 -5 24 -15 12 -15 11 -16 -4 -3 -26 20 -22 -2 4 -25 12 -10 18 -13 14 -6
-10 18 -1 15 15 -5 12 -14 12 -16 0 -9 -9 6 -12 4 -9 -5 3 -8 10 -14 16 -14 5
0 14 -4 19 -9 5 -5 3 -6 -4 -2 -19 11 -16 -9 4 -25 15 -12 16 -12 8 1 -8 13
-7 13 8 1 18 -15 23 -26 7 -16 -17 10 -11 -12 7 -26 15 -12 16 -12 8 1 -8 13
-7 13 8 1 19 -15 23 -26 6 -15 -7 4 -10 1 -7 -7 3 -8 10 -13 16 -12 5 1 16 -5
24 -15 12 -15 11 -16 -4 -3 -26 20 -22 -2 4 -25 13 -12 18 -13 13 -4 -8 13 -7
13 8 1 19 -15 23 -26 6 -15 -7 4 -10 1 -7 -7 3 -8 10 -14 16 -14 5 0 14 -4 19
-9 5 -5 3 -6 -4 -2 -22 12 -14 -10 9 -30 19 -15 20 -16 9 -1 -19 24 -8 21 15
-5 10 -12 13 -18 5 -13 -9 5 -12 3 -9 -6 3 -8 10 -14 16 -14 5 0 14 -4 19 -9
5 -5 3 -6 -4 -2 -19 11 -16 -9 4 -25 15 -12 16 -12 8 1 -8 13 -7 13 8 1 18
-15 23 -26 7 -16 -17 10 -11 -12 7 -26 15 -12 16 -12 8 1 -8 13 -7 13 8 1 19
-15 23 -26 6 -15 -7 4 -10 1 -7 -7 3 -8 10 -13 16 -12 5 1 16 -5 24 -15 12
-15 11 -16 -4 -3 -26 20 -22 -2 4 -25 13 -12 18 -13 13 -4 -8 13 -7 13 8 1 19
-15 23 -26 6 -15 -7 4 -10 1 -7 -7 3 -8 10 -13 16 -12 5 1 16 -5 24 -15 12
-15 11 -16 -4 -3 -10 7 -18 9 -18 3 0 -12 25 -34 32 -27 3 3 11 -3 19 -12 13
-16 12 -17 -3 -4 -10 7 -18 9 -18 3 0 -13 25 -33 32 -26 3 3 9 0 14 -7 4 -8 3
-10 -4 -5 -18 11 -14 -10 5 -25 15 -12 16 -12 8 1 -8 13 -7 13 8 1 19 -15 23
-26 6 -15 -7 4 -10 1 -7 -7 3 -8 10 -13 16 -12 5 1 16 -5 24 -14 11 -14 11
-16 -1 -9 -9 6 -12 4 -9 -5 3 -8 10 -14 15 -14 6 0 15 -4 20 -9 5 -5 2 -6 -6
-1 -9 5 -12 3 -9 -6 3 -8 10 -13 16 -12 5 1 16 -5 24 -15 12 -15 11 -16 -4 -3
-17 13 -23 8 -18 -14 1 -5 -8 -1 -19 9 -11 10 -19 23 -18 28 1 6 -4 13 -12 16
-8 3 -11 0 -7 -7 12 -19 0 -12 -20 11 -19 22 -19 23 1 8 20 -15 20 -14 1 8
-19 22 -43 31 -31 12 6 -10 -206 143 -265 191 -58 47 141 -92 248 -174 6 -5
12 -7 12 -4 0 12 -365 272 -472 336 -56 33 -46 18 12 -19 28 -18 50 -34 50
-37 0 -3 -15 5 -32 16 -94 62 -314 189 -440 255 -609 318 -1247 504 -1911 557
-191 15 -689 6 -845 -15 -784 -106 -1503 -390 -2249 -888 -73 -49 -133 -86
-133 -83 0 6 239 166 353 234 48 30 87 56 87 58 0 15 -491 -304 -507 -330 -3
-6 9 0 27 13 18 13 31 20 28 14 -4 -5 -28 -25 -55 -44 -39 -27 -44 -29 -28
-10 22 28 22 27 -94 -60 -50 -38 -86 -59 -89 -52 -2 7 -9 9 -15 5 -7 -4 -6 0
1 10 8 9 19 15 24 14 6 -1 13 4 16 12 3 8 0 11 -7 7 -17 -11 -13 0 6 15 14 12
16 12 8 0 -6 -10 -4 -12 4 -7 7 5 10 14 7 21 -3 8 3 19 12 27 16 12 16 11 2
-7 -15 -20 -14 -20 8 -1 23 20 31 42 10 30 -8 -4 -10 -3 -5 2 5 5 14 9 20 9 5
0 12 6 15 14 3 8 0 11 -7 7 -19 -12 -12 0 11 20 22 19 23 19 8 -1 -15 -20 -14
-20 8 -1 23 20 31 42 10 30 -8 -4 -10 -3 -5 2 5 5 14 9 20 9 5 0 12 6 15 14 3
8 0 11 -7 7 -17 -11 -13 0 6 15 15 12 16 12 8 -1 -5 -9 0 -8 13 4 26 23 30 45
5 25 -16 -13 -17 -12 -5 3 8 10 19 16 24 15 6 -1 13 4 16 12 3 8 0 11 -7 7
-17 -11 -13 0 6 15 15 12 16 12 8 -1 -5 -9 0 -8 13 4 26 23 30 45 5 25 -16
-13 -17 -12 -5 3 8 10 19 16 24 15 6 -1 13 4 16 12 3 9 0 11 -9 6 -8 -5 -11
-4 -6 1 5 5 14 9 19 9 6 0 13 6 16 14 3 8 0 11 -7 7 -17 -11 -13 0 6 15 15 12
16 12 8 -1 -5 -9 0 -8 13 4 26 23 30 45 5 25 -16 -13 -17 -12 -5 3 8 10 19 16
24 15 6 -1 13 4 16 12 3 8 0 11 -7 7 -17 -11 -13 0 6 15 15 12 16 12 8 -1 -5
-9 0 -8 13 4 26 23 30 45 5 25 -16 -13 -17 -12 -5 3 8 10 19 16 24 15 6 -1 13
4 16 12 3 8 0 11 -7 7 -17 -11 -13 0 6 15 15 12 16 12 8 -1 -8 -13 -7 -13 8
-1 18 14 24 36 7 26 -16 -10 -11 1 7 16 15 12 16 12 8 -1 -8 -13 -7 -13 8 -1
20 16 23 36 5 25 -9 -5 -9 -2 1 9 16 20 26 23 15 5 -5 -9 -2 -9 9 1 18 14 24
36 7 26 -16 -10 -11 1 7 16 15 12 16 12 8 -1 -8 -13 -7 -13 8 -1 20 16 23 36
5 25 -8 -4 -10 -3 -5 2 5 5 14 9 19 9 6 0 13 6 16 14 3 8 0 11 -7 7 -19 -12
-12 0 11 20 22 19 23 19 8 -1 -15 -20 -14 -20 8 -1 23 20 31 42 10 30 -8 -4
-10 -3 -5 2 5 5 14 9 19 9 6 0 13 6 16 14 3 8 0 11 -7 7 -19 -12 -12 0 11 20
22 19 23 19 8 -1 -15 -20 -14 -20 8 -1 23 20 31 42 10 30 -8 -4 -10 -3 -5 2 5
5 14 9 19 9 6 0 13 6 16 14 3 9 0 11 -9 5 -12 -7 -12 -5 0 9 16 20 25 23 15 5
-4 -7 2 -4 14 6 26 23 30 45 5 25 -16 -13 -17 -12 -4 3 7 10 17 16 21 13 10
-6 42 43 36 54 -3 5 2 15 12 22 16 13 16 12 3 -6 -7 -11 1 -4 18 15 17 19 29
40 27 47 -3 7 0 15 6 19 7 5 8 2 3 -7 -5 -8 1 -5 13 5 26 23 30 45 5 25 -16
-13 -17 -12 -5 3 8 10 19 16 24 15 6 -1 13 4 16 12 3 10 0 11 -9 5 -12 -7 -12
-5 0 9 16 20 26 23 15 5 -5 -9 -2 -9 9 1 20 16 23 36 5 25 -9 -5 -9 -2 1 9 16
20 25 22 16 5 -4 -7 5 1 19 17 14 17 24 35 22 42 -3 6 3 17 12 25 16 12 16 11
2 -7 -15 -20 -14 -20 8 -1 23 20 31 42 10 30 -8 -4 -10 -3 -5 2 5 5 14 9 20 9
7 0 12 8 12 17 0 10 7 23 15 30 12 11 12 10 0 -7 -15 -20 -14 -20 8 -1 23 20
31 42 10 30 -8 -4 -10 -3 -5 2 5 5 14 9 20 9 5 0 12 6 15 14 3 8 0 11 -7 7
-19 -12 -12 0 11 20 22 19 23 19 8 -1 -15 -20 -14 -20 8 -1 23 20 31 42 10 30
-8 -4 -10 -3 -5 2 5 5 14 9 20 9 5 0 12 6 15 14 3 9 0 11 -9 5 -12 -7 -12 -5
0 9 16 20 25 23 15 5 -4 -7 2 -4 14 6 26 23 30 45 5 25 -16 -13 -17 -12 -5 3
8 10 19 16 24 15 6 -1 13 4 16 12 3 10 0 11 -9 5 -12 -7 -12 -5 0 9 16 20 26
23 15 5 -5 -9 -2 -9 9 1 20 16 23 36 5 25 -9 -5 -9 -2 1 9 16 20 25 22 16 5
-4 -7 5 1 19 17 14 17 24 35 22 41 -5 14 29 59 45 59 7 0 14 6 17 14 3 8 0 11
-7 7 -17 -11 -13 0 6 15 15 12 16 12 8 -1 -5 -9 0 -8 13 4 26 23 30 45 5 25
-16 -13 -17 -12 -4 3 7 10 17 16 21 13 10 -6 42 43 36 54 -3 5 2 15 12 22 16
13 16 12 3 -6 -7 -11 1 -4 18 15 17 19 29 40 27 47 -3 6 3 17 12 25 16 12 16
11 2 -7 -15 -20 -14 -20 8 -1 23 20 31 42 10 30 -8 -4 -10 -3 -5 2 5 5 14 9
20 9 7 0 12 8 12 17 0 10 7 23 15 30 12 11 12 10 0 -7 -15 -20 -14 -20 8 -1
23 20 31 42 10 30 -8 -4 -10 -3 -5 2 5 5 14 9 20 9 5 0 12 6 15 14 3 8 0 11
-7 7 -17 -11 -13 0 6 15 15 12 16 12 8 -1 -5 -9 0 -8 13 4 26 23 30 44 5 25
-16 -11 -16 -11 -5 1 7 8 18 15 24 15 6 0 13 6 16 14 3 8 0 11 -7 7 -17 -11
-13 0 6 15 15 12 16 12 8 -1 -8 -13 -7 -13 8 -1 18 14 24 36 7 26 -16 -10 -11
1 7 16 14 12 16 12 9 -1 -4 -8 4 -1 18 15 14 17 24 35 22 42 -3 6 3 17 12 25
16 12 16 11 2 -7 -15 -20 -14 -20 8 -1 23 20 31 42 10 30 -8 -4 -10 -3 -5 2 5
5 14 9 19 9 6 0 13 6 16 14 3 9 0 11 -9 6 -7 -5 0 8 15 28 15 20 33 35 38 34
6 -1 13 4 16 12 3 8 0 11 -7 7 -17 -11 -13 0 6 15 14 12 16 12 8 0 -6 -10 -4
-12 4 -7 7 5 10 14 7 21 -5 14 12 33 29 33 5 0 11 6 14 13 2 8 -1 9 -10 3 -12
-7 -12 -5 0 9 15 19 26 23 15 5 -5 -7 -3 -8 5 -4 7 5 10 14 7 21 -5 13 22 43
33 37 3 -2 7 2 10 9 2 8 -1 9 -10 3 -12 -7 -12 -5 0 9 16 20 26 23 15 5 -5 -9
-2 -9 9 1 20 16 23 36 5 25 -9 -5 -9 -2 1 9 16 20 26 23 15 5 -5 -9 -2 -9 9 1
20 16 23 36 5 25 -7 -4 -10 -4 -6 0 3 4 10 8 15 8 12 0 33 19 33 30 0 6 -8 4
-17 -3 -16 -13 -17 -12 -4 4 8 9 16 15 19 12 7 -6 32 15 32 27 0 5 -6 6 -12 2
-8 -4 -10 -3 -5 2 5 5 12 9 15 9 13 0 32 16 32 27 0 6 -7 5 -17 -3 -16 -13
-17 -12 -4 4 8 9 16 15 19 12 7 -7 32 15 32 27 0 6 -8 4 -17 -3 -16 -11 -16
-11 -5 1 7 8 18 15 24 15 6 0 13 6 16 14 3 9 0 11 -9 5 -12 -7 -12 -5 0 9 16
20 25 23 15 5 -4 -7 2 -4 14 6 26 23 30 44 5 25 -16 -11 -16 -11 -5 1 7 8 18
15 24 15 6 0 13 6 16 14 3 8 0 11 -7 7 -17 -11 -13 0 6 15 14 12 16 12 8 0 -6
-10 -4 -12 4 -7 7 5 10 14 7 22 -5 13 10 29 28 29 5 0 11 6 14 14 3 9 0 11 -9
6 -8 -5 -11 -4 -6 1 5 5 14 9 20 9 5 0 12 6 15 14 3 8 0 11 -7 7 -19 -12 -12
0 11 20 22 19 23 19 8 -1 -15 -20 -14 -20 8 -1 23 20 31 42 10 30 -8 -4 -10
-3 -5 2 5 5 14 9 20 9 5 0 12 6 15 14 3 9 0 11 -9 6 -7 -5 0 8 15 28 15 20 33
35 38 34 6 -1 13 4 16 12 3 8 0 11 -7 7 -17 -11 -13 0 6 15 15 12 16 12 8 -1
-8 -13 -7 -13 8 -1 18 14 24 36 7 26 -16 -10 -11 1 7 16 15 12 16 12 8 -1 -8
-13 -7 -13 8 -1 20 16 23 36 5 25 -7 -4 -10 -4 -6 0 3 4 10 8 15 8 12 0 33 19
33 30 0 5 -6 6 -12 2 -9 -5 -9 -2 1 9 16 20 26 23 15 5 -5 -9 -2 -9 9 1 20 16
23 36 5 25 -7 -4 -10 -4 -6 0 3 4 10 8 15 8 12 0 33 19 33 30 0 6 -8 4 -17 -3
-16 -13 -17 -12 -4 4 8 9 16 15 19 12 7 -7 32 15 32 27 0 6 -8 4 -17 -3 -16
-13 -17 -12 -5 3 8 10 19 16 24 15 6 -1 13 4 16 12 3 10 0 11 -9 5 -12 -7 -12
-5 0 9 16 20 25 23 15 5 -4 -7 2 -4 14 6 26 23 30 44 5 25 -16 -11 -16 -11 -5
1 7 8 18 15 24 15 6 0 13 6 16 14 3 8 0 11 -7 7 -17 -11 -13 0 6 15 15 12 16
12 8 -1 -5 -9 0 -8 13 4 26 23 30 44 5 25 -16 -11 -16 -11 -5 1 7 8 18 15 24
15 6 0 13 6 16 14 3 9 0 11 -9 6 -8 -5 -11 -4 -6 1 5 5 14 9 20 9 7 0 12 8 12
17 0 10 7 23 15 30 12 11 12 10 0 -7 -15 -20 -14 -20 8 -1 23 20 31 42 10 30
-8 -4 -10 -3 -5 2 5 5 14 9 19 9 6 0 13 6 16 14 3 8 0 11 -7 7 -19 -12 -12 0
11 20 22 19 23 19 8 -1 -15 -20 -14 -20 8 -1 23 20 31 42 10 30 -8 -4 -10 -3
-5 2 5 5 14 9 19 9 6 0 13 6 16 14 3 9 0 11 -9 5 -12 -7 -12 -5 0 9 16 20 26
23 15 5 -5 -9 -2 -9 9 1 18 14 24 36 7 26 -16 -10 -11 1 7 16 15 12 16 12 8
-1 -8 -13 -7 -13 8 -1 18 14 24 36 7 26 -16 -10 -11 1 7 16 15 12 16 12 8 -1
-8 -13 -7 -13 8 -1 18 14 24 36 7 26 -16 -10 -11 1 7 16 15 12 16 12 8 -1 -8
-13 -7 -13 8 -1 20 16 23 36 5 25 -8 -4 -10 -3 -5 2 5 5 12 9 15 9 13 0 32 16
32 27 0 6 -7 5 -17 -3 -16 -13 -17 -12 -4 4 8 9 16 15 19 12 7 -7 32 15 32 27
0 6 -8 4 -17 -3 -16 -11 -16 -11 -5 1 7 8 18 15 24 15 6 0 13 6 16 14 3 9 0
11 -9 5 -12 -7 -12 -5 0 9 16 20 25 23 15 5 -4 -7 2 -4 14 6 26 23 30 45 5 25
-16 -13 -17 -12 -5 3 8 10 19 16 24 15 6 -1 13 4 16 12 3 10 0 11 -9 5 -11 -6
-12 -5 -2 7 15 19 48 18 66 -1z m-1048 -4275 c-26 -9 -33 -14 -20 -15 11 -1
24 -2 28 -1 4 1 3 -8 -3 -19 -13 -25 -21 -26 -14 -2 5 16 5 16 -6 -1 -6 -9 -8
-22 -4 -29 4 -6 3 -8 -3 -5 -14 9 -46 -41 -39 -59 3 -8 1 -12 -4 -9 -10 6 -52
-72 -94 -174 -26 -65 -34 -99 -16 -71 5 8 10 10 10 5 0 -6 -9 -18 -20 -28 -11
-9 -20 -25 -19 -34 0 -14 2 -13 9 5 18 43 16 21 -4 -58 -13 -49 -23 -73 -27
-63 -4 12 -8 8 -12 -16 -4 -19 -6 -41 -6 -50 1 -9 4 -3 8 13 3 17 6 -55 6
-159 0 -104 -3 -176 -6 -159 -4 16 -7 22 -8 13 0 -9 2 -31 6 -50 5 -25 8 -29
13 -15 4 13 9 6 17 -28 5 -25 6 -43 2 -40 -5 3 -9 12 -9 21 0 9 -3 14 -6 10
-3 -3 2 -29 11 -57 9 -28 19 -49 21 -47 3 2 0 17 -6 33 -6 16 -7 25 -2 19 8
-9 38 -79 49 -115 2 -8 -5 1 -16 20 -24 42 -27 36 -6 -14 9 -20 20 -34 25 -31
5 3 7 0 5 -8 -7 -16 44 -109 55 -102 5 3 12 0 16 -6 5 -8 3 -9 -6 -4 -8 5 -11
3 -8 -6 3 -8 10 -14 15 -14 6 0 15 -4 20 -9 5 -5 2 -6 -6 -1 -9 5 -12 3 -9 -6
3 -8 10 -14 15 -14 6 0 15 -4 20 -9 5 -5 3 -6 -4 -2 -19 11 -16 -9 4 -25 11
-10 14 -10 9 -1 -11 18 -1 15 15 -5 10 -11 10 -14 2 -9 -19 11 -16 -9 4 -25
11 -10 14 -10 9 -1 -12 19 -1 14 20 -10 15 -19 16 -20 2 -9 -31 24 -19 -4 14
-35 18 -16 24 -19 14 -6 -32 38 -12 24 29 -20 22 -24 28 -32 13 -19 -16 14
-28 20 -28 14 0 -13 45 -54 53 -48 4 3 5 2 2 -2 -6 -8 64 -83 78 -83 4 0 5 6
0 13 -4 6 27 -19 70 -58 42 -38 77 -71 77 -73 0 -14 -388 68 -570 120 -366
104 -728 260 -1036 445 -125 76 -334 218 -334 229 0 3 26 -14 58 -37 193 -141
548 -346 691 -400 48 -19 16 -1 -134 74 -249 125 -459 258 -668 421 -51 39
-99 76 -107 81 -24 13 -2 -6 78 -70 39 -31 72 -60 72 -62 0 -3 -20 11 -45 31
-25 20 -65 52 -90 72 -25 20 -42 41 -39 46 10 16 201 165 267 208 68 44 53 32
-92 -77 -53 -39 -112 -86 -131 -103 -34 -31 -34 -31 10 2 25 19 74 57 110 85
81 62 248 173 358 238 45 26 82 50 82 52 0 6 -59 -26 -140 -77 -125 -77 -138
-84 -115 -65 46 38 211 134 370 215 275 140 598 260 925 344 134 35 201 46
125 21z m2106 -14 c356 -92 697 -220 995 -375 147 -77 398 -228 410 -248 4 -6
-13 2 -37 19 -55 37 -69 45 -69 40 0 -2 26 -21 58 -42 31 -21 113 -81 181
-133 68 -52 121 -89 117 -84 -3 6 -58 50 -121 98 -63 48 -115 89 -115 92 0 2
6 0 13 -5 6 -5 41 -31 77 -58 130 -97 172 -136 160 -150 -6 -8 -17 -12 -23
-10 -7 3 -32 -14 -57 -37 l-45 -41 50 38 50 37 -44 -41 c-25 -22 -48 -38 -52
-35 -9 5 -204 -134 -204 -146 0 -5 -4 -12 -9 -17 -5 -5 -6 -3 -2 5 10 16 -4
15 -23 -2 -9 -8 -77 -51 -151 -96 -159 -96 -445 -238 -617 -305 -68 -27 -121
-50 -119 -52 9 -9 306 118 476 203 102 52 176 87 165 78 -11 -8 -94 -52 -185
-98 -349 -175 -767 -315 -1150 -386 -63 -12 -135 -25 -159 -30 l-43 -8 38 31
c22 17 93 83 159 146 66 64 102 97 80 73 -21 -23 -36 -42 -32 -42 8 0 91 88
96 104 3 6 -3 5 -12 -3 -28 -22 -19 -6 10 20 20 18 24 19 13 4 -15 -20 -14
-20 8 -1 23 20 31 42 10 30 -8 -4 -10 -3 -5 2 5 5 14 9 20 9 5 0 12 6 15 14 3
9 0 11 -9 5 -12 -7 -12 -5 0 9 16 20 25 22 16 5 -4 -7 3 -2 15 11 11 13 19 30
16 38 -3 7 0 12 6 10 6 -1 13 4 16 12 3 9 0 11 -8 6 -9 -5 -11 -4 -6 4 4 6 11
9 16 6 5 -3 16 8 25 24 18 36 19 45 3 35 -7 -4 -8 -3 -4 5 4 6 11 9 16 6 5 -3
16 11 25 31 21 50 18 56 -5 14 -11 -19 -19 -30 -19 -25 0 14 38 82 39 70 0
-13 20 16 20 30 0 6 -5 3 -10 -5 -5 -8 -10 -10 -10 -5 0 6 9 18 20 28 11 9 20
25 20 34 0 16 -2 16 -10 3 -8 -11 -9 -7 -4 15 8 37 14 44 15 19 0 -18 1 -18 9
1 5 11 9 29 9 40 l0 20 -10 -20 c-7 -15 -8 -13 -3 10 4 17 10 98 14 180 l8
150 -2 -160 c-1 -93 1 -143 5 -120 10 51 9 271 -1 310 l-8 30 -2 -30 c-1 -18
-9 5 -20 60 -11 49 -17 91 -15 94 3 2 5 -4 5 -14 0 -10 3 -16 6 -12 4 3 3 18
0 34 -5 17 -10 23 -15 15 -5 -8 -11 0 -18 23 -12 39 -7 48 7 13 7 -18 9 -19 9
-5 1 9 -8 25 -19 34 -11 10 -20 22 -20 28 0 5 5 3 10 -5 5 -8 10 -10 10 -5 0
13 -20 43 -20 30 0 -13 -20 17 -20 30 0 6 5 3 10 -5 9 -13 10 -13 9 0 0 24
-125 265 -137 265 -6 0 -14 4 -19 9 -5 5 -3 6 5 2 6 -4 12 -2 12 3 0 6 8 11
18 12 9 0 -1 6 -23 14 -71 23 -22 16 96 -14z m-1317 1 c-7 -4 -8 -15 -3 -27
l8 -20 1 20 c1 11 10 -7 21 -40 21 -66 24 -88 9 -65 -9 13 -10 13 -10 0 0 -8
5 -22 10 -30 9 -13 10 -13 11 0 0 10 3 8 9 -5 12 -28 11 -56 -1 -30 -8 17 -9
17 -4 -5 2 -14 5 -29 5 -35 0 -5 5 -3 10 5 8 13 10 13 10 -2 0 -11 -25 -29
-75 -53 -69 -33 -195 -134 -195 -157 0 -5 5 -6 12 -2 7 4 8 3 4 -5 -4 -6 -11
-9 -16 -6 -5 3 -16 -8 -25 -24 -18 -36 -19 -44 -2 -35 6 4 2 -3 -10 -15 -13
-12 -23 -29 -22 -39 0 -13 3 -11 9 6 21 52 16 5 -10 -93 -6 -23 -7 -18 -4 20
5 55 -1 51 -11 -7 l-6 -38 -119 0 -120 0 -2 48 -1 47 -7 -50 -7 -50 -1 45 c-2
51 23 179 37 193 6 6 8 1 5 -14 -3 -13 4 -1 16 26 11 28 18 56 15 63 -3 7 -1
11 4 7 5 -3 24 19 43 47 41 66 44 73 27 64 -34 -18 119 120 169 151 61 39 201
112 217 112 6 1 5 -3 -1 -7z m-1984 -91 c-19 -11 -38 -17 -42 -14 -5 2 -8 0
-8 -6 0 -6 -7 -7 -17 -4 -9 4 -14 2 -10 -3 3 -6 -47 -40 -111 -76 -64 -37
-179 -107 -254 -157 -76 -50 -138 -88 -138 -85 0 2 62 45 137 94 137 91 183
124 108 80 -89 -53 -276 -182 -375 -259 -125 -97 -320 -264 -315 -270 2 -2 42
30 87 71 88 80 260 218 318 256 l35 23 -35 -28 c-19 -15 -79 -64 -135 -108
-55 -43 -136 -111 -180 -150 -44 -39 -88 -74 -98 -78 -17 -7 -17 -9 5 -36 13
-17 27 -30 32 -30 6 -1 -3 14 -20 31 -16 18 7 -1 51 -42 44 -42 103 -95 130
-119 47 -40 47 -41 5 -9 -24 18 -71 58 -104 88 -32 30 -57 50 -55 44 11 -30
233 -209 247 -200 6 3 16 -2 23 -12 13 -16 13 -16 -5 -2 -13 10 -17 10 -12 2
12 -19 254 -179 401 -264 474 -275 967 -468 1530 -598 312 -73 665 -110 1040
-110 440 0 774 43 1180 151 139 37 147 40 143 44 -2 2 -53 -9 -113 -26 -420
-113 -768 -159 -1215 -159 -331 0 -623 27 -916 85 -368 72 -804 212 -1159 370
-95 42 -359 176 -370 187 -5 5 62 -26 150 -70 415 -208 810 -349 1240 -446
382 -85 661 -116 1060 -116 526 0 956 70 1450 235 326 109 695 277 968 442 4
2 7 2 7 -1 0 -13 -307 -177 -485 -258 -167 -77 -243 -108 -445 -179 -91 -32
-160 -58 -154 -58 14 -1 247 78 349 119 266 105 541 243 810 408 182 111 501
337 595 422 19 18 5 9 -32 -20 -38 -28 -68 -49 -68 -47 0 10 122 102 136 102
7 0 29 15 48 33 l35 32 -53 50 c-51 48 -76 64 -59 38 4 -7 -21 11 -55 41 -34
30 -62 56 -62 59 0 2 25 -17 55 -43 30 -25 55 -43 54 -38 0 8 -104 94 -122
102 -6 2 -7 -1 -3 -8 12 -19 0 -12 -20 11 -15 19 -16 20 -1 9 9 -7 17 -11 17
-7 0 8 -201 157 -315 233 -103 68 -322 199 -351 209 -10 4 44 -31 121 -76 194
-115 505 -327 505 -345 0 -3 -42 26 -92 63 -185 136 -444 297 -640 397 -42 22
-75 41 -74 43 11 10 937 -288 1306 -420 188 -68 239 -89 175 -74 -33 8 -33 8
9 -18 18 -12 26 -13 20 -5 -6 12 -5 12 9 0 19 -15 23 -26 6 -15 -7 4 -10 1 -7
-7 3 -8 10 -14 16 -14 6 0 17 -7 24 -15 11 -12 11 -12 -4 -1 -26 19 -22 -2 4
-25 13 -12 18 -13 13 -4 -8 13 -7 13 8 1 19 -15 23 -26 6 -15 -7 4 -10 1 -7
-7 3 -8 10 -14 15 -14 6 0 15 -4 20 -9 5 -5 3 -6 -4 -2 -19 11 -16 -9 4 -25
15 -12 16 -12 8 1 -8 13 -7 13 8 1 18 -15 23 -26 7 -16 -17 10 -11 -12 7 -26
15 -12 16 -12 8 1 -8 13 -7 13 8 1 18 -15 23 -26 7 -16 -17 10 -11 -12 7 -26
14 -12 16 -12 8 0 -5 9 -4 12 3 7 6 -4 9 -13 6 -20 -3 -7 3 -19 13 -27 16 -13
17 -12 4 4 -19 25 -8 21 15 -5 10 -12 13 -18 5 -13 -9 5 -12 3 -9 -6 3 -8 10
-14 15 -14 6 0 15 -4 20 -9 5 -5 3 -6 -4 -2 -22 12 -14 -10 9 -30 22 -19 23
-19 8 1 -12 17 -12 18 0 7 8 -7 15 -20 15 -30 0 -9 5 -17 12 -17 6 0 15 -4 20
-9 5 -5 2 -6 -6 -1 -9 5 -12 3 -9 -6 3 -8 10 -14 16 -14 6 0 17 -7 24 -15 11
-12 11 -12 -4 -1 -26 19 -22 -2 4 -25 13 -12 18 -13 13 -4 -8 13 -7 13 8 1 19
-15 23 -26 6 -15 -7 4 -10 1 -7 -7 3 -8 10 -14 16 -14 6 0 17 -7 24 -15 11
-12 11 -12 -4 -1 -10 7 -18 9 -18 3 0 -12 25 -34 32 -27 3 3 11 -3 19 -12 13
-16 12 -17 -3 -4 -10 7 -18 9 -18 3 0 -13 25 -33 32 -26 3 3 9 0 14 -7 4 -8 3
-10 -4 -5 -18 11 -14 -10 5 -25 15 -12 16 -12 8 1 -8 13 -7 13 8 1 18 -15 23
-26 7 -16 -17 10 -11 -12 7 -26 15 -12 16 -12 8 1 -8 13 -7 13 8 1 19 -15 23
-26 6 -15 -7 4 -10 1 -7 -7 3 -8 10 -14 16 -14 6 0 17 -7 24 -15 11 -12 11
-12 -4 -1 -26 19 -22 -2 4 -25 13 -12 18 -13 13 -4 -8 13 -7 13 8 1 19 -15 23
-26 6 -15 -7 4 -10 1 -7 -7 3 -8 10 -14 15 -14 6 0 15 -4 20 -9 5 -5 3 -6 -4
-2 -22 12 -14 -10 9 -30 22 -19 23 -19 8 1 -14 18 -14 19 2 6 10 -7 15 -17 12
-22 -6 -11 26 -60 36 -54 4 3 14 -3 21 -13 13 -15 12 -16 -3 -3 -26 20 -22 -2
4 -25 13 -12 18 -13 13 -4 -8 13 -7 13 8 1 19 -15 23 -26 6 -15 -7 4 -10 1 -7
-7 3 -8 10 -14 15 -14 6 0 15 -4 20 -9 5 -5 3 -6 -4 -2 -7 4 -13 3 -13 -2 0
-12 25 -33 32 -27 3 3 11 -3 19 -12 13 -16 12 -17 -3 -4 -11 8 -18 9 -18 3 0
-11 19 -27 32 -27 3 0 10 -4 15 -9 5 -5 3 -6 -4 -2 -22 12 -14 -10 9 -30 22
-19 23 -19 8 1 -14 18 -14 19 2 6 10 -7 15 -17 12 -22 -6 -10 26 -62 34 -54 9
9 31 -16 26 -30 -3 -7 0 -16 7 -21 8 -5 10 -3 4 7 -8 12 -6 12 8 0 19 -15 23
-26 6 -15 -7 4 -10 1 -7 -7 3 -8 10 -14 17 -14 16 0 50 -45 45 -59 -2 -6 8
-24 22 -41 14 -16 22 -23 18 -15 -7 13 -5 13 9 1 18 -15 23 -26 7 -16 -17 10
-11 -12 7 -26 15 -12 16 -12 8 1 -8 13 -7 13 8 1 19 -15 23 -26 6 -15 -7 4
-10 1 -7 -7 3 -8 10 -14 15 -14 6 0 15 -4 20 -9 5 -5 3 -6 -4 -2 -22 12 -14
-10 9 -30 22 -19 23 -19 8 1 -12 17 -12 18 0 7 8 -7 15 -20 15 -30 0 -9 5 -17
12 -17 6 0 15 -4 20 -9 5 -5 3 -6 -4 -2 -22 12 -14 -10 9 -30 22 -19 23 -19 8
1 -14 18 -14 19 2 6 10 -7 15 -17 12 -22 -6 -11 26 -60 36 -54 4 3 14 -3 21
-13 13 -15 12 -16 -3 -3 -26 20 -22 -2 4 -25 13 -12 18 -13 13 -4 -8 13 -7 13
8 1 19 -15 23 -26 6 -15 -7 4 -10 1 -7 -7 3 -8 10 -14 17 -14 16 0 50 -45 45
-59 -2 -6 8 -24 22 -41 14 -16 22 -23 18 -15 -7 13 -5 13 9 1 18 -15 23 -26 7
-16 -17 10 -11 -12 7 -26 15 -12 16 -12 8 1 -8 13 -7 13 8 1 19 -15 23 -26 6
-15 -7 4 -10 1 -7 -7 3 -8 10 -14 15 -14 6 0 15 -4 20 -9 5 -5 3 -6 -4 -2 -22
12 -14 -10 9 -30 22 -19 23 -19 8 1 -12 17 -12 18 0 7 8 -7 15 -20 15 -30 0
-9 5 -17 12 -17 6 0 15 -4 20 -9 5 -5 3 -6 -4 -2 -22 12 -14 -10 9 -30 22 -19
23 -19 8 1 -14 18 -14 19 2 6 10 -7 15 -17 12 -22 -6 -11 26 -60 36 -54 4 3
14 -3 21 -13 13 -15 12 -16 -3 -3 -26 20 -22 -2 4 -25 12 -10 18 -13 14 -6
-10 18 -1 15 15 -5 12 -14 12 -16 0 -9 -9 6 -12 5 -9 -5 3 -8 10 -13 16 -12
13 3 54 -52 46 -60 -8 -8 27 -58 36 -52 4 3 14 -3 21 -13 13 -15 12 -16 -3 -3
-26 20 -22 -2 4 -25 12 -10 18 -13 14 -6 -10 18 -1 15 15 -5 12 -14 12 -16 0
-9 -9 6 -12 4 -9 -5 3 -8 10 -14 15 -14 6 0 15 -4 20 -9 5 -5 3 -6 -4 -2 -22
12 -14 -10 9 -30 22 -19 23 -19 8 1 -12 17 -12 18 0 7 8 -7 15 -20 15 -30 0
-9 5 -17 12 -17 6 0 15 -4 20 -9 5 -5 3 -6 -4 -2 -19 11 -16 -9 4 -25 11 -10
14 -10 9 -1 -11 18 -1 15 15 -5 12 -14 12 -16 0 -9 -9 6 -12 5 -9 -5 3 -8 10
-13 16 -12 5 1 16 -5 24 -14 7 -9 8 -14 1 -10 -15 9 -11011 9 -11026 0 -7 -4
-6 1 1 10 8 9 19 15 24 14 6 -1 13 4 16 12 3 8 0 11 -7 7 -17 -11 -13 0 6 15
14 12 16 12 9 -1 -4 -8 4 -1 18 15 14 17 24 35 22 42 -3 6 3 17 12 25 16 12
16 11 2 -7 -15 -20 -14 -20 8 -1 23 20 31 42 9 30 -7 -4 -9 -3 -4 2 5 5 14 9
20 9 7 0 12 8 12 17 0 10 7 23 15 30 12 11 12 10 0 -7 -15 -20 -14 -20 8 -1
23 20 31 42 9 30 -7 -4 -9 -3 -4 2 5 5 14 9 20 9 5 0 12 6 15 14 3 9 0 11 -9
5 -12 -6 -12 -5 0 9 8 10 16 15 19 12 7 -6 32 15 32 27 0 5 -6 6 -12 2 -8 -4
-10 -3 -5 2 5 5 14 9 20 9 5 0 12 6 15 14 3 8 0 11 -7 7 -17 -11 -13 0 6 15
15 12 16 12 8 -1 -8 -13 -7 -13 8 -1 18 14 24 36 7 26 -16 -10 -11 1 7 16 15
12 16 12 8 -1 -8 -13 -7 -13 8 -1 18 14 24 36 7 26 -16 -10 -11 1 7 16 11 10
14 10 9 2 -4 -7 -5 -13 -3 -13 7 0 118 152 114 156 -2 2 -25 -25 -51 -61 -26
-36 -50 -65 -53 -65 -3 0 6 16 21 35 14 19 38 51 52 70 14 19 31 33 36 32 6
-1 13 4 16 12 3 8 0 11 -7 7 -17 -11 -13 0 6 15 15 12 16 12 8 -1 -8 -13 -7
-13 8 -1 18 14 24 36 7 26 -16 -10 -11 1 7 16 14 12 16 12 9 -1 -4 -8 4 -1 18
15 14 17 24 35 22 42 -3 6 3 17 12 25 15 12 16 11 3 -7 -7 -11 1 -4 18 15 17
19 29 40 27 47 -3 6 3 17 12 25 16 12 16 11 2 -7 -15 -20 -14 -20 8 -1 23 20
31 42 10 30 -8 -4 -10 -3 -5 2 5 5 14 9 20 9 7 0 12 8 12 17 0 10 7 23 15 30
12 11 12 10 0 -7 -15 -20 -14 -20 8 -1 23 20 31 42 10 30 -8 -4 -10 -3 -5 2 5
5 14 9 19 9 6 0 13 6 16 14 3 8 0 11 -7 7 -17 -11 -13 0 6 15 15 12 16 12 8
-1 -8 -13 -7 -13 8 -1 18 14 24 36 7 26 -16 -10 -11 1 7 16 15 12 16 12 8 -1
-8 -13 -7 -13 8 -1 18 14 24 36 7 26 -16 -10 -11 1 7 16 15 12 16 12 8 -1 -8
-13 -7 -13 8 -1 18 14 24 36 7 26 -16 -10 -11 1 7 16 14 12 16 12 9 -1 -4 -8
4 -1 18 15 14 17 24 35 22 41 -5 14 29 59 45 59 7 0 14 6 17 14 3 9 0 11 -9 6
-7 -5 0 8 15 28 15 20 33 35 38 34 6 -1 13 4 16 12 3 10 0 11 -9 5 -12 -7 -12
-5 0 9 16 20 25 23 15 5 -4 -7 2 -4 14 6 26 23 30 45 5 25 -16 -13 -17 -12 -4
3 7 10 17 16 21 13 10 -6 42 43 36 54 -3 5 2 15 12 22 16 13 16 12 2 -6 -15
-20 -14 -20 8 -1 23 20 31 42 10 30 -8 -4 -10 -3 -5 2 5 5 12 9 15 9 13 0 32
16 32 26 0 6 -6 7 -12 3 -9 -5 -9 -2 1 9 16 20 26 23 15 5 -5 -9 -2 -9 9 1 20
16 23 36 5 25 -7 -4 -10 -4 -6 0 3 4 8 6 11 4 6 -5 37 23 37 34 0 6 -8 4 -17
-3 -16 -13 -17 -12 -4 4 8 9 16 15 19 12 7 -6 32 15 32 27 0 5 -6 6 -12 2 -8
-4 -10 -3 -5 2 5 5 14 9 19 9 6 0 13 6 16 14 3 9 0 11 -9 5 -12 -7 -12 -5 0 9
16 20 25 23 15 5 -4 -7 2 -4 14 6 26 23 30 44 5 25 -16 -11 -16 -11 -5 1 7 8
18 15 24 15 6 0 13 6 16 14 3 9 0 11 -9 5 -12 -7 -12 -5 0 9 15 19 26 23 15 5
-5 -7 -3 -8 5 -4 7 5 10 14 7 21 -3 8 2 19 10 25 8 7 14 9 14 4 1 -11 39 38
40 50 0 4 -10 -2 -21 -15 -14 -16 -13 -12 4 11 13 19 30 35 37 35 8 0 15 6 18
14 3 9 0 11 -9 6 -8 -5 -11 -4 -6 1 5 5 14 9 20 9 5 0 12 6 15 14 3 9 0 11 -9
5 -12 -7 -12 -5 0 9 16 20 25 23 15 5 -4 -7 2 -4 14 6 26 23 30 45 5 25 -16
-13 -17 -12 -5 3 8 10 19 16 24 15 6 -1 13 4 16 12 3 8 0 11 -7 7 -17 -11 -13
0 6 15 15 12 16 12 8 -1 -8 -13 -7 -13 8 -1 18 14 24 36 7 26 -16 -10 -11 1 7
16 15 12 16 12 8 -1 -8 -13 -7 -13 8 -1 18 14 24 36 7 26 -16 -10 -11 1 7 16
15 12 16 12 8 -1 -8 -13 -7 -13 8 -1 18 14 24 36 7 26 -16 -10 -11 1 7 16 15
12 16 12 8 -1 -8 -13 -7 -13 8 -1 20 16 23 36 5 25 -8 -4 -10 -3 -5 2 5 5 12
9 15 9 13 0 32 16 32 26 0 6 -6 7 -12 3 -8 -4 -10 -3 -5 2 5 5 12 9 15 9 13 0
32 16 32 26 0 6 -6 7 -12 3 -8 -4 -10 -3 -5 2 5 5 12 9 15 9 13 0 32 16 32 27
0 6 -7 5 -17 -3 -16 -13 -17 -12 -4 4 8 9 16 15 19 12 7 -7 32 15 32 27 0 6
-8 4 -17 -3 -16 -11 -16 -11 -5 1 7 8 18 15 24 15 6 0 13 6 16 14 3 8 0 11 -7
7 -17 -11 -13 0 6 15 15 12 16 12 8 -1 -5 -9 0 -8 13 4 26 23 30 45 5 25 -16
-13 -17 -12 -4 3 7 10 17 16 21 13 10 -6 42 43 36 54 -3 5 2 15 12 22 16 13
16 12 2 -6 -15 -20 -14 -20 8 -1 23 20 31 42 10 30 -9 -6 -9 -3 0 9 8 9 257
96 590 206 318 104 638 210 712 234 149 50 172 55 120 28z m4962 -3018 c-1513
-2 -3991 -2 -5505 0 -1513 1 -275 2 2753 2 3028 0 4266 -1 2752 -2z"/>
</g>
</svg>
