<?xml version="1.0" standalone="no"?>
<!DOCTYPE svg PUBLIC "-//W3C//DTD SVG 20010904//EN"
 "http://www.w3.org/TR/2001/REC-SVG-20010904/DTD/svg10.dtd">
<svg fill-opacity="0.3" version="1.0" xmlns="http://www.w3.org/2000/svg"
 width="2280.000000pt" height="1280.000000pt" viewBox="300 0 1280.000000 1280.000000"
 preserveAspectRatio="xMidYMid meet">
<metadata>
Created by potrace 1.16, written by Peter Selinger 2001-2019
</metadata>
<g transform="translate(0.000000,1280.000000) scale(0.100000,-0.100000)"
fill="#000000" stroke="none">
<path d="M6187 11335 c-350 -43 -681 -160 -934 -331 -116 -78 -175 -127 -303
-248 -83 -80 -86 -82 -25 -18 84 88 204 191 300 257 79 55 108 79 55 47 -133
-81 -447 -360 -436 -388 2 -6 -7 -22 -22 -35 l-27 -24 25 30 25 30 -33 -29
c-31 -29 -44 -54 -19 -40 6 4 3 -2 -7 -14 -23 -26 -34 -29 -15 -4 11 14 10 13
-9 -2 -22 -19 -31 -43 -12 -31 16 10 11 -1 -7 -16 -14 -12 -16 -12 -9 1 5 8
-10 -4 -32 -27 -22 -24 -48 -43 -58 -44 -11 0 -14 -3 -7 -5 6 -3 27 2 45 11
27 13 30 13 14 1 -10 -9 -55 -27 -100 -42 -170 -56 -510 -199 -721 -304 -384
-190 -702 -390 -1010 -637 -44 -35 -60 -45 -35 -22 99 92 435 331 618 438 39
24 72 45 72 48 0 18 -421 -261 -571 -379 -95 -74 -237 -196 -185 -158 17 12
16 10 -3 -13 -24 -27 -38 -36 -26 -17 40 65 -298 -258 -454 -434 -96 -108
-123 -145 -83 -115 9 7 6 1 -7 -14 -27 -30 -40 -36 -21 -9 7 9 -6 -3 -28 -28
-23 -25 -40 -50 -37 -57 2 -6 -4 -17 -13 -25 -16 -12 -16 -11 -2 7 15 20 14
20 -8 1 -23 -20 -31 -42 -9 -30 8 5 8 2 -2 -9 -16 -20 -25 -23 -15 -4 4 6 -2
3 -14 -7 -26 -23 -30 -45 -4 -25 15 13 16 12 4 -3 -8 -10 -19 -16 -24 -15 -6
1 -13 -4 -16 -12 -3 -10 0 -11 9 -5 12 7 12 5 0 -9 -16 -20 -26 -23 -15 -4 5
8 2 8 -9 -2 -20 -16 -23 -36 -4 -25 8 5 8 2 -2 -9 -16 -20 -26 -23 -15 -4 5 8
2 8 -9 -2 -20 -16 -23 -36 -5 -25 8 4 10 3 5 -2 -5 -5 -14 -9 -19 -9 -6 0 -13
-6 -16 -14 -3 -9 0 -11 9 -6 8 5 11 4 6 -1 -5 -5 -14 -9 -19 -9 -6 0 -13 -6
-16 -14 -3 -9 0 -11 9 -6 8 5 11 4 6 -1 -5 -5 -14 -9 -19 -9 -6 0 -13 -6 -16
-14 -3 -9 0 -11 9 -6 8 5 11 4 6 -1 -5 -5 -14 -9 -19 -9 -6 0 -13 -6 -16 -14
-3 -9 0 -11 9 -6 8 5 11 4 6 -1 -5 -5 -14 -9 -19 -9 -6 0 -13 -6 -16 -14 -3
-9 0 -11 8 -6 9 5 11 4 6 -4 -4 -6 -11 -9 -16 -6 -5 3 -16 -8 -25 -24 -18 -36
-19 -45 -3 -35 7 4 8 3 4 -5 -4 -6 -11 -9 -16 -6 -5 3 -16 -8 -25 -24 -18 -36
-19 -44 -2 -35 7 4 9 3 4 -2 -5 -5 -14 -9 -20 -9 -7 0 -12 -10 -11 -22 0 -12
-3 -20 -7 -17 -11 6 -61 -88 -54 -103 2 -8 0 -11 -5 -8 -8 5 -180 -321 -180
-340 0 -4 4 -3 10 0 6 3 7 -1 4 -9 -3 -9 -10 -14 -15 -11 -11 8 -61 -104 -55
-122 3 -8 2 -12 -2 -9 -5 3 -16 -11 -25 -30 -20 -40 -21 -48 -6 -39 5 4 3 -10
-6 -31 -15 -36 -34 -65 -23 -34 20 52 21 55 11 45 -14 -14 -136 -325 -130
-331 3 -3 10 11 17 31 7 20 14 35 16 32 2 -2 -3 -25 -12 -51 -10 -29 -19 -43
-24 -36 -5 8 -9 7 -14 -5 -10 -26 -7 -42 5 -25 8 11 9 9 4 -10 -4 -14 -12 -29
-17 -35 -6 -6 -7 -3 -3 10 6 19 6 19 -5 1 -9 -13 -9 -20 -2 -25 7 -4 8 -12 2
-21 -9 -13 -10 -13 -10 0 -1 8 -6 4 -11 -9 -6 -16 -6 -27 0 -30 6 -4 6 -12 1
-21 -9 -13 -10 -13 -10 0 -1 8 -6 4 -11 -9 -7 -18 -6 -27 3 -33 12 -7 5 -12
-13 -10 -9 2 -22 -49 -14 -56 3 -3 5 2 5 11 0 9 4 18 9 21 5 4 4 -10 -2 -29
-6 -21 -13 -31 -18 -24 -4 7 -14 -12 -23 -44 -21 -73 -19 -85 4 -22 24 66 25
46 1 -30 -11 -33 -20 -51 -21 -40 l-1 20 -9 -20 c-5 -11 -9 -29 -9 -40 l0 -20
9 20 c15 35 10 3 -10 -70 -18 -63 -20 -56 -6 21 3 16 -1 9 -9 -15 -18 -55 -30
-126 -16 -96 15 31 12 9 -19 -135 -16 -74 -29 -124 -30 -110 l-2 25 -8 -25
c-4 -14 -8 -38 -8 -55 l0 -30 9 30 c7 27 8 25 4 -10 -2 -22 -11 -93 -19 -157
-39 -295 -42 -600 -10 -907 8 -79 13 -146 9 -149 -3 -3 -5 7 -5 23 0 16 -3 26
-6 22 -3 -3 -3 -30 2 -59 7 -49 8 -50 15 -23 5 23 7 25 8 8 0 -12 12 -77 26
-145 27 -131 28 -144 15 -113 l-9 20 0 -20 c0 -11 4 -29 9 -40 l9 -20 1 20 c2
17 3 16 10 -5 11 -34 11 -60 0 -35 -11 25 -13 1 -3 -34 6 -22 7 -23 13 -6 5
15 9 9 17 -23 6 -23 7 -39 2 -36 -5 3 -9 12 -9 21 0 9 -3 14 -6 11 -3 -3 2
-31 11 -63 9 -31 19 -54 22 -51 3 3 1 19 -5 35 -6 17 -9 31 -6 31 6 0 22 -42
30 -78 4 -21 3 -24 -5 -12 -10 13 -11 13 -11 0 0 -8 5 -22 10 -30 9 -13 10
-13 11 0 1 18 28 -39 28 -60 0 -8 -6 -1 -15 15 -12 26 -14 27 -9 5 2 -14 5
-28 5 -32 0 -3 8 -8 17 -10 14 -3 -577 -148 -613 -151 -6 0 -8 -11 -5 -26 l5
-26 6 25 c6 23 7 22 14 -14 4 -21 5 -41 2 -44 -3 -3 -6 3 -6 13 0 10 -3 16 -6
12 -3 -3 2 -40 12 -82 11 -46 20 -70 24 -60 4 10 13 -14 24 -59 10 -42 19 -76
20 -76 2 0 283 65 325 75 21 5 20 3 -9 -22 -19 -15 -39 -28 -44 -28 -6 0 -11
-8 -11 -17 0 -10 -7 -23 -15 -30 -12 -11 -12 -10 0 7 14 19 14 19 -3 6 -27
-21 -61 -91 -38 -77 5 4 7 -3 4 -14 -3 -11 -9 -23 -14 -26 -5 -3 -6 3 -3 13 5
16 4 16 -6 -1 -9 -13 -9 -20 -2 -25 7 -4 8 -12 2 -21 -9 -13 -10 -13 -10 0 0
13 -1 13 -10 0 -5 -8 -10 -22 -10 -30 0 -13 1 -13 10 0 9 13 10 13 9 0 0 -8
-4 -24 -9 -35 l-9 -20 -1 20 -1 20 -9 -20 c-5 -11 -9 -29 -9 -40 l0 -20 9 20
9 20 -1 -20 c0 -11 -4 -31 -8 -45 l-8 -25 -2 25 c-2 24 -3 23 -10 -5 -4 -16
-8 -41 -8 -55 0 -22 1 -22 8 5 4 17 5 -4 1 -45 -11 -135 -6 -330 12 -414 10
-44 15 -81 12 -84 -3 -3 -5 3 -5 13 0 10 -3 16 -6 12 -4 -3 -3 -18 0 -34 5
-17 10 -23 15 -15 5 8 11 0 18 -23 12 -39 7 -48 -7 -12 -7 17 -9 18 -9 4 -1
-9 8 -25 19 -34 11 -10 20 -22 20 -28 0 -5 -5 -3 -10 5 -5 8 -10 10 -10 4 0
-16 41 -117 53 -129 10 -10 9 -7 -11 45 -11 31 8 2 23 -34 9 -21 11 -35 6 -31
-16 9 -14 -1 14 -56 14 -27 30 -47 35 -44 5 3 7 -1 4 -9 -6 -16 24 -68 35 -61
4 2 7 -6 7 -18 -1 -12 4 -22 11 -22 6 0 15 -4 20 -9 5 -5 2 -6 -6 -1 -9 5 -12
3 -9 -6 3 -8 10 -14 15 -14 6 0 15 -4 20 -9 5 -5 2 -6 -6 -1 -9 5 -12 3 -9 -6
3 -8 10 -14 15 -14 6 0 15 -4 20 -9 5 -5 2 -6 -6 -1 -9 5 -12 3 -9 -6 3 -8 10
-14 15 -14 6 0 15 -4 20 -9 5 -5 2 -6 -6 -1 -9 5 -12 3 -9 -6 3 -8 10 -14 15
-14 6 0 15 -4 20 -9 5 -5 2 -6 -6 -1 -9 5 -12 3 -9 -6 3 -8 10 -14 16 -14 6 0
17 -7 24 -15 11 -12 11 -12 -4 -1 -26 19 -22 -2 4 -25 13 -12 18 -13 13 -4 -5
9 0 8 13 -4 26 -22 30 -35 5 -15 -9 8 -15 9 -12 3 5 -16 88 -104 96 -104 4 0
-11 19 -32 42 -22 24 12 -7 75 -68 161 -155 316 -254 489 -313 360 -123 649
-80 881 133 51 47 52 47 15 7 -22 -24 -71 -65 -109 -92 -76 -54 -83 -68 -8
-17 54 37 172 147 172 160 0 5 -5 6 -10 3 -16 -10 -11 1 7 16 15 12 16 12 8
-1 -5 -9 0 -8 13 4 26 23 30 44 5 25 -16 -11 -16 -11 -5 1 7 8 18 15 25 15 7
0 38 52 69 115 47 93 55 117 45 130 -10 13 -10 13 5 2 10 -8 16 -18 15 -22 -2
-9 203 -164 209 -158 2 3 -37 33 -86 68 -49 34 -95 69 -102 78 -7 8 36 -20 95
-63 59 -42 105 -81 102 -85 -7 -11 272 -186 281 -177 2 2 -55 38 -126 81 -71
42 -132 81 -135 86 -3 5 54 -27 127 -72 318 -192 588 -304 968 -398 450 -112
748 -150 1168 -150 249 0 392 10 612 41 318 45 529 101 1105 289 800 262 1291
410 1360 410 15 0 47 -18 79 -44 55 -44 169 -116 186 -116 5 0 12 -5 16 -12 5
-8 2 -9 -10 -5 -11 4 -15 3 -11 -4 4 -6 13 -8 21 -5 8 3 60 -10 117 -29 137
-46 216 -58 377 -58 289 1 548 93 747 266 l68 59 -65 -62 c-35 -34 -90 -78
-122 -97 -32 -20 -56 -38 -54 -40 17 -17 261 190 252 213 -4 11 19 39 33 39 3
0 6 5 6 12 0 6 4 15 9 20 5 5 6 2 1 -6 -5 -9 -4 -12 3 -7 12 7 75 115 88 150
5 13 4 17 -4 12 -7 -4 -5 11 5 40 9 28 18 41 23 34 5 -8 9 -7 14 5 10 26 7 42
-5 25 -8 -11 -9 -8 -4 14 3 15 8 41 12 56 4 21 20 38 64 65 33 20 96 77 146
131 56 61 105 105 136 120 26 13 47 27 47 30 0 3 -29 -10 -65 -29 -35 -19 -62
-31 -60 -27 3 5 49 32 103 61 130 69 324 186 450 271 56 38 102 66 102 63 0
-3 -62 -46 -137 -95 -138 -91 -169 -113 -123 -90 93 48 403 272 540 389 91 78
300 283 300 294 0 4 -4 5 -10 2 -20 -12 -9 2 22 31 32 28 32 28 9 2 -14 -16
-20 -28 -15 -27 14 0 96 108 90 118 -3 5 2 15 12 22 16 13 16 12 3 -6 -7 -11
1 -4 18 15 17 19 29 40 27 47 -3 7 0 15 6 19 7 5 8 2 3 -7 -8 -12 -6 -12 8 0
20 16 23 36 5 25 -8 -4 -10 -3 -5 2 5 5 14 9 19 9 6 0 13 6 16 14 3 9 0 11 -8
6 -9 -5 -11 -4 -6 4 4 6 11 9 16 6 12 -7 33 32 25 45 -4 6 -1 9 6 8 6 -2 14 3
17 11 3 9 0 11 -8 6 -9 -5 -11 -4 -6 4 4 6 11 9 16 6 5 -3 30 35 55 84 47 95
51 106 35 96 -6 -3 -7 1 -4 9 3 9 10 13 15 11 5 -3 15 11 24 31 17 41 20 67 5
44 -5 -8 -10 -10 -10 -5 0 6 9 18 20 28 11 9 20 25 19 34 0 14 -2 13 -9 -4
-14 -36 -19 -27 -7 12 6 22 13 31 18 24 7 -12 20 26 34 96 4 25 4 27 -5 10 -8
-16 -9 -13 -5 15 36 222 36 249 5 419 -12 63 -12 87 0 51 l8 -25 0 25 c0 14
-3 34 -8 45 l-9 20 -1 -20 c-1 -11 -12 18 -25 65 -36 126 -39 138 -26 120 10
-13 11 -13 11 0 0 8 -5 22 -10 30 -9 13 -10 13 -11 0 0 -10 -3 -8 -9 5 -12 27
-12 43 0 25 9 -13 10 -13 10 0 0 8 -5 22 -10 30 -9 13 -10 13 -10 0 0 -13 -1
-13 -10 0 -5 9 -5 17 1 21 13 8 0 39 -16 39 -7 0 -15 8 -18 18 -2 9 -8 26 -11
37 -4 11 2 4 13 -15 27 -47 26 -36 -3 36 -14 32 -29 58 -34 57 -6 -1 -13 4
-16 13 -3 8 -2 12 4 9 6 -3 10 -4 10 0 0 16 -112 225 -119 221 -4 -3 -7 5 -7
17 1 12 -4 22 -11 22 -6 0 -15 4 -20 9 -5 5 -3 6 5 2 15 -9 15 -1 1 26 -8 16
-8 23 2 30 10 7 5 8 -16 4 l-30 -5 28 12 c15 6 27 15 27 20 0 5 -16 76 -35
158 -35 149 -45 214 -20 129 l13 -45 -1 45 c-2 35 -6 46 -21 50 -11 3 58 23
153 44 171 39 172 39 166 64 -15 58 -13 81 2 27 9 -33 18 -55 19 -50 2 6 -5
42 -15 80 -11 39 -20 61 -21 50 -1 -11 -10 12 -21 50 -19 73 -24 116 -9 80 l9
-20 0 20 c0 11 -4 29 -9 40 l-9 20 -1 -20 c-1 -11 -15 32 -31 95 -28 115 -36
164 -19 125 11 -25 13 -1 3 34 -6 22 -7 23 -13 7 -4 -13 -10 0 -19 40 -25 118
-31 134 -49 134 -9 0 -194 -41 -410 -91 -262 -61 -397 -88 -404 -81 -6 6 0 8
19 6 24 -4 25 -3 7 5 -12 5 -24 17 -28 26 -3 9 -10 14 -16 10 -5 -3 -16 8 -25
25 -19 38 -11 40 9 3 21 -38 20 -14 0 27 -11 21 -19 28 -24 20 -5 -8 -9 -7
-13 5 -4 10 -3 14 4 9 7 -4 9 1 7 12 -2 11 -9 18 -15 17 -5 -1 -15 10 -22 25
-11 25 -10 26 4 8 8 -11 15 -14 15 -8 0 7 -9 20 -20 30 -51 43 -101 286 -101
482 0 119 16 288 20 206 1 -41 7 -29 14 29 4 33 3 41 -2 25 -5 -15 -7 8 -4 60
6 92 -18 279 -63 494 -14 65 -23 121 -20 124 3 3 6 -3 6 -13 0 -10 2 -16 5
-13 3 3 2 20 -2 38 -4 24 -8 29 -12 17 -4 -10 -19 29 -37 93 -17 60 -27 107
-22 104 4 -3 8 -12 8 -21 0 -9 2 -14 5 -11 8 7 -5 58 -14 56 -18 -2 -25 3 -13
10 9 7 10 15 2 33 -10 22 -10 23 -6 1 2 -12 1 -20 -4 -17 -12 7 -19 45 -9 45
16 0 10 19 -11 37 -11 10 -20 22 -20 28 0 5 5 3 10 -5 20 -32 9 12 -26 94 -20
47 -40 84 -44 81 -4 -3 -11 2 -14 11 -3 8 -2 12 4 9 13 -8 13 -4 -5 39 -9 20
-19 35 -24 32 -4 -3 -7 5 -7 17 1 12 -4 21 -10 20 -6 -1 -10 8 -10 20 1 12 -4
21 -10 20 -6 -1 -10 8 -10 20 1 12 -4 21 -11 20 -7 -2 -10 3 -7 10 6 17 -45
109 -56 102 -5 -3 -12 0 -16 6 -4 8 -3 9 4 5 18 -11 14 3 -14 51 -14 24 -29
41 -34 38 -5 -3 -12 0 -16 6 -5 8 -3 9 6 4 8 -5 11 -3 8 6 -3 8 -10 14 -15 14
-6 0 -15 4 -20 9 -5 5 -2 6 6 1 9 -5 12 -3 9 6 -3 8 -10 14 -15 14 -6 0 -15 4
-20 9 -5 5 -2 6 6 1 9 -5 12 -3 9 6 -3 8 -10 14 -15 14 -6 0 -15 4 -20 9 -5 5
-2 6 6 1 9 -5 12 -3 9 6 -3 8 -10 13 -16 12 -5 -1 -16 5 -24 15 -12 15 -11 16
5 3 25 -20 21 2 -5 25 -12 10 -18 13 -14 7 10 -19 1 -16 -15 4 -12 14 -12 16
0 9 9 -6 12 -5 9 5 -3 8 -10 13 -16 12 -5 -1 -16 5 -24 15 -12 15 -11 16 5 3
25 -20 21 2 -5 25 -12 10 -18 13 -14 7 10 -19 1 -16 -15 4 -10 11 -10 14 -1 9
28 -17 7 12 -84 115 -56 63 -101 106 -108 102 -6 -3 -8 -2 -3 2 8 9 -50 75
-66 75 -4 0 -5 -4 -2 -10 13 -21 -2 -8 -45 37 l-45 48 43 -40 c23 -21 42 -35
42 -30 -1 12 -157 144 -262 222 -126 94 -438 301 -408 271 3 -3 86 -60 185
-126 99 -67 194 -133 210 -147 17 -15 3 -8 -30 15 -467 326 -720 453 -1049
527 -93 21 -145 25 -313 29 -170 3 -209 7 -246 23 -153 66 -614 199 -862 250
-369 76 -786 101 -1078 66z m522 -160 c286 -14 769 -110 1071 -213 l54 -19
-47 -18 c-26 -10 -46 -20 -44 -22 3 -2 30 6 61 18 32 11 59 19 62 17 2 -3 -42
-22 -99 -42 -56 -21 -144 -58 -196 -82 l-94 -44 -126 0 c-274 0 -532 -76 -760
-224 -39 -25 -71 -44 -71 -41 0 9 100 72 195 122 55 29 97 53 92 53 -4 0 -47
-20 -95 -44 -101 -51 -223 -134 -230 -156 -5 -13 -3 -13 14 0 19 14 19 14 0
-8 -11 -12 -21 -20 -24 -17 -7 6 -32 -15 -32 -27 0 -5 6 -6 13 -2 7 4 9 3 4
-2 -5 -5 -14 -9 -19 -9 -6 0 -13 -6 -16 -14 -3 -9 0 -11 8 -6 9 5 11 4 6 -4
-4 -6 -11 -9 -16 -6 -5 3 -16 -8 -25 -24 -17 -35 -19 -45 -5 -36 6 4 7 -1 3
-11 -4 -11 -8 -13 -11 -6 -5 16 -22 5 -22 -14 0 -8 4 -12 10 -9 6 3 7 -1 3
-10 -4 -13 -8 -14 -14 -4 -6 10 -11 5 -19 -16 -6 -17 -18 -49 -27 -73 -9 -23
-14 -45 -11 -47 3 -3 10 13 17 36 7 22 14 39 16 37 2 -2 -4 -31 -15 -63 -10
-33 -19 -51 -20 -40 l-1 20 -9 -20 c-5 -11 -8 -31 -8 -45 l0 -25 9 25 c6 18 7
12 2 -19 -16 -129 1 -290 43 -391 9 -22 11 -31 3 -23 -6 6 -22 47 -35 90 -13
43 -23 71 -23 62 -2 -49 81 -245 99 -234 5 3 12 0 16 -6 4 -8 3 -9 -4 -5 -18
11 -14 -10 5 -25 11 -10 14 -10 9 -1 -11 18 -1 15 15 -5 10 -11 10 -14 2 -9
-33 19 -7 -17 47 -67 57 -53 185 -127 219 -127 9 0 -11 11 -43 25 -70 29 -150
81 -191 127 -19 20 -10 15 24 -15 114 -97 225 -137 381 -137 158 0 267 39 369
133 l56 51 -49 -51 c-27 -28 -74 -65 -105 -82 -31 -17 -51 -31 -46 -31 23 0
114 62 163 111 49 51 67 79 40 63 -8 -4 -10 -3 -5 2 5 5 14 9 19 9 6 0 13 6
16 14 3 9 0 11 -9 6 -8 -5 -11 -4 -6 1 5 5 14 9 20 9 7 0 12 10 11 22 0 12 3
20 7 17 8 -5 45 84 37 91 -3 3 -10 -13 -17 -36 -7 -22 -14 -39 -16 -37 -2 2 3
26 11 53 16 52 21 175 10 236 -5 27 -4 30 4 14 9 -17 9 -15 5 10 -8 40 -39
100 -53 100 -6 0 -14 4 -19 9 -5 5 -3 6 5 2 24 -14 12 10 -20 41 -39 36 -79
63 -92 63 -6 0 10 -13 35 -28 24 -16 51 -37 59 -47 8 -10 -6 -2 -33 18 -78 59
-148 71 -207 36 -32 -20 -34 -20 -20 -2 8 10 5 8 -8 -5 -13 -14 -21 -30 -19
-36 2 -6 7 -22 11 -36 6 -20 5 -22 -4 -10 -9 13 -10 12 -7 -5 2 -11 9 -19 16
-17 7 1 10 -2 6 -8 -9 -14 24 -97 41 -104 8 -3 14 -16 13 -28 -1 -23 -1 -22
-10 2 -7 19 -8 16 -4 -17 3 -23 0 -54 -5 -69 -10 -25 -9 -26 7 -13 16 12 16
12 0 -8 -43 -50 -181 -36 -248 24 -21 19 -39 39 -39 44 0 5 12 -3 28 -19 15
-15 20 -19 11 -7 -9 11 -20 31 -24 44 -5 16 -10 20 -15 11 -13 -20 -20 29 -20
140 0 77 3 101 11 90 9 -13 10 -13 6 0 -2 8 -10 15 -18 15 -8 0 -14 6 -14 13
0 7 -7 17 -15 22 -19 12 -90 13 -108 1 -8 -5 7 -6 36 -3 27 2 57 0 67 -5 12
-7 1 -9 -37 -6 -60 4 -101 -12 -105 -42 -3 -17 -1 -16 7 3 15 34 20 26 8 -15
-5 -21 -8 -84 -6 -141 2 -56 0 -95 -4 -85 -6 16 -7 16 -7 -2 -1 -29 47 -128
58 -121 5 4 13 1 17 -5 4 -8 3 -9 -4 -5 -7 4 -12 3 -12 -2 0 -14 92 -98 128
-116 52 -27 50 -18 -3 13 -27 16 -63 44 -80 62 -27 31 -26 30 14 -5 24 -21 69
-50 100 -65 50 -23 69 -26 184 -28 78 -1 125 2 122 8 -4 5 -4 9 -1 9 2 0 12 3
22 7 25 10 10 -12 -29 -39 -25 -17 -29 -18 -17 -4 14 18 13 18 -10 11 -14 -4
-61 -8 -105 -8 -76 0 -77 0 -30 -8 28 -5 64 -6 81 -3 46 8 53 -13 10 -31 -59
-25 -165 -36 -237 -24 -85 13 -154 48 -209 105 -25 26 -39 43 -31 39 9 -5 12
-3 9 6 -3 8 -10 14 -16 14 -5 0 -14 4 -19 9 -5 5 -3 6 5 2 16 -9 17 -12 -19
74 -16 41 -28 64 -25 50 15 -65 14 -70 -4 -18 -10 32 -21 93 -24 135 l-5 78
10 -70 c14 -103 15 -101 15 25 0 66 -3 100 -7 80 -6 -33 -6 -34 -7 -5 0 17 4
41 8 55 7 21 8 22 10 5 1 -11 10 6 21 39 23 68 19 88 -5 24 -9 -24 -14 -31
-11 -16 3 16 17 52 30 80 23 49 25 49 9 1 -3 -10 8 7 25 37 33 60 37 75 19 64
-7 -4 -8 -3 -4 5 4 6 11 9 16 6 4 -3 15 6 24 20 21 32 20 41 -1 24 -10 -7 -7
-1 7 14 34 36 174 119 267 157 139 58 252 82 413 87 221 8 375 -28 538 -125
56 -34 204 -157 165 -137 -21 10 -15 -11 9 -31 19 -15 20 -16 9 -1 -21 27 -7
20 20 -10 13 -15 16 -21 7 -14 -25 19 -22 7 8 -39 15 -22 30 -37 35 -35 4 3
11 0 15 -6 4 -8 3 -9 -4 -5 -15 9 -15 6 4 -39 12 -29 18 -35 25 -24 5 8 9 9 9
2 0 -6 3 -20 6 -30 5 -15 4 -15 -5 -3 -13 18 -13 3 -1 -25 6 -13 9 -15 9 -5 1
13 2 13 11 0 6 -9 5 -17 -1 -21 -6 -3 -7 -18 -3 -35 6 -25 8 -26 14 -9 12 35
34 -114 33 -230 -1 -114 -25 -249 -47 -262 -9 -6 -55 -92 -104 -197 -3 -5 2
-5 9 -1 8 5 11 4 6 -1 -5 -5 -14 -9 -19 -9 -6 0 -13 -6 -16 -14 -3 -8 0 -11 7
-7 17 11 13 0 -6 -15 -15 -12 -16 -12 -8 1 5 9 0 8 -13 -4 -24 -21 -31 -46 -7
-26 26 22 16 4 -12 -21 -21 -18 -24 -19 -13 -4 8 11 0 7 -18 -9 -36 -34 -44
-59 -9 -31 12 10 -7 -11 -43 -45 -122 -117 -251 -205 -441 -300 -290 -146
-736 -279 -1037 -310 -280 -29 -704 54 -997 195 -87 42 -245 139 -245 150 0 3
26 -12 58 -33 67 -45 185 -112 198 -112 5 0 -30 22 -79 49 -48 27 -110 66
-137 85 -53 38 -66 44 -54 24 12 -19 -86 64 -131 113 -22 23 -34 39 -27 35 6
-4 12 -3 12 2 0 12 -25 33 -32 27 -3 -3 -13 5 -24 17 -15 18 -16 20 -1 9 9 -7
17 -9 17 -3 0 13 -25 33 -32 26 -3 -3 -9 0 -14 7 -4 8 -3 10 4 5 18 -11 14 10
-5 25 -14 12 -16 12 -8 0 5 -10 4 -12 -4 -7 -6 4 -9 11 -6 16 8 13 -24 72 -35
65 -5 -3 -16 8 -25 24 -22 43 -18 53 5 11 23 -42 27 -26 4 19 -8 17 -19 29
-24 26 -4 -3 -15 13 -24 35 -18 45 -21 63 -6 40 11 -17 13 -1 4 25 -5 12 -9
13 -14 5 -4 -7 -15 17 -25 54 -10 37 -16 69 -13 71 3 3 10 -20 17 -51 7 -30
15 -54 17 -52 2 3 -4 40 -13 83 -13 59 -19 73 -23 54 -11 -42 -30 149 -28 277
1 115 1 113 8 -54 4 -95 9 -174 11 -177 2 -2 4 96 4 218 0 122 -3 202 -6 177
-5 -39 -6 -41 -7 -10 0 19 3 55 7 80 8 44 9 44 11 10 l2 -35 9 40 c4 22 8 51
7 65 0 23 -1 22 -8 -5 -15 -59 -10 7 6 77 11 48 19 66 25 57 6 -10 9 -8 9 9 0
16 -4 21 -12 16 -10 -5 -10 -3 0 7 7 8 18 14 25 14 7 0 12 8 12 17 0 9 4 20 9
25 5 5 6 2 1 -7 -8 -13 -7 -13 8 -1 18 14 24 36 7 26 -16 -10 -11 1 7 16 15
12 16 12 8 -1 -8 -13 -7 -13 8 -1 18 14 24 36 7 26 -16 -10 -11 1 7 16 15 12
16 12 8 -1 -5 -9 0 -8 13 4 24 21 31 46 7 26 -24 -20 -18 -5 7 16 13 12 18 13
13 4 -5 -9 0 -8 13 4 24 21 31 46 7 26 -30 -25 -14 -3 22 31 34 31 35 31 13 4
l-25 -30 32 29 c18 16 30 34 26 39 -3 6 -2 7 4 4 5 -3 41 26 79 66 38 39 52
56 32 37 -52 -46 -48 -34 3 15 23 22 39 34 35 28 -10 -18 9 -16 24 2 20 24
211 151 288 190 40 21 70 40 68 43 -9 8 -200 -105 -286 -168 -44 -33 -80 -58
-80 -55 0 3 36 32 79 64 207 153 456 262 726 316 170 34 396 55 535 48 30 -1
106 -5 169 -8z m1898 -365 c153 -28 307 -80 470 -159 131 -64 323 -176 323
-188 0 -3 -12 3 -27 12 -16 10 -38 25 -50 33 -13 8 -23 12 -23 10 0 -7 138
-98 147 -98 5 0 -3 10 -17 21 l-25 21 25 -14 c14 -9 25 -20 25 -27 0 -6 30
-31 68 -56 37 -25 67 -43 67 -41 0 3 -27 24 -60 46 -33 22 -60 43 -60 46 0 7
179 -116 187 -129 4 -6 -8 -1 -25 12 -18 12 -32 20 -32 18 0 -2 51 -43 113
-90 62 -47 164 -135 227 -195 63 -61 116 -109 117 -108 6 6 -205 204 -282 265
-44 35 -87 71 -95 79 -32 32 30 -15 128 -96 88 -73 295 -275 265 -258 -25 14
-13 -11 19 -40 32 -28 32 -28 9 -1 -36 41 -20 33 20 -10 18 -20 26 -31 17 -24
-10 7 -18 9 -18 3 0 -12 25 -34 32 -27 3 3 11 -2 19 -12 9 -11 10 -14 2 -9 -7
4 -13 3 -13 -2 0 -12 25 -33 32 -27 3 3 11 -2 19 -12 9 -11 10 -14 2 -9 -19
11 -16 -9 4 -25 11 -10 14 -10 9 -1 -11 18 -1 15 15 -5 10 -11 10 -14 2 -9
-19 11 -16 -9 4 -25 11 -10 14 -10 9 -1 -11 18 -1 15 15 -5 12 -14 12 -16 0
-9 -9 6 -12 4 -9 -5 3 -8 10 -14 16 -14 5 0 14 -4 19 -9 5 -5 2 -6 -6 -1 -9 5
-12 3 -9 -6 3 -8 10 -14 16 -14 5 0 14 -4 19 -9 5 -5 2 -6 -6 -1 -9 5 -12 3
-9 -6 3 -8 10 -14 16 -14 5 0 14 -4 19 -9 5 -5 2 -6 -6 -1 -9 5 -12 3 -9 -6 3
-8 11 -13 17 -11 7 1 10 -2 6 -8 -8 -13 43 -103 54 -96 4 3 7 -5 7 -17 -1 -12
4 -22 11 -22 6 0 15 -4 20 -9 5 -5 3 -6 -4 -2 -17 9 -16 1 2 -35 9 -16 19 -27
24 -25 4 3 7 -5 7 -17 -1 -12 4 -21 10 -20 6 1 10 -8 10 -20 -1 -12 4 -21 11
-20 7 2 10 -3 7 -11 -3 -8 4 -31 16 -53 11 -21 18 -28 15 -15 -9 33 1 27 14
-8 7 -23 7 -29 -1 -24 -8 5 -9 1 -4 -12 4 -10 17 -43 28 -71 13 -33 27 -53 37
-53 12 0 13 -2 3 -8 -15 -10 -7 -38 14 -46 8 -3 14 -11 14 -18 0 -9 -3 -8 -10
2 -9 13 -10 13 -10 0 0 -8 5 -22 10 -30 9 -13 10 -13 11 0 0 10 3 8 9 -5 12
-27 12 -43 0 -25 -11 17 -13 1 -4 -25 5 -11 9 -13 14 -5 4 6 19 -31 33 -82 27
-93 34 -132 17 -93 l-9 20 0 -20 c0 -11 4 -29 9 -40 l9 -20 1 20 c1 15 4 12
11 -10 23 -77 75 -365 65 -365 -1 0 -26 26 -56 57 -38 40 -43 47 -15 23 l40
-35 -40 43 c-35 38 -66 57 -50 31 4 -5 -17 8 -47 30 -69 53 -195 116 -283 142
-49 15 -110 23 -207 26 -123 5 -141 4 -165 -13 -16 -10 -32 -19 -38 -19 -12 0
-19 -49 -11 -81 4 -13 19 -35 34 -49 26 -24 31 -25 147 -23 l120 2 -120 3
c-106 3 -122 6 -142 25 -13 12 -23 26 -23 31 0 5 9 -2 21 -17 20 -25 23 -26
137 -26 72 0 140 -6 181 -16 78 -19 194 -73 236 -109 28 -24 27 -24 -15 3 -61
40 -111 65 -117 58 -3 -3 12 -12 32 -20 21 -9 60 -32 86 -51 52 -37 65 -43 53
-22 -5 6 8 -1 27 -18 20 -16 34 -32 32 -34 -2 -3 -15 6 -31 20 -15 13 -5 0 22
-28 27 -29 52 -50 56 -48 4 2 20 -10 36 -27 16 -17 23 -28 15 -23 -9 5 -12 3
-9 -6 3 -8 10 -13 16 -12 5 1 16 -5 24 -15 12 -15 11 -16 -4 -3 -26 20 -22 -2
4 -25 12 -10 18 -13 13 -5 -5 10 -4 12 4 7 6 -4 9 -12 6 -17 -4 -5 1 -19 9
-31 9 -12 16 -18 16 -12 0 5 -6 16 -12 23 -10 11 -10 12 -1 7 20 -11 37 -47
21 -44 -9 2 -14 -10 -15 -37 l-1 -40 6 35 c4 19 7 -73 7 -205 0 -132 -3 -224
-6 -205 l-6 35 -1 -35 c0 -19 4 -46 8 -60 l8 -25 2 25 c1 14 10 -11 21 -54 22
-92 19 -114 -5 -29 -9 32 -13 42 -11 24 11 -71 26 -115 36 -100 5 8 9 9 9 2 0
-6 3 -20 6 -30 5 -15 4 -15 -5 -3 -23 31 -10 -12 33 -112 24 -57 50 -103 57
-103 7 0 14 -7 16 -15 4 -13 3 -13 -7 0 -9 13 -11 12 -8 -5 2 -11 8 -20 15
-20 6 0 15 -4 20 -9 4 -5 3 -6 -3 -3 -7 4 -15 0 -18 -9 -5 -13 -2 -15 14 -11
11 3 20 2 20 -2 0 -4 -35 -14 -77 -23 -43 -10 -193 -44 -333 -76 -187 -44
-283 -61 -360 -65 -115 -7 -216 -31 -318 -78 -64 -29 -246 -74 -1092 -269
-140 -32 -430 -100 -645 -150 -214 -50 -556 -129 -760 -177 -203 -47 -462
-107 -575 -133 -893 -207 -815 -192 -897 -180 -107 15 -276 12 -379 -5 -167
-29 -353 -104 -484 -196 -64 -45 -17 -32 -650 -179 -140 -32 -412 -96 -605
-140 -363 -85 -763 -177 -1285 -299 -168 -39 -519 -120 -780 -181 -502 -117
-563 -130 -495 -105 29 11 33 14 12 11 -23 -3 -29 1 -37 28 l-10 31 5 -35 c3
-23 2 -30 -4 -20 -5 8 -11 35 -15 60 -4 32 -3 38 3 20 11 -31 14 -5 4 41 -6
32 -7 33 -13 9 -4 -17 -12 8 -23 83 -33 210 -41 315 -41 567 0 332 27 568 105
915 35 155 48 197 59 190 9 -6 24 44 15 53 -3 3 -5 -2 -5 -11 0 -9 -4 -18 -9
-22 -5 -3 -1 26 10 63 28 99 67 210 68 192 1 -13 2 -13 11 0 5 8 10 22 10 30
0 13 -1 13 -10 0 -12 -18 -12 -2 0 25 6 13 9 15 9 5 1 -13 2 -13 11 0 5 8 10
22 10 30 0 13 -1 13 -10 0 -5 -8 -10 -10 -10 -5 0 6 9 18 20 28 21 18 26 37
10 37 -5 0 -7 7 -3 16 4 11 8 12 13 4 5 -7 14 7 24 36 9 26 14 49 12 51 -2 3
-9 -12 -16 -32 -16 -47 -23 -40 -8 8 6 20 17 37 24 37 17 0 27 32 12 42 -10 6
-9 8 3 8 10 0 24 20 37 53 32 83 35 94 12 57 -12 -19 -18 -26 -14 -15 3 11 9
28 11 38 3 9 12 17 19 17 8 0 14 2 14 4 0 2 3 13 6 23 6 16 5 16 -10 -2 -16
-19 -16 -19 -5 7 7 15 16 25 20 22 11 -6 41 66 34 83 -2 8 -1 12 4 8 5 -3 21
20 35 51 29 63 30 68 16 59 -6 -3 -7 1 -4 9 3 9 10 14 14 13 8 -2 140 252 140
268 0 3 -6 3 -12 -1 -8 -4 -10 -3 -5 2 5 5 14 9 20 9 7 0 12 10 11 22 0 12 3
20 6 18 7 -4 140 226 140 240 0 4 -6 3 -12 -1 -8 -4 -10 -3 -5 2 5 5 14 9 20
9 7 0 12 10 11 22 0 12 4 21 9 20 5 -1 12 4 15 12 3 9 0 11 -9 6 -8 -5 -11 -4
-6 1 5 5 14 9 20 9 5 0 12 6 15 14 3 9 0 11 -9 6 -8 -5 -11 -4 -6 1 5 5 14 9
20 9 5 0 12 6 15 14 3 9 0 11 -9 6 -8 -5 -11 -4 -6 1 5 5 14 9 20 9 5 0 12 6
15 14 3 9 0 11 -9 6 -8 -5 -11 -4 -6 1 5 5 14 9 20 9 5 0 12 6 15 14 3 8 0 11
-7 7 -17 -11 -13 0 6 15 15 12 16 12 8 -1 -8 -13 -7 -13 8 -1 18 14 24 36 7
26 -16 -10 -11 1 7 16 15 12 16 12 8 -1 -8 -13 -7 -13 8 -1 20 16 23 36 5 25
-8 -4 -10 -3 -5 2 5 5 14 9 20 9 5 0 12 6 15 14 3 8 0 11 -7 7 -19 -12 -12 0
11 20 22 19 23 19 9 -1 -7 -11 1 -4 18 15 17 19 29 40 27 47 -3 6 3 17 12 25
16 12 16 11 2 -7 -15 -20 -14 -20 8 -1 22 19 31 43 12 31 -18 -11 -11 1 12 21
22 19 23 19 8 -1 -15 -20 -15 -20 8 -1 12 11 21 25 18 32 -2 6 7 22 22 35 l27
24 -25 -30 -25 -30 33 29 c30 28 45 55 22 41 -20 -12 -9 2 27 36 l38 34 -30
-35 c-29 -34 -28 -33 13 5 39 36 61 73 27 45 -37 -30 -9 1 52 60 l68 65 -55
-60 -55 -60 62 59 c34 33 59 64 56 70 -3 6 -2 8 2 3 11 -10 66 43 58 56 -3 6
-2 7 4 4 5 -4 23 8 39 24 16 17 83 78 149 136 122 108 170 153 130 122 -38
-29 -160 -134 -231 -199 -47 -43 -42 -36 16 20 88 86 251 225 236 202 -14 -23
3 -12 126 81 68 52 173 127 233 167 100 66 155 107 115 85 -45 -25 -241 -160
-343 -237 -65 -49 -116 -84 -112 -79 11 19 234 181 377 275 240 157 479 287
742 406 193 87 486 203 494 196 3 -4 0 -6 -7 -6 -7 0 -10 -4 -7 -9 4 -5 -2
-58 -11 -118 -26 -163 -23 -455 5 -588 35 -162 34 -153 23 -130 -12 26 -13 -2
-1 -30 6 -13 9 -15 9 -5 1 13 2 13 11 0 5 -9 5 -17 -1 -21 -5 -3 -7 -13 -3
-22 3 -9 10 -14 15 -11 5 3 9 3 9 1 0 -3 7 -21 15 -41 8 -20 13 -36 10 -36 -3
0 -11 15 -19 33 -8 17 -15 26 -15 19 -2 -21 69 -153 79 -147 5 3 12 0 16 -6 4
-8 3 -9 -4 -5 -16 10 -15 1 3 -35 9 -16 20 -27 24 -24 5 2 15 -3 22 -13 13
-15 12 -16 -3 -3 -24 18 -23 6 3 -30 11 -16 24 -27 29 -24 4 3 14 -3 21 -12
10 -12 10 -14 2 -9 -7 4 -13 4 -13 -1 1 -10 68 -83 77 -83 4 0 -6 14 -22 30
-16 17 -27 30 -24 30 3 0 21 -16 40 -37 18 -20 28 -33 22 -29 -20 11 -15 -5 9
-31 23 -24 44 -32 32 -10 -5 6 19 -12 51 -41 299 -267 814 -442 1304 -442 200
0 407 38 706 128 262 80 528 195 715 311 47 29 78 46 70 38 -8 -8 -58 -40
-110 -71 -125 -73 -141 -85 -55 -41 85 45 217 132 265 175 l35 32 -45 -33
c-25 -18 -51 -37 -57 -42 -7 -5 -13 -7 -13 -5 0 3 28 26 61 52 34 26 58 43 55
37 -20 -33 20 0 106 86 86 85 120 128 88 108 -18 -11 -11 1 12 21 22 19 23 19
8 -1 -15 -20 -14 -20 8 -1 23 20 31 42 10 30 -8 -4 -10 -3 -5 2 5 5 14 9 19 9
6 0 13 6 16 14 3 9 0 11 -9 6 -8 -5 -11 -4 -6 1 5 5 14 9 19 9 6 0 13 6 16 14
3 9 0 11 -9 6 -8 -5 -11 -4 -6 1 5 5 14 9 19 9 6 0 13 6 16 14 3 9 0 11 -9 6
-8 -5 -11 -4 -6 1 5 5 14 9 20 9 7 0 12 10 11 22 0 12 4 21 10 20 6 -1 11 8
10 20 0 12 3 20 7 17 5 -3 15 12 24 32 18 43 18 47 5 39 -13 -8 -13 5 0 25 9
13 10 13 10 0 0 -13 1 -13 10 0 5 8 10 22 10 30 0 13 -1 13 -10 0 -9 -13 -10
-13 -9 0 0 8 4 24 9 35 l9 20 1 -20 1 -20 9 20 c5 11 9 29 9 40 l0 20 -10 -20
c-5 -13 -6 -2 -1 30 9 64 9 334 0 400 -4 31 -4 41 2 25 l8 -25 0 25 c0 14 -3
34 -8 45 l-9 20 -1 -20 -1 -20 -9 20 c-5 11 -9 27 -9 35 -1 13 0 13 9 0 9 -13
10 -13 10 0 0 8 -5 22 -10 30 -9 13 -10 13 -10 0 0 -8 -14 16 -30 55 -34 79
-38 96 -10 45 31 -56 23 -25 -10 41 -17 33 -35 57 -40 54 -5 -3 -12 0 -16 6
-5 8 -3 9 6 4 8 -5 11 -3 8 6 -3 8 -10 14 -16 14 -5 0 -14 4 -19 9 -5 5 -3 6
5 2 18 -11 15 9 -5 25 -11 10 -14 10 -9 2 11 -19 1 -16 -15 4 -10 11 -10 14
-1 9 6 -4 12 -4 12 1 -1 10 -68 83 -77 83 -4 0 9 -17 28 -37 18 -21 -3 -3 -48
39 -45 42 -100 89 -122 104 -23 14 -41 28 -41 31 0 9 43 -20 100 -68 33 -27
60 -47 60 -43 0 17 -147 123 -229 164 -48 24 -60 35 -50 42 11 7 9 8 -4 4 -10
-3 -24 -6 -30 -6 -7 -1 23 -19 66 -41 42 -21 77 -41 77 -44 0 -3 -30 10 -67
28 -38 18 -79 38 -93 43 -22 10 -10 15 107 53 180 59 305 79 489 80 110 1 180
-4 261 -19z m1390 -4560 c23 -99 28 -141 13 -105 -11 25 -11 -1 0 -35 7 -21 8
-22 10 -5 1 11 8 -2 16 -30 18 -64 16 -95 -1 -35 l-14 45 5 -47 c5 -34 2 -47
-8 -51 -7 -2 1 -3 17 -1 58 6 -6 -14 -150 -46 -168 -38 -199 -44 -171 -32 19
8 19 9 -2 14 -11 3 -23 1 -26 -6 -2 -6 -3 5 0 24 3 25 2 30 -4 15 -7 -15 -12
-4 -25 54 -18 79 -21 108 -7 76 l9 -20 0 20 c0 11 -4 29 -9 40 l-9 20 -1 -20
c-2 -26 -6 -15 -24 63 -8 34 -10 60 -6 57 5 -3 11 -1 14 4 4 5 -2 11 -11 13
-10 2 36 17 102 32 66 15 143 34 170 41 85 23 86 22 112 -85z m-837 -96 c-32
-10 -36 -12 -13 -9 27 4 33 0 42 -23 l11 -27 -4 28 c-6 49 8 18 26 -56 22 -94
21 -120 -2 -37 -10 36 -18 58 -19 50 -1 -24 37 -157 39 -135 2 18 13 -15 34
-98 4 -19 3 -26 -4 -22 -5 3 -10 2 -10 -4 0 -5 -8 -12 -17 -14 -10 -2 -5 -3
11 -1 16 3 27 1 23 -2 -10 -11 -367 -92 -361 -82 3 4 0 8 -5 8 -6 0 -11 10
-10 23 l0 22 9 -22 c5 -13 17 -22 27 -22 16 1 16 2 2 6 -10 2 -20 19 -24 41
-6 28 -9 33 -14 19 -5 -13 -13 5 -25 58 -10 42 -15 79 -12 82 3 4 6 -2 6 -12
0 -10 3 -16 6 -13 11 12 -30 167 -45 170 -9 2 50 18 129 36 80 19 159 38 175
42 51 14 73 9 25 -6z m1297 -153 c-3 -10 -5 -7 -6 7 -1 29 -20 36 -62 23 -34
-10 -34 -10 8 -5 l41 5 7 -43 c6 -31 10 -38 14 -25 5 13 12 -5 24 -55 18 -78
21 -106 7 -73 l-9 20 0 -20 c0 -11 4 -29 9 -40 l9 -20 1 20 c1 11 8 -2 16 -30
17 -63 16 -83 -2 -30 l-13 40 2 -39 c2 -34 -1 -41 -23 -47 -17 -6 -11 -7 20
-4 49 5 -240 -70 -305 -79 -26 -3 -32 -3 -15 2 19 6 21 9 9 14 -10 4 -21 30
-29 69 -9 40 -16 56 -20 45 -4 -11 -12 9 -23 56 -18 78 -21 106 -7 73 l9 -20
0 20 c0 11 -4 29 -9 40 -8 19 -9 19 -9 1 -1 -25 -7 -18 -15 19 -5 22 -4 26 4
15 8 -13 10 -13 10 1 0 11 15 20 43 27 42 11 42 11 4 6 -21 -3 -46 -8 -55 -11
-9 -3 -14 -2 -9 2 4 5 87 27 185 50 173 40 177 41 185 21 4 -11 6 -27 4 -35z
m1213 -31 c-14 -9 -13 -11 9 -14 5 0 13 -5 18 -10 5 -5 3 -6 -4 -2 -20 11 -16
-1 23 -70 21 -37 40 -61 46 -57 7 3 8 1 4 -5 -8 -13 81 -198 94 -195 4 1 11
-4 14 -13 3 -8 2 -12 -4 -9 -13 8 -13 4 5 -39 9 -20 20 -34 25 -31 6 3 10 4
10 1 0 -2 3 -13 6 -23 5 -15 4 -16 -6 -3 -9 13 -11 12 -8 -3 2 -10 7 -17 12
-17 10 2 26 -20 26 -35 0 -5 -5 -3 -10 5 -16 24 -12 4 17 -81 14 -45 29 -75
33 -69 14 22 82 -282 79 -349 -1 -18 -4 -14 -9 14 -4 27 -6 7 -6 -60 0 -62 2
-87 7 -65 l6 35 1 -35 c0 -19 -4 -48 -8 -65 -7 -28 -8 -29 -10 -5 l-2 25 -8
-25 c-4 -14 -8 -36 -8 -50 l0 -25 8 25 c15 45 10 -1 -6 -64 -15 -59 -38 -103
-28 -55 l5 24 -11 -24 c-7 -16 -7 -27 -1 -30 6 -4 6 -12 1 -21 -9 -13 -10 -13
-10 0 -1 15 -21 -25 -35 -69 -5 -16 -4 -21 4 -17 7 5 9 1 5 -8 -3 -9 -9 -14
-14 -11 -10 6 -83 -143 -75 -155 4 -6 1 -9 -6 -8 -6 2 -14 -3 -17 -11 -3 -9 0
-11 9 -6 8 5 11 4 6 -1 -5 -5 -14 -9 -19 -9 -6 0 -13 -6 -16 -14 -3 -9 0 -11
8 -6 9 5 11 4 6 -4 -4 -6 -11 -9 -16 -6 -5 3 -14 -3 -19 -14 -14 -26 -14 -34
2 -25 7 4 9 3 4 -2 -5 -5 -14 -9 -19 -9 -6 0 -13 -6 -16 -14 -3 -9 0 -11 9 -6
8 5 11 4 6 -1 -5 -5 -10 -7 -11 -4 -4 8 -36 -21 -36 -32 0 -6 8 -4 18 3 15 11
15 11 4 -1 -7 -8 -18 -15 -24 -15 -6 0 -13 -6 -16 -14 -3 -8 0 -11 7 -7 19 12
12 0 -11 -20 -22 -19 -23 -19 -8 1 15 20 14 20 -8 1 -22 -19 -31 -43 -12 -31
18 11 11 -1 -12 -21 -22 -19 -23 -19 -8 1 15 20 14 20 -8 1 -22 -19 -31 -43
-12 -31 21 13 8 -2 -37 -45 l-48 -45 40 43 c21 23 36 42 32 42 -11 0 -82 -82
-79 -92 1 -4 -2 -7 -6 -6 -5 2 -60 -46 -123 -107 -111 -106 -110 -112 1 -10
30 27 41 35 25 17 -35 -40 -152 -143 -141 -124 14 23 -10 12 -35 -15 l-24 -28
24 20 c14 11 21 14 17 7 -20 -33 -352 -266 -526 -369 -123 -72 -134 -78 -125
-62 6 8 4 11 -6 7 -12 -4 -14 20 -14 149 0 85 3 144 7 131 5 -20 6 -20 7 -3 0
11 -2 31 -6 44 -5 19 -8 21 -12 9 -4 -9 -17 18 -32 68 -15 46 -23 81 -18 78
14 -8 11 3 -16 57 -14 27 -30 47 -35 44 -5 -3 -12 0 -16 6 -5 8 -3 9 6 4 8 -5
11 -3 8 6 -3 8 -10 14 -15 14 -6 0 -15 4 -20 9 -5 5 -3 6 5 2 21 -12 13 10
-10 30 -19 15 -20 16 -9 2 19 -25 8 -22 -15 4 -10 12 -13 18 -5 13 9 -5 12 -3
9 6 -3 8 -11 13 -17 11 -7 -1 -10 2 -7 7 16 25 -319 221 -356 208 -7 -2 5 -9
27 -17 60 -19 225 -106 274 -145 56 -45 45 -46 -12 -2 -56 43 -204 118 -286
146 -369 126 -760 44 -1133 -236 l-98 -74 -113 11 c-360 36 -732 -103 -1057
-396 -73 -66 -76 -68 -20 -13 36 36 88 84 115 108 48 42 49 42 5 9 -92 -68
-244 -224 -187 -192 6 4 -1 -7 -17 -24 -36 -39 -49 -43 -15 -4 23 26 23 26 -9
-2 -31 -29 -44 -54 -19 -40 7 4 9 3 4 -2 -5 -5 -14 -9 -20 -9 -5 0 -12 -6 -15
-14 -3 -9 0 -11 9 -5 12 7 12 5 0 -9 -16 -20 -26 -23 -15 -4 6 9 4 9 -8 -1 -9
-7 -35 -50 -58 -96 -52 -102 -62 -180 -35 -271 21 -74 73 -178 85 -170 5 3 12
0 16 -6 5 -8 3 -9 -6 -4 -8 5 -11 3 -8 -6 3 -8 10 -14 16 -14 5 0 14 -4 19 -9
5 -5 2 -6 -6 -1 -9 5 -12 3 -9 -6 3 -8 10 -14 16 -14 5 0 14 -4 19 -9 5 -5 3
-6 -4 -2 -22 12 -14 -10 9 -30 19 -15 20 -16 9 -2 -21 28 -7 21 20 -9 13 -15
16 -21 7 -14 -11 8 -18 9 -18 3 0 -25 253 -233 266 -219 3 3 -8 13 -24 21 -17
9 -34 21 -37 27 -4 6 12 -2 36 -17 24 -15 87 -48 139 -72 78 -36 103 -54 38
-27 -11 4 -18 3 -18 -4 0 -6 8 -11 18 -12 20 -1 17 -2 -183 -64 -82 -25 -322
-102 -533 -171 -743 -243 -919 -291 -1214 -338 -470 -74 -998 -64 -1480 30
-447 86 -804 208 -1106 378 -108 61 -342 212 -342 221 0 3 27 -13 60 -35 33
-22 60 -39 60 -36 0 2 -42 34 -92 69 -51 36 -138 102 -193 146 -69 56 -108 81
-127 81 -32 0 -91 -47 -84 -66 3 -8 0 -13 -7 -11 -6 1 -13 -9 -14 -23 -2 -22
-2 -23 6 -5 5 11 10 15 10 9 1 -18 -30 -118 -40 -129 -6 -5 -3 10 6 34 8 24
15 49 14 55 0 6 -14 -27 -30 -74 -17 -47 -35 -89 -40 -95 -13 -13 -11 -38 2
-29 8 4 8 0 0 -15 -13 -24 -23 -28 -15 -6 11 27 -5 16 -21 -15 -18 -35 -19
-44 -2 -34 8 5 8 2 -2 -9 -16 -20 -26 -23 -15 -4 5 8 2 8 -9 -2 -18 -14 -24
-36 -7 -26 18 11 11 -1 -12 -21 -22 -19 -23 -19 -8 1 14 20 14 20 -7 1 -13
-10 -20 -24 -16 -30 3 -6 3 -8 -2 -4 -4 4 -22 -5 -39 -20 -17 -15 -43 -35 -56
-45 -25 -18 -25 -18 5 -1 17 9 41 26 55 38 l25 21 -24 -27 c-59 -67 -228 -127
-357 -128 -162 0 -439 84 -539 164 -11 9 14 -2 55 -24 41 -22 80 -40 85 -40 6
0 -22 17 -61 38 -74 40 -191 120 -213 146 -8 9 -18 16 -23 16 -9 0 41 -45 108
-98 16 -13 9 -10 -16 6 -42 28 -219 190 -192 177 23 -12 12 11 -20 41 l-33 29
25 -30 25 -30 -33 29 c-31 29 -42 43 -22 31 17 -10 11 12 -7 26 -15 12 -16 12
-8 -1 8 -13 7 -13 -8 -1 -18 15 -23 26 -7 16 17 -10 11 12 -7 26 -15 12 -16
12 -8 -1 8 -13 7 -13 -8 -1 -19 15 -23 26 -6 15 7 -4 10 -1 7 7 -3 8 -10 14
-16 14 -5 0 -14 4 -19 9 -5 5 -2 6 6 1 9 -5 12 -3 9 6 -3 8 -10 14 -16 14 -5
0 -14 4 -19 9 -5 5 -2 6 6 1 9 -5 12 -3 9 6 -3 8 -10 14 -16 14 -5 0 -14 4
-19 9 -5 5 -3 6 4 2 17 -9 16 -1 -2 35 -9 16 -20 27 -25 24 -5 -3 -12 0 -16 6
-4 8 -3 9 4 5 16 -10 15 -1 -3 35 -9 16 -19 27 -24 25 -4 -3 -7 5 -7 17 1 12
-4 21 -10 20 -6 -1 -10 8 -10 20 1 12 -4 21 -10 20 -6 -1 -16 10 -23 25 -11
25 -10 26 4 8 16 -21 19 -18 9 8 -3 9 -12 16 -19 16 -7 0 -15 10 -18 23 -6 21
-6 21 8 3 19 -25 19 -18 -1 30 -9 21 -23 44 -33 52 -9 7 -10 11 -3 7 14 -7 15
11 1 40 -8 18 -9 18 -5 -4 7 -37 -9 -11 -22 34 -47 173 -40 398 18 614 7 29
14 40 19 32 6 -10 10 -9 15 4 9 26 7 42 -4 25 -5 -8 -10 -10 -10 -5 0 14 15
36 26 38 5 1 9 10 8 20 -1 30 88 102 151 122 91 28 175 4 245 -71 19 -20 29
-33 21 -29 -9 5 -12 3 -9 -6 3 -8 11 -13 17 -11 7 1 10 -2 6 -7 -8 -14 23 -73
35 -66 5 3 12 0 16 -6 5 -8 3 -9 -6 -4 -8 5 -11 3 -8 -6 3 -8 10 -14 16 -14 5
0 14 -4 19 -9 5 -5 2 -6 -6 -1 -9 5 -12 3 -9 -6 3 -8 10 -13 16 -12 6 2 9 -3
6 -11 -7 -19 34 -46 71 -46 35 0 105 52 105 78 0 13 -2 14 -8 4 -6 -8 -9 -2
-9 18 0 21 3 27 9 18 6 -9 8 -7 5 7 -2 11 -8 19 -15 18 -6 -2 -9 3 -6 11 5 14
-58 130 -78 142 -7 4 -8 3 -4 -4 11 -18 0 -14 -15 5 -10 11 -10 14 -1 9 6 -4
12 -6 12 -4 0 13 -168 327 -172 323 -3 -3 -8 1 -12 10 -3 9 -2 13 4 10 14 -9
13 -5 -19 71 -40 95 -41 106 -11 115 17 6 11 7 -20 4 -67 -7 -43 0 170 49 204
47 671 155 1190 276 168 39 383 89 479 111 95 23 177 37 181 32 5 -4 11 -26
14 -48 5 -29 4 -35 -3 -20 -16 34 -12 -4 8 -80 11 -38 20 -61 21 -50 1 11 11
-14 22 -55 11 -41 21 -76 22 -78 2 -1 81 16 177 38 227 52 226 52 211 42 -9
-6 -10 -15 -3 -33 9 -21 10 -22 11 -4 2 22 24 -52 33 -111 5 -27 4 -33 -3 -19
l-9 20 0 -20 c0 -11 4 -29 9 -40 l9 -20 1 20 c1 11 10 -13 20 -54 10 -40 21
-75 23 -77 2 -3 73 12 157 31 83 20 157 34 163 31 7 -2 1 -5 -13 -6 l-25 -2
24 -7 c15 -4 27 -17 32 -34 4 -16 3 -25 -2 -21 -5 3 -9 15 -9 26 0 12 -3 19
-6 16 -3 -3 -2 -23 2 -43 4 -22 10 -32 14 -25 5 8 10 2 14 -15 4 -15 5 -30 1
-33 -3 -3 -5 3 -5 13 0 10 -3 16 -6 12 -3 -3 -3 -21 1 -39 6 -27 9 -29 15 -14
4 12 14 -17 30 -88 13 -61 28 -106 35 -106 6 0 88 18 181 40 93 22 175 40 182
40 6 0 11 -10 11 -22 -1 -17 -2 -19 -6 -5 -5 19 -15 20 -53 6 -22 -8 -21 -8 7
-4 30 4 33 1 42 -28 6 -22 10 -26 11 -12 2 17 3 16 10 -5 11 -34 11 -60 0 -35
-8 19 -9 19 -9 1 -1 -10 -9 -25 -18 -33 -17 -14 -17 -14 2 -8 11 4 27 9 35 12
8 2 -25 -17 -75 -42 -129 -67 -253 -143 -265 -163 -8 -12 -10 -13 -7 -2 2 8
23 29 48 45 82 56 96 67 52 44 -62 -33 -115 -79 -109 -95 3 -8 9 -21 13 -31 4
-11 3 -14 -5 -9 -24 15 -11 -15 24 -54 42 -46 70 -51 120 -19 19 11 34 23 34
26 0 2 -15 -5 -34 -16 -46 -29 -78 -27 -107 7 l-24 27 26 -22 c37 -33 62 -29
153 26 101 61 210 116 201 102 -3 -6 0 -11 7 -11 7 0 168 36 356 80 189 44
359 80 378 80 49 0 216 -38 299 -67 135 -49 391 -194 436 -249 7 -9 -25 11
-71 45 -79 56 -266 161 -286 161 -5 0 32 -22 81 -48 106 -56 159 -89 238 -148
59 -46 74 -53 61 -31 -12 18 86 -66 116 -99 14 -17 5 -11 -20 11 -102 92 -85
72 61 -72 85 -84 156 -153 159 -153 2 0 -14 18 -35 40 -21 22 -37 40 -34 40 3
0 25 -21 49 -46 25 -26 39 -44 33 -40 -27 15 -11 -12 30 -51 42 -41 42 -41 80
-28 21 7 46 19 56 27 9 7 3 0 -13 -16 -22 -19 -24 -25 -10 -17 28 14 74 68 74
87 0 22 -20 55 -29 49 -5 -2 -15 3 -22 13 -13 15 -12 16 4 3 9 -7 17 -10 17
-5 -1 11 -68 84 -77 84 -4 0 6 -14 22 -30 16 -17 27 -30 24 -30 -3 0 -21 16
-40 37 -18 20 -28 33 -21 29 6 -4 12 -3 12 2 0 13 -298 302 -311 302 -6 0 -7
-5 -3 -12 4 -6 -9 1 -29 17 -38 31 -39 38 -5 56 15 8 19 8 14 0 -13 -21 6 -11
67 36 77 59 207 182 207 195 0 6 -7 5 -15 -2 -26 -22 -16 -4 12 21 22 19 25
20 14 4 -7 -11 1 -4 18 15 17 19 29 40 27 47 -3 7 0 15 6 19 7 5 8 2 4 -7 -4
-8 2 -3 14 10 11 13 19 30 16 38 -3 7 0 12 6 10 6 -1 13 4 16 12 3 9 0 11 -9
6 -8 -5 -11 -4 -6 1 5 5 13 10 18 10 22 3 23 5 10 13 -13 8 63 28 437 114 56
14 105 27 108 29 3 3 0 27 -7 52 -6 26 -9 49 -7 51 3 3 11 -21 18 -52 7 -32
14 -53 16 -48 2 6 -5 42 -15 80 -11 39 -20 61 -21 50 -1 -11 -10 12 -21 50
-20 75 -24 115 -8 80 7 -16 8 -13 6 15 -1 24 -8 37 -20 40 -10 3 67 25 172 49
172 40 191 46 192 65 1 19 2 18 9 -4 6 -20 8 -21 8 -5 0 11 -4 31 -8 45 -7 21
-8 22 -10 5 -1 -11 -10 12 -21 50 -19 73 -24 116 -9 80 l9 -20 0 20 c0 11 -4
29 -9 40 l-9 20 -1 -20 c-2 -26 -6 -15 -24 63 -8 34 -10 60 -5 56 5 -3 9 -1 9
5 0 6 17 13 38 17 20 4 32 9 25 11 -6 2 -29 0 -49 -6 -21 -6 -33 -6 -28 -2 5
5 71 23 146 40 131 30 191 39 138 20 l-25 -8 25 2 c14 1 26 8 26 15 5 48 5 48
14 27 11 -25 13 -1 3 34 -5 22 -7 23 -13 7 -4 -11 -17 28 -34 103 -15 67 -25
125 -22 128 3 4 6 -2 6 -12 0 -10 3 -16 6 -12 3 3 3 21 -1 39 -7 29 -9 30 -16
13 -7 -18 -8 -18 -8 -2 -1 11 8 21 21 25 19 5 20 6 4 12 -15 5 631 162 659
159 6 0 1 -5 -10 -10 -17 -7 -15 -8 10 -6 23 2 30 -3 36 -23 4 -14 7 -34 7
-45 l1 -20 -9 20 c-15 36 -10 -7 9 -80 11 -38 20 -61 21 -50 1 11 10 -11 20
-48 10 -38 21 -71 24 -74 3 -3 76 11 163 31 161 37 214 45 133 20 -43 -13 -43
-13 -7 -8 33 4 37 3 38 -18 1 -23 1 -23 9 2 4 14 8 20 9 14 1 -6 3 -27 6 -45
4 -26 3 -30 -4 -14 -12 25 -12 1 -1 -35 7 -21 8 -22 10 -5 1 11 10 -11 21 -50
19 -73 24 -116 9 -80 -14 33 -11 -5 5 -60 l15 -50 -5 45 -4 45 11 -47 c6 -27
16 -48 22 -48 6 0 140 30 298 66 l287 66 48 -41 c69 -57 194 -126 282 -155
115 -38 201 -49 335 -44 67 3 110 1 96 -3 -24 -7 -24 -7 -2 -8 22 -1 22 -3 22
-127 l0 -126 35 -35 c33 -33 39 -35 78 -29 29 4 51 16 70 36 23 26 27 38 25
83 l-1 52 -7 -55 c-5 -40 -7 -14 -8 90 -1 91 4 176 13 230 16 93 44 195 51
188 2 -3 -1 -19 -7 -37 -6 -18 -9 -34 -7 -37 7 -6 50 115 52 143 0 11 4 19 8
17 10 -6 40 54 33 66 -3 5 0 12 6 16 8 5 9 3 4 -6 -6 -9 -4 -11 4 -6 7 5 10
14 7 21 -3 8 2 19 10 26 14 12 764 190 793 188 9 -1 5 -5 -9 -10 l-25 -8 25 2
c27 2 29 14 16 92 -4 28 -3 34 3 20 l10 -20 0 20 c0 11 -4 29 -9 40 l-9 20 -1
-20 c-2 -21 -60 200 -59 225 1 8 9 -14 20 -50 17 -60 18 -52 2 38 -3 20 -12
32 -22 33 -17 1 104 37 129 38 13 1 13 0 0 -9z m-1957 -262 c20 -90 37 -168
37 -175 0 -7 -15 -17 -32 -23 -32 -9 -32 -10 7 -4 79 11 27 -5 -144 -45 -155
-37 -249 -53 -181 -31 14 4 20 8 13 9 -6 1 -19 35 -29 77 -11 45 -20 69 -24
59 -4 -10 -13 14 -24 60 -10 42 -15 79 -12 82 3 4 6 -2 6 -12 0 -10 3 -16 6
-12 3 3 3 21 -1 39 -7 29 -9 31 -17 13 -6 -15 -7 -11 -3 14 3 19 6 35 8 36 10
6 307 73 327 74 25 1 27 -3 63 -161z m772 -413 c-26 -9 -33 -14 -20 -15 11 -1
23 -2 28 -1 12 2 8 -4 -25 -35 l-33 -29 25 30 c18 21 12 19 -18 -10 -38 -35
-57 -66 -32 -50 18 11 10 -1 -17 -26 -14 -13 -23 -18 -19 -11 14 24 -11 12
-40 -20 -16 -18 -19 -24 -6 -14 31 27 28 15 -5 -15 -14 -13 -23 -18 -19 -11
11 19 -9 14 -29 -8 -12 -14 -32 -21 -64 -22 l-46 -1 44 -4 c31 -3 49 1 65 14
l21 18 -19 -22 c-25 -29 -75 -30 -182 -3 -125 32 -266 110 -199 110 16 0 510
114 560 129 47 14 75 10 30 -4z m-5230 -45 c-20 -9 -20 -9 0 -9 18 -1 24 -15
43 -99 26 -116 27 -143 2 -52 -10 36 -18 58 -19 50 -1 -25 37 -157 39 -135 1
11 10 -9 19 -45 12 -45 14 -67 7 -71 -6 -4 -83 -23 -171 -43 -88 -20 -169 -39
-180 -43 -11 -3 -17 -2 -13 2 3 3 28 13 55 21 l48 14 -42 -6 c-38 -5 -44 -3
-52 18 -9 21 -10 21 -11 3 -1 -11 -15 32 -31 95 -28 115 -36 164 -19 125 l9
-20 0 20 c0 11 -4 29 -9 40 -8 19 -9 19 -9 1 -1 -25 -7 -18 -15 19 -5 22 -4
26 4 15 6 -10 10 -11 10 -3 0 7 15 17 33 22 30 10 29 10 -13 6 -66 -7 -43 0
140 44 163 39 215 48 175 31z m-766 -178 c-14 -6 -14 -11 -2 -37 l14 -30 -6
30 c-4 21 -2 25 4 15 5 -8 12 -33 15 -55 5 -29 4 -34 -3 -20 -12 24 -14 2 -4
-34 5 -21 7 -22 13 -7 3 11 16 -26 31 -93 14 -60 22 -108 17 -105 -4 3 -8 1
-8 -4 0 -6 -17 -13 -37 -17 -21 -4 -33 -10 -26 -12 6 -2 29 0 49 6 21 6 33 7
28 2 -5 -5 -61 -20 -124 -34 -63 -14 -143 -32 -176 -40 -57 -14 -61 -13 -57 2
2 10 0 33 -6 52 -10 33 -10 33 -6 -11 l5 -45 -15 50 c-16 55 -19 93 -5 60 16
-37 10 8 -10 80 -11 39 -18 55 -15 38 3 -18 7 -48 10 -65 2 -18 -8 19 -24 82
-16 63 -29 116 -28 116 1 1 81 20 177 42 169 39 225 49 189 34z m1241 -120
l-25 -5 24 -6 c25 -7 33 -22 44 -96 5 -28 4 -34 -3 -20 l-9 20 0 -20 c0 -11 4
-29 9 -40 l9 -20 1 20 c1 11 13 -23 25 -75 13 -52 22 -97 19 -99 -2 -2 -7 10
-10 28 -4 17 -9 30 -11 27 -11 -11 10 -66 24 -66 36 0 -1 -11 -167 -49 -167
-39 -260 -54 -155 -25 49 13 49 13 9 9 l-41 -5 -13 62 c-9 40 -16 55 -20 44
-4 -11 -12 9 -23 56 -18 78 -21 106 -7 73 l9 -20 0 20 c0 11 -4 29 -9 40 l-9
20 -1 -20 c-2 -17 -3 -16 -10 5 -11 34 -11 60 0 35 8 -18 9 -18 9 -2 1 10 11
22 24 28 18 7 14 8 -18 5 -22 -3 -33 -3 -25 1 27 11 335 82 355 81 15 -1 13
-2 -5 -6z m-770 -182 c-14 -4 -20 -8 -13 -9 6 -1 19 -35 29 -77 11 -45 20 -69
24 -59 4 10 13 -13 23 -57 19 -80 21 -104 6 -73 -7 15 -8 9 -3 -20 3 -22 13
-46 22 -52 8 -7 14 -13 11 -13 -2 0 -82 -18 -177 -40 -94 -22 -178 -40 -185
-40 -14 0 -44 106 -33 117 3 4 6 -2 6 -12 0 -10 3 -16 6 -12 3 3 3 21 -1 39
-6 26 -9 29 -14 15 -4 -12 -16 21 -32 92 -14 60 -23 109 -20 109 3 -1 13 1 21
5 8 3 22 8 30 11 8 3 -3 4 -25 1 -22 -2 -33 -1 -25 2 27 12 324 81 350 81 l25
0 -25 -8z m1246 -114 c-26 -12 -27 -13 -8 -18 12 -3 23 -1 25 6 2 6 12 -22 22
-62 9 -40 15 -76 11 -79 -3 -4 -6 2 -6 12 0 10 -3 16 -6 12 -3 -3 -3 -21 1
-39 6 -26 9 -29 14 -14 5 12 14 -13 28 -73 11 -51 17 -89 13 -84 -5 4 -10 17
-13 28 -4 12 -5 8 -4 -10 1 -16 8 -32 15 -35 8 -3 -68 -25 -168 -49 -100 -24
-186 -39 -190 -35 -5 5 -11 27 -14 49 -5 29 -4 35 3 20 l10 -20 0 20 c0 11 -4
29 -9 40 l-9 20 -1 -20 c-2 -22 -60 200 -59 225 1 8 5 4 9 -10 l8 -25 1 28 c1
18 7 27 19 28 12 1 10 3 -6 8 -17 4 28 18 150 47 190 45 207 49 164 30z m-759
-173 c-4 -3 -3 -11 2 -17 12 -15 74 -287 67 -294 -4 -3 -6 3 -6 13 0 10 -3 16
-6 13 -11 -12 8 -77 24 -80 9 -2 -67 -22 -168 -46 -186 -42 -243 -52 -160 -26
32 10 36 12 13 9 -27 -4 -33 0 -42 23 l-11 27 4 -28 c6 -49 -8 -18 -26 56 -22
94 -21 120 2 37 10 -36 18 -58 19 -50 1 24 -37 157 -39 135 -2 -18 -13 15 -34
98 -4 19 -3 26 4 22 5 -3 10 -1 10 4 0 6 8 11 18 12 16 0 15 1 -1 8 -12 4 41
21 155 48 95 22 175 41 177 42 2 1 1 -2 -2 -6z m1098 -447 c-34 -10 -37 -13
-18 -18 12 -3 27 -1 35 6 7 6 -14 -18 -47 -53 -71 -75 -164 -147 -238 -186
l-53 -28 -106 53 -106 54 84 48 c72 41 109 54 266 92 175 42 268 58 183 32z
m3325 -56 c152 -24 344 -108 428 -187 26 -25 41 -41 33 -37 -9 4 -12 2 -9 -7
3 -8 10 -14 16 -14 5 0 14 -4 19 -9 5 -5 2 -6 -6 -1 -9 5 -12 3 -9 -6 3 -8 10
-13 17 -12 6 2 18 -11 27 -28 9 -18 11 -28 4 -24 -8 5 -11 1 -8 -9 1 -10 7
-16 12 -16 10 2 26 -20 26 -35 0 -5 -5 -3 -10 5 -8 13 -10 13 -10 -2 0 -10 9
-26 21 -36 27 -26 52 -174 44 -259 -7 -71 -22 -131 -25 -98 l-1 20 -9 -20 c-5
-11 -9 -27 -9 -35 -1 -13 0 -13 9 0 8 13 10 12 10 -2 0 -10 -6 -18 -14 -18
-17 0 -30 -35 -20 -51 4 -8 3 -9 -4 -5 -6 3 -16 -2 -21 -13 -14 -26 -14 -34 2
-25 6 4 9 4 5 0 -3 -4 -10 -8 -15 -8 -12 0 -33 -19 -33 -30 0 -6 8 -5 18 3 9
7 -8 -13 -38 -44 -30 -31 -59 -57 -65 -56 -6 0 -6 2 0 5 13 5 9 158 -5 198 -5
16 -8 31 -6 33 5 5 23 -50 29 -87 4 -22 4 -21 5 5 1 39 -22 101 -36 98 -6 -2
-9 3 -6 10 9 24 -120 158 -152 157 -5 0 2 -9 16 -20 16 -13 -2 -8 -50 15 -114
52 -226 68 -440 62 -294 -8 -559 -70 -723 -169 -86 -51 -92 -54 -81 -36 4 7 3
8 -5 4 -6 -4 -9 -11 -7 -15 3 -4 -36 -36 -87 -72 -50 -35 -145 -116 -211 -179
-67 -63 -103 -95 -81 -71 22 24 56 59 75 77 19 18 30 34 23 34 -6 0 -42 -34
-80 -76 -65 -72 -88 -105 -64 -90 19 12 12 0 -11 -20 -22 -19 -23 -19 -8 1 15
20 14 20 -8 1 -23 -20 -31 -42 -9 -30 7 4 9 3 4 -2 -5 -5 -14 -9 -19 -9 -6 0
-13 -6 -16 -14 -3 -9 0 -11 8 -6 9 5 11 4 6 -4 -4 -6 -11 -9 -16 -6 -5 3 -21
-17 -35 -44 -28 -57 -32 -74 -10 -45 13 17 14 16 4 -14 -7 -21 -14 -29 -19
-22 -8 12 -20 -22 -19 -50 1 -8 4 -4 8 9 4 14 6 -11 6 -57 0 -46 -3 -74 -8
-64 -5 12 -6 9 -4 -10 4 -25 2 -26 -32 -22 -31 3 -32 2 -11 -5 14 -5 39 -10
55 -11 23 -2 25 -4 9 -7 -36 -7 -184 36 -279 81 -49 23 -124 70 -165 103 -68
54 -124 108 -92 89 21 -12 13 10 -10 30 -19 15 -20 16 -9 2 19 -25 8 -22 -15
4 -10 12 -13 18 -5 13 9 -5 12 -3 9 6 -3 8 -10 14 -15 14 -6 0 -15 4 -20 9 -5
5 -2 6 6 1 9 -5 12 -3 9 6 -3 8 -10 13 -15 12 -5 -1 -9 8 -9 20 1 12 -5 22
-13 22 -8 0 -16 7 -18 15 -4 13 -3 13 6 0 6 -9 11 -10 11 -3 0 22 -12 43 -25
43 -26 0 -33 116 -9 165 8 17 11 21 8 10 -12 -38 -16 -120 -6 -145 8 -19 9
-10 5 36 -5 52 -2 70 21 119 30 66 31 69 14 59 -8 -4 -10 -3 -5 2 5 5 14 9 20
9 5 0 12 6 15 14 3 9 0 11 -9 6 -8 -5 -11 -4 -6 1 5 5 14 9 20 9 5 0 12 6 15
14 3 9 0 11 -9 5 -12 -7 -12 -5 0 9 16 20 25 23 15 5 -4 -7 2 -4 14 6 26 23
30 44 5 25 -10 -7 -5 1 11 19 34 36 49 44 20 10 -17 -21 -17 -21 8 1 15 13 25
29 21 35 -3 6 -3 8 2 4 5 -5 31 14 59 40 28 26 83 70 121 97 71 49 104 75 75
60 -8 -5 -34 -21 -57 -37 -24 -16 -43 -26 -43 -23 0 3 35 28 78 55 222 143
501 211 734 180 168 -22 162 -23 258 55 292 237 596 339 880 295z m11 -764
c62 -14 149 -49 149 -62 0 -3 -6 -2 -12 2 -7 4 -2 -5 11 -19 13 -15 27 -24 32
-22 4 3 11 0 15 -6 5 -8 3 -9 -6 -4 -9 5 -10 2 -5 -15 6 -19 4 -21 -17 -16
-13 4 -7 -2 15 -14 51 -28 46 -33 -9 -8 -26 11 -73 23 -106 26 -50 4 -64 2
-91 -17 l-32 -22 30 27 c27 25 33 26 100 21 42 -3 62 -2 50 3 -11 5 -43 9 -72
9 -41 1 -57 -4 -82 -24 -20 -17 -28 -31 -24 -42 4 -11 2 -14 -5 -9 -16 10 -24
-33 -13 -69 9 -29 9 -29 11 -5 2 21 3 19 10 -10 9 -41 21 -170 15 -155 -3 6
-9 37 -14 70 l-9 60 1 -75 c0 -41 5 -78 10 -81 16 -11 -341 -149 -553 -213
-125 -38 -374 -96 -408 -96 -18 0 -41 9 -54 23 -13 12 -17 17 -8 11 43 -31 39
-23 -9 22 -30 27 -58 48 -62 47 -4 -1 -13 5 -21 14 -11 14 -11 16 1 9 9 -6 12
-4 9 5 -3 8 -10 14 -15 14 -6 0 -15 4 -20 9 -5 5 -3 6 5 2 15 -9 15 -1 1 25
-5 11 -15 16 -21 13 -7 -5 -8 -2 -4 5 10 16 -13 71 -30 71 -7 0 -29 9 -49 20
-19 11 -35 15 -35 10 0 -6 -5 -10 -12 -10 -23 0 146 157 246 228 72 52 54 30
-26 -31 -40 -30 -100 -80 -133 -112 l-60 -57 63 54 c108 92 154 126 250 190
87 58 118 82 71 57 -12 -6 -19 -7 -16 -2 11 18 132 72 217 96 47 14 132 32
190 42 58 9 112 18 120 19 48 11 352 4 411 -8z m191 -401 c3 0 10 -4 15 -9 5
-5 3 -6 -4 -2 -15 9 -16 1 -4 -23 7 -12 5 -41 -4 -86 -8 -38 -13 -71 -10 -73
3 -3 5 2 5 11 0 9 4 18 9 22 6 3 6 -7 1 -26 -11 -36 -20 -49 -20 -28 0 11 -2
11 -10 -1 -5 -8 -10 -22 -10 -30 0 -13 1 -13 10 0 5 8 10 11 10 5 0 -15 -16
-37 -26 -35 -5 0 -10 -7 -12 -17 -3 -15 -1 -16 8 -3 10 13 11 13 7 0 -2 -8
-10 -15 -18 -15 -7 0 -15 -9 -17 -20 -3 -17 -1 -18 8 -5 10 13 11 13 7 0 -2
-8 -9 -15 -15 -15 -13 0 -41 -35 -41 -50 -1 -5 9 1 20 15 l21 25 -14 -25 c-9
-14 -21 -25 -28 -25 -8 0 -15 -6 -18 -14 -3 -9 0 -11 9 -6 28 16 -98 -108
-139 -137 -213 -148 -538 -203 -812 -137 -92 23 -250 92 -290 128 l-25 23 30
-20 c37 -24 152 -82 162 -82 4 0 -30 21 -77 46 -47 25 -92 52 -101 60 -19 17
-33 18 -22 2 9 -15 -70 46 -84 64 -14 19 -16 85 -4 93 6 3 8 12 5 18 -4 7 20
-13 52 -44 80 -76 142 -116 223 -144 190 -64 358 -58 666 26 188 51 279 92
349 159 30 28 58 51 63 50 4 -1 9 4 12 11 2 7 -1 9 -9 4 -9 -5 -11 -4 -6 4 4
6 11 9 16 6 5 -3 16 8 25 24 17 34 19 45 6 37 -5 -4 -7 3 -4 15 4 13 8 17 13
9 5 -8 9 -7 14 5 10 27 7 47 -6 39 -7 -4 -8 -3 -4 5 4 6 11 9 16 6 14 -8 20
23 20 101 0 58 3 73 13 67 6 -4 15 -8 19 -8z"/>
<path d="M5907 11039 c18 -5 35 -14 38 -19 4 -6 -5 -5 -19 1 -19 9 -36 9 -73
-1 -67 -18 -206 -83 -267 -125 -48 -34 -28 -10 24 28 24 17 24 17 -9 0 -38
-20 -241 -210 -241 -225 0 -6 8 -4 18 3 15 11 15 11 4 -1 -7 -8 -18 -15 -24
-15 -6 0 -13 -6 -16 -14 -3 -9 0 -11 9 -5 12 7 12 5 0 -9 -16 -20 -26 -23 -15
-4 5 8 2 8 -9 -2 -19 -15 -23 -36 -5 -25 7 4 8 3 4 -5 -4 -6 -11 -9 -16 -6
-12 7 -33 -32 -25 -45 4 -6 1 -9 -6 -8 -6 2 -14 -3 -17 -11 -3 -9 0 -11 8 -6
9 5 11 4 6 -4 -4 -6 -11 -9 -16 -6 -5 3 -21 -17 -35 -44 -27 -55 -30 -65 -15
-56 6 3 7 -1 4 -9 -3 -9 -10 -14 -16 -13 -5 1 -20 -25 -34 -57 -24 -60 -32
-93 -14 -66 5 8 10 10 10 5 0 -6 -9 -18 -20 -28 -11 -9 -20 -25 -20 -34 0 -15
2 -16 10 -3 14 22 13 12 -14 -92 -38 -143 -49 -244 -44 -406 2 -81 1 -136 -3
-122 l-7 25 0 -25 c0 -14 3 -34 8 -45 l9 -20 1 20 c1 11 9 -5 19 -35 10 -32
13 -58 8 -61 -6 -4 -4 -14 3 -25 10 -16 11 -16 6 -1 -10 33 3 16 24 -29 25
-58 25 -70 0 -24 -11 19 -19 31 -19 25 -1 -19 86 -180 97 -180 6 0 17 -7 24
-15 11 -12 11 -12 -4 -1 -10 7 -18 9 -18 3 0 -11 21 -30 33 -30 5 0 12 -4 15
-8 4 -4 1 -4 -5 0 -23 13 -13 -10 14 -35 l28 -24 -20 25 -20 25 22 -18 c12
-11 20 -24 17 -31 -6 -16 115 -131 193 -184 58 -39 176 -102 190 -102 4 0 -28
20 -72 43 -107 56 -165 97 -238 169 l-62 60 63 -56 c216 -192 449 -277 765
-277 175 -1 190 6 185 86 -1 29 0 51 5 48 4 -2 7 -26 7 -52 0 -61 -23 -83 -93
-92 l-52 -6 47 -2 c37 -1 53 4 77 25 27 22 31 32 31 74 0 48 -28 100 -53 100
-6 0 -2 -7 9 -16 10 -8 12 -12 4 -7 -8 4 -78 8 -155 9 -306 2 -517 83 -685
260 l-65 69 75 -71 c99 -94 198 -159 270 -178 14 -4 -4 7 -39 24 -87 41 -178
108 -241 177 -29 32 -57 58 -61 58 -4 0 -11 4 -16 9 -5 5 -2 6 6 1 9 -5 12 -3
9 6 -3 8 -10 14 -16 14 -5 0 -14 4 -19 9 -5 5 -3 6 5 2 15 -9 15 -1 1 25 -5
11 -14 17 -19 14 -5 -3 -12 0 -16 6 -4 8 -3 9 4 5 7 -4 12 -4 12 1 -1 13 -59
119 -60 108 0 -13 -20 16 -20 30 0 6 5 3 10 -5 9 -13 10 -13 10 0 0 8 -5 22
-10 30 -9 13 -10 13 -11 0 0 -10 -3 -8 -9 5 -12 28 -11 56 1 30 8 -17 9 -17 4
5 -2 14 -5 32 -6 40 0 10 -3 8 -8 -5 -13 -32 -26 64 -24 185 1 115 31 308 43
276 6 -18 7 -18 13 5 10 35 8 59 -3 34 -5 -13 -9 -14 -9 -5 0 22 17 59 19 40
1 -10 4 -9 10 5 13 30 12 47 -2 39 -7 -4 -3 3 10 15 25 25 28 37 10 44 -8 4
-7 6 4 6 9 1 21 13 26 29 5 15 13 36 18 46 5 14 4 17 -4 12 -8 -5 -10 -2 -6 8
3 9 11 14 17 13 6 -1 12 7 14 18 3 17 2 18 -7 5 -10 -13 -11 -13 -7 0 2 8 9
15 16 15 7 0 19 11 26 25 18 31 19 43 3 34 -7 -4 -8 -3 -4 5 4 6 11 9 16 6 5
-3 14 3 19 14 14 25 14 34 1 26 -16 -10 -11 1 7 16 15 12 16 12 8 -1 -8 -13
-7 -13 8 -1 20 16 23 36 5 25 -8 -4 -10 -3 -5 2 5 5 14 9 20 9 5 0 12 6 15 14
3 9 0 11 -9 6 -8 -5 -5 1 5 13 11 12 22 20 25 17 2 -3 32 21 65 54 34 33 97
81 141 106 44 25 76 45 71 45 -20 0 -129 -66 -192 -117 -46 -36 -54 -41 -24
-13 91 84 182 134 318 176 63 19 83 41 69 76 -3 7 -6 1 -6 -14 -1 -15 -5 -29
-10 -32 -4 -3 -6 6 -3 19 2 13 -1 39 -7 57 -10 30 -9 31 4 14 9 -11 15 -14 15
-7 0 22 -57 71 -82 70 -19 -1 -17 -2 9 -10z"/>
<path d="M7828 9803 c-16 -16 -28 -36 -28 -44 0 -12 2 -12 11 1 7 11 8 6 3
-20 -8 -42 -22 -80 -29 -80 -2 0 0 12 5 26 6 14 10 31 9 37 0 7 -13 -24 -29
-68 -16 -44 -27 -86 -25 -93 3 -7 1 -10 -5 -7 -11 7 -43 -52 -35 -66 4 -5 1
-8 -6 -7 -6 2 -14 -3 -17 -11 -3 -9 0 -11 9 -6 8 5 5 -1 -5 -13 -23 -26 -34
-29 -16 -4 7 9 -8 -6 -33 -34 -25 -28 -72 -70 -104 -94 -75 -56 -86 -67 -45
-44 18 10 66 48 105 83 44 39 56 48 32 22 -62 -66 -149 -127 -254 -178 -53
-26 -103 -52 -111 -58 -9 -5 -5 0 8 13 13 12 19 22 14 22 -14 0 -62 -55 -62
-72 0 -30 30 -86 56 -107 29 -23 51 -26 74 -11 11 7 7 8 -15 4 -19 -3 -37 0
-50 10 -19 14 -18 15 12 4 28 -11 40 -8 129 36 111 54 215 120 258 165 17 17
33 31 38 31 9 0 -62 -66 -113 -103 -20 -15 -83 -52 -140 -82 -57 -30 -99 -55
-94 -55 19 0 170 82 230 125 76 55 175 143 175 157 0 6 -6 6 -15 -2 -28 -24
-15 -4 17 26 28 24 30 25 13 4 -17 -21 -15 -20 13 4 33 31 45 58 15 35 -16
-11 -16 -11 -5 1 7 8 18 15 24 15 6 0 13 6 16 14 3 9 0 11 -8 6 -9 -5 -11 -4
-6 4 4 6 11 9 16 6 5 -3 16 8 25 24 18 36 19 44 3 35 -8 -4 -10 -3 -5 2 5 5
14 9 20 9 7 0 12 14 12 30 1 17 7 39 14 50 13 20 12 14 -5 -32 -5 -12 -4 -15
3 -8 21 20 65 161 68 217 3 72 -20 99 -92 105 -43 4 -51 2 -75 -24z"/>
<path d="M4675 7691 c-22 -4 39 -5 135 -3 168 4 176 3 203 -18 23 -18 27 -29
27 -70 0 -27 -3 -51 -7 -53 -5 -3 -6 19 -5 48 3 48 1 55 -22 71 -24 15 -46 16
-194 11 -347 -12 -574 -105 -812 -331 -52 -50 -82 -76 -66 -58 17 17 26 32 22
32 -13 0 -56 -55 -51 -67 2 -6 -4 -17 -13 -25 -16 -12 -16 -11 -2 6 9 12 10
17 3 12 -22 -12 -74 -96 -68 -106 4 -6 1 -9 -6 -8 -6 2 -14 -3 -17 -11 -3 -9
0 -11 8 -6 9 5 11 4 6 -4 -4 -6 -11 -9 -16 -6 -11 7 -81 -129 -117 -224 -19
-51 -21 -66 -11 -72 12 -8 5 -13 -13 -11 -9 2 -22 -49 -14 -56 3 -3 5 2 5 11
0 9 4 18 9 21 4 3 -2 -36 -15 -87 -26 -102 -50 -262 -59 -407 -6 -84 -4 -99
12 -118 21 -25 111 -47 128 -31 7 7 3 8 -10 4 -16 -6 -17 -5 -5 4 8 6 23 11
32 11 22 0 26 16 31 145 3 64 1 89 -3 60 -6 -48 -7 -48 -8 -11 -3 73 53 384
58 321 l1 -20 9 20 c5 11 9 27 9 35 1 13 0 13 -9 0 -9 -13 -10 -13 -10 0 0 9
9 23 20 33 11 9 20 25 19 34 0 14 -2 13 -9 -4 -5 -13 -12 -23 -14 -23 -9 0 6
34 19 45 11 9 45 79 45 92 0 2 -4 1 -10 -2 -13 -8 -13 5 0 25 9 13 10 13 10 0
1 -8 9 1 20 20 23 41 25 54 8 44 -8 -4 -10 -3 -5 2 5 5 14 9 20 9 7 0 13 9 15
20 3 17 1 18 -8 5 -10 -13 -11 -13 -7 0 2 8 10 15 17 15 7 0 15 6 18 14 3 9 0
11 -9 6 -8 -5 -11 -4 -6 1 5 5 14 9 20 9 5 0 12 6 15 14 3 9 0 11 -9 6 -8 -5
-11 -4 -6 1 5 5 14 9 20 9 5 0 12 6 15 14 3 9 0 11 -9 6 -8 -5 -11 -4 -6 1 5
5 14 9 20 9 5 0 12 6 15 14 3 9 0 11 -9 6 -8 -5 -5 1 5 13 23 26 34 29 15 5
-11 -15 -10 -14 9 1 24 20 30 41 10 31 -7 -4 17 22 53 58 124 121 263 198 438
244 77 20 128 26 261 30 91 3 174 10 185 15 17 9 18 8 7 -3 -7 -8 -39 -17 -70
-20 l-57 -6 53 -2 c47 -1 57 3 83 28 24 25 29 38 29 79 0 44 -4 54 -31 76 -30
25 -34 26 -167 25 -75 -1 -155 -5 -177 -8z"/>
<path d="M8600 4985 c-25 -8 -52 -12 -62 -9 -9 2 -19 0 -23 -5 -4 -7 1 -8 12
-4 10 3 -6 -10 -36 -30 -58 -40 -81 -50 -35 -15 44 32 53 44 19 24 -45 -28
-75 -58 -75 -75 0 -14 1 -14 10 -1 7 12 10 8 10 -15 0 -23 -3 -27 -10 -15 -13
21 -12 4 1 -23 21 -40 62 -77 87 -77 22 0 112 46 112 57 0 3 -20 -7 -44 -21
-54 -32 -87 -33 -112 -4 l-19 22 25 -17 c34 -24 48 -22 126 19 66 34 72 36
154 32 86 -4 175 -31 216 -64 10 -8 12 -12 4 -8 -10 5 -9 0 4 -14 21 -24 31
-29 20 -9 -5 8 -2 8 9 -2 19 -15 23 -26 5 -15 -8 5 -9 2 -4 -12 4 -10 10 -32
14 -49 l6 -30 7 25 c4 15 7 -6 7 -55 0 -44 -5 -98 -13 -120 -7 -22 -13 -33
-14 -25 -1 13 -2 13 -11 0 -5 -8 -10 -22 -10 -30 0 -13 1 -13 10 0 12 18 12 2
0 -25 -6 -14 -9 -15 -10 -5 0 8 -12 -5 -25 -30 -27 -51 -30 -64 -12 -54 7 4 9
3 4 -2 -5 -5 -14 -9 -20 -9 -5 0 -12 -6 -15 -14 -3 -9 0 -11 9 -5 12 7 12 5 0
-9 -7 -9 -16 -15 -20 -13 -3 2 -22 -10 -41 -27 -32 -28 -32 -29 -5 -12 22 14
27 14 18 3 -7 -8 -43 -29 -80 -46 -177 -81 -361 -89 -448 -18 -11 9 2 5 29 -9
27 -14 61 -25 75 -24 18 0 11 4 -22 13 -26 7 -59 24 -73 37 -14 13 -29 23 -32
22 -4 -1 -9 1 -12 4 -3 4 1 3 8 -1 6 -4 12 -4 12 -1 0 13 -23 50 -36 58 -8 4
-13 20 -13 35 l1 27 7 -30 c4 -16 6 15 5 70 -4 130 -6 136 -14 40 l-7 -80 0
87 c0 84 -10 118 -35 118 -6 0 0 -9 13 -20 l24 -20 -30 15 c-39 19 -84 19
-115 -1 l-25 -16 24 21 c13 12 19 21 14 21 -6 0 -16 -8 -24 -17 -21 -25 -17
-231 5 -292 9 -24 14 -46 12 -48 -2 -2 -11 15 -20 39 -11 28 -14 33 -10 13 9
-47 43 -117 53 -111 5 4 13 1 17 -5 4 -8 3 -9 -4 -5 -30 18 -7 -16 41 -61 51
-48 122 -93 148 -93 7 0 -14 13 -47 30 -32 16 -77 48 -99 72 l-40 42 48 -43
c27 -23 74 -55 105 -69 53 -25 66 -27 197 -26 127 0 147 2 220 28 103 36 203
88 262 138 l48 40 -47 -45 c-26 -25 -81 -62 -122 -83 -41 -21 -73 -40 -71 -42
9 -10 153 77 201 121 48 44 73 80 42 61 -7 -4 -8 -3 -4 5 4 6 11 9 16 6 4 -3
12 1 18 8 20 24 74 139 68 144 -3 4 -6 0 -6 -7 0 -7 -2 -11 -5 -8 -3 3 0 18 6
34 6 16 20 58 30 94 11 40 18 55 19 40 l2 -25 8 25 c11 34 11 200 0 225 l-9
20 -1 -20 -1 -20 -9 20 c-5 11 -9 27 -9 35 -1 13 1 13 10 0 9 -12 10 -12 5 3
-3 10 -6 21 -6 23 0 3 -4 3 -9 0 -5 -3 -12 1 -15 10 -4 9 -2 13 5 8 7 -4 10
-1 7 7 -3 8 -10 13 -16 12 -5 -1 -16 5 -24 15 -12 15 -11 16 5 3 9 -7 17 -9
17 -4 0 26 -162 155 -176 140 -3 -2 9 -10 25 -17 17 -7 36 -19 43 -28 10 -11
6 -11 -16 3 -15 10 -62 31 -105 47 -42 16 -61 26 -41 23 19 -4 30 -3 23 2 -21
15 -264 13 -313 -2z"/>
<path d="M1234 3551 c-57 -26 -114 -79 -114 -106 0 -28 36 -81 73 -109 l28
-21 42 23 c55 29 73 28 82 -5 7 -25 8 -26 14 -8 20 52 37 -164 21 -270 -23
-163 -24 -264 -2 -332 11 -35 16 -61 12 -58 -4 3 -16 34 -25 70 -14 50 -17 88
-13 162 3 54 2 87 -2 73 -13 -41 -11 -182 4 -235 17 -64 54 -137 66 -130 5 3
12 0 16 -6 5 -8 3 -9 -6 -4 -8 5 -11 3 -8 -6 3 -8 10 -14 16 -14 5 0 14 -4 19
-9 5 -5 3 -6 -4 -2 -31 17 -8 -16 45 -66 54 -51 164 -118 194 -118 7 0 -23 18
-67 39 -52 26 -96 56 -125 87 l-45 48 51 -46 c133 -120 302 -157 438 -95 31
14 56 24 56 21 0 -3 -26 -17 -57 -32 -49 -23 -71 -27 -146 -27 -67 0 -80 -2
-55 -9 54 -14 143 0 210 32 35 16 114 71 176 121 62 50 124 94 138 97 24 6 75
2 127 -11 22 -6 34 -2 53 16 52 49 68 108 38 145 -8 10 -13 14 -9 7 3 -7 -20
0 -52 14 -119 55 -215 32 -358 -82 -69 -55 -39 -23 40 44 l40 33 -40 -28 c-22
-15 -65 -49 -96 -76 -31 -26 -76 -59 -100 -73 -24 -13 -39 -25 -33 -25 7 0 36
16 65 36 31 21 46 27 35 15 -34 -38 -120 -73 -180 -73 -60 -1 -147 34 -182 73
-11 12 4 6 35 -15 29 -20 58 -36 65 -36 6 1 -5 9 -24 19 -19 11 -46 31 -59 45
-13 14 -27 23 -32 21 -4 -3 -11 0 -15 6 -5 8 -3 9 6 4 8 -5 11 -3 8 6 -3 8
-10 14 -16 14 -5 0 -14 4 -19 9 -5 5 -2 6 6 1 11 -6 13 -3 7 16 -36 114 -37
115 -32 79 3 -19 8 -46 11 -60 3 -14 -1 -10 -9 10 -17 42 -20 147 -5 221 11
60 15 270 6 339 -4 31 -4 37 2 20 7 -20 9 -21 9 -5 1 26 -16 67 -18 45 -1 -10
-4 -9 -10 5 -12 27 -12 43 0 25 7 -10 10 -11 10 -2 0 35 -111 162 -143 162 -6
0 2 -8 18 -19 17 -10 41 -31 55 -47 24 -28 24 -28 -10 2 -50 45 -72 54 -130
54 -57 0 -107 -18 -159 -57 -20 -15 -30 -19 -22 -9 30 36 103 70 170 76 l66 7
-55 1 c-34 1 -70 -5 -96 -17z"/>
</g>
</svg>
