<?xml version="1.0" standalone="no"?>
<!DOCTYPE svg PUBLIC "-//W3C//DTD SVG 20010904//EN"
 "http://www.w3.org/TR/2001/REC-SVG-20010904/DTD/svg10.dtd">
<svg version="1.0" xmlns="http://www.w3.org/2000/svg"
 width="1280.000000pt" height="716.000000pt" viewBox="0 0 1280.000000 716.000000"
 preserveAspectRatio="xMidYMid meet">
<metadata>
Created by potrace 1.16, written by Peter Selinger 2001-2019
</metadata>
<g transform="translate(0.000000,716.000000) scale(0.100000,-0.100000)"
fill="#000000" stroke="none">
<path d="M6261 7140 c-92 -25 -174 -62 -226 -102 -34 -26 -36 -27 -15 -5 14
14 50 40 80 56 62 34 61 42 -1 11 -44 -23 -119 -87 -119 -102 0 -5 5 -6 12 -2
7 4 8 3 4 -5 -4 -6 -11 -9 -16 -6 -11 7 -40 -60 -39 -89 1 -19 2 -18 8 4 5 16
8 2 7 -42 -1 -36 -4 -61 -8 -55 -14 22 -8 -4 7 -33 15 -29 75 -75 128 -98 29
-12 35 -38 17 -72 -22 -41 -71 -58 -257 -84 -101 -15 -227 -35 -280 -46 -103
-20 -418 -108 -394 -109 7 -1 59 12 115 28 201 59 329 85 586 121 168 24 195
33 235 82 15 18 22 24 17 13 -12 -23 -48 -58 -77 -73 -11 -6 -90 -20 -175 -32
-275 -39 -360 -57 -691 -149 -198 -55 -300 -72 -459 -78 -98 -4 -142 -9 -160
-21 l-25 -15 19 21 c17 20 29 22 123 22 101 0 193 10 298 31 81 16 176 42 172
46 -2 2 -42 -6 -88 -17 -126 -31 -272 -50 -383 -50 -95 0 -101 -1 -128 -27
-26 -25 -39 -51 -19 -39 5 4 7 -3 4 -15 -4 -13 -8 -17 -13 -9 -12 20 -20 -17
-18 -83 l1 -62 7 65 c4 36 5 -12 2 -106 -3 -121 -1 -177 7 -195 11 -23 11 -23
-3 -5 -17 21 -22 11 -7 -13 19 -30 84 -41 243 -41 86 0 159 -3 161 -7 7 -10
-332 0 -358 10 l-20 9 20 -14 c14 -9 72 -15 185 -18 l165 -5 -2 -40 c-2 -32 0
-36 7 -20 8 15 8 12 4 -15 -4 -19 -13 -48 -20 -65 -8 -16 -12 -22 -9 -12 3 11
7 31 10 45 4 20 1 17 -8 -8 -22 -56 -30 -88 -18 -70 6 8 11 11 11 5 0 -13 -20
-43 -20 -30 0 11 -20 -16 -20 -28 0 -5 5 -5 12 -1 7 4 8 3 4 -5 -4 -6 -12 -8
-18 -5 -8 5 -9 1 -5 -10 4 -10 3 -15 -3 -11 -11 7 -33 -32 -26 -44 9 -15 -92
-101 -147 -125 -143 -63 -231 -61 -445 14 -105 38 -137 34 -145 -17 l-4 -28
-2 27 c-1 19 7 32 24 44 29 19 44 16 188 -35 148 -53 258 -51 383 4 50 22 150
103 140 113 -3 2 -19 -12 -36 -32 -55 -62 -198 -117 -303 -116 -51 1 -122 18
-246 61 -85 30 -95 32 -119 18 -50 -28 -54 -72 -11 -120 11 -13 17 -17 13 -9
-7 13 -5 13 9 1 18 -15 23 -26 7 -16 -5 3 -10 2 -10 -3 0 -12 25 -33 32 -27 3
3 11 -2 19 -12 9 -11 10 -14 2 -9 -22 12 -14 -10 9 -30 22 -19 23 -19 8 1 -14
18 -14 19 2 6 10 -7 15 -17 13 -22 -3 -4 6 -26 21 -49 30 -45 46 -56 19 -12
-17 26 -17 26 0 10 10 -9 18 -27 19 -40 1 -13 7 -22 14 -21 6 2 9 -3 7 -10 -3
-6 9 -34 25 -62 16 -27 30 -45 30 -40 0 6 5 3 10 -5 5 -8 9 -22 9 -30 0 -10
-3 -8 -9 5 -8 19 -9 19 -9 -2 -1 -13 -7 -23 -13 -24 -7 0 -512 -1 -1123 -1
l-1110 -1 1110 -7 c611 -3 1121 -2 1135 3 21 7 23 6 12 -5 -10 -10 -217 -12
-1105 -10 -601 2 -1163 8 -1250 13 -214 14 -277 1 -364 -73 -34 -29 -35 -29
-13 -5 68 77 148 99 330 93 l135 -5 -120 11 c-179 15 -253 -3 -341 -84 -41
-38 -60 -69 -32 -52 9 5 9 2 -1 -9 -16 -20 -26 -23 -15 -4 5 8 2 8 -9 -2 -19
-15 -23 -36 -5 -25 7 4 8 3 4 -5 -4 -6 -11 -9 -16 -6 -5 3 -16 -5 -24 -17 -19
-27 -21 -42 -3 -32 8 5 8 2 -2 -9 -16 -20 -26 -23 -15 -4 5 8 2 8 -9 -2 -19
-15 -23 -36 -5 -25 7 5 8 3 4 -5 -5 -7 -11 -10 -14 -7 -7 7 -32 -13 -32 -26 0
-6 8 -4 18 3 14 11 13 10 -2 -9 -21 -24 -32 -29 -20 -9 5 8 2 8 -9 -2 -20 -16
-23 -36 -4 -25 6 4 3 -2 -7 -14 -23 -26 -34 -29 -15 -4 23 30 -24 -19 -89 -94
-60 -70 -75 -93 -49 -78 6 4 3 -2 -7 -14 -23 -26 -34 -29 -15 -4 7 9 -1 4 -19
-12 -33 -31 -45 -58 -14 -35 9 7 6 1 -7 -14 -27 -30 -41 -37 -20 -9 11 14 10
13 -9 -2 -23 -20 -31 -42 -10 -30 7 4 2 -5 -11 -19 -14 -15 -27 -25 -29 -22
-7 6 -32 -15 -32 -27 0 -5 6 -6 13 -2 6 4 1 -5 -12 -19 -30 -33 -42 -36 -15
-4 10 12 4 9 -14 -7 -32 -29 -44 -54 -19 -40 6 4 1 -5 -12 -19 -28 -31 -41
-36 -20 -9 8 10 -12 -9 -43 -42 -55 -58 -73 -86 -45 -70 6 4 1 -5 -12 -19 -30
-33 -42 -36 -15 -4 10 12 4 9 -14 -7 -33 -31 -45 -59 -14 -35 9 7 6 1 -7 -14
-27 -30 -41 -37 -20 -9 11 14 10 13 -9 -2 -22 -19 -31 -43 -12 -31 20 12 9 -2
-22 -31 -32 -28 -32 -28 -9 -1 14 15 20 27 15 27 -5 0 -22 -19 -39 -41 -55
-74 -73 -73 -140 10 -22 28 -44 50 -49 51 -6 0 3 -15 20 -32 l29 -33 -38 34
c-36 34 -47 48 -27 36 6 -3 10 -3 10 0 0 11 -191 215 -201 215 -4 0 9 -17 29
-37 21 -21 24 -26 7 -10 -36 31 -70 35 -99 10 -20 -17 -20 -17 -6 1 8 10 23
22 35 26 15 7 16 9 4 9 -10 1 -56 -44 -103 -98 -83 -96 -100 -120 -73 -105 6
4 1 -5 -12 -19 -30 -33 -42 -36 -15 -4 10 12 4 9 -14 -7 -33 -31 -45 -59 -14
-35 9 7 6 1 -7 -14 -27 -30 -41 -37 -20 -9 11 14 10 13 -9 -2 -23 -20 -31 -42
-9 -30 6 4 3 -2 -7 -14 -23 -26 -34 -29 -15 -4 11 14 10 13 -9 -2 -23 -20 -30
-42 -9 -30 10 6 10 4 0 -7 -16 -16 -17 -103 -2 -131 8 -15 8 -19 0 -14 -20 13
-11 -11 11 -30 22 -19 23 -19 8 1 -12 17 -12 18 0 7 8 -7 15 -20 15 -30 0 -9
5 -17 12 -17 6 0 15 -4 20 -9 5 -5 3 -6 -4 -2 -22 12 -14 -10 9 -30 22 -19 23
-19 8 1 -15 20 -14 20 8 1 23 -20 30 -32 12 -21 -17 10 -11 -12 7 -26 15 -12
16 -12 8 1 -8 13 -7 13 8 1 18 -15 23 -26 7 -16 -17 10 -11 -12 7 -26 15 -12
16 -12 8 1 -5 9 0 8 13 -4 25 -21 31 -36 7 -16 -24 20 -17 -5 7 -26 13 -12 18
-13 13 -4 -5 9 0 8 13 -4 25 -21 31 -36 7 -16 -8 7 -15 8 -15 3 0 -5 24 -32
53 -60 69 -67 103 -69 165 -10 40 39 56 66 30 51 -7 -4 -4 2 6 14 23 26 34 29
15 5 -11 -15 -10 -14 9 1 23 20 31 42 9 30 -6 -4 -3 2 7 14 23 26 34 29 15 5
-7 -10 1 -5 19 11 36 33 44 60 10 30 -21 -17 -21 -16 1 9 26 29 37 35 25 15
-4 -7 2 -4 14 6 26 23 30 44 5 25 -10 -7 -7 -1 6 14 27 30 41 37 20 10 -7 -10
1 -5 19 11 33 31 45 59 15 35 -15 -11 -14 -10 1 9 25 29 47 28 77 -5 13 -14
18 -23 10 -18 -27 15 -5 -13 73 -96 44 -46 75 -77 71 -69 -5 10 -1 8 13 -4 25
-21 31 -36 7 -16 -27 22 -16 -6 12 -31 20 -18 24 -19 13 -4 -15 20 -14 20 8 1
23 -20 30 -32 12 -21 -21 13 -9 -13 17 -36 20 -18 24 -19 13 -4 -15 20 -14 20
8 1 23 -20 30 -32 12 -21 -19 12 -10 -12 12 -31 22 -19 23 -19 8 1 -15 20 -14
20 8 1 23 -20 30 -32 12 -21 -19 12 -10 -12 12 -31 22 -19 23 -19 8 1 -15 20
-14 20 8 1 23 -20 30 -32 12 -21 -19 12 -10 -12 12 -31 22 -19 23 -19 8 1 -11
15 -7 14 13 -4 28 -25 38 -43 12 -21 -24 20 -17 -5 7 -26 13 -12 18 -13 13 -4
-5 9 0 8 13 -4 25 -21 31 -36 7 -16 -24 20 -17 -5 7 -26 13 -12 18 -13 13 -4
-5 9 0 8 13 -4 25 -21 31 -36 7 -16 -8 7 -15 8 -15 3 0 -13 35 -45 42 -38 3 3
11 -3 19 -12 13 -16 12 -17 -4 -4 -25 20 -21 -2 5 -25 13 -12 18 -13 13 -4 -5
9 0 8 13 -4 25 -21 31 -36 7 -16 -27 22 -16 -6 12 -31 20 -18 24 -19 13 -4
-15 20 -14 20 8 1 23 -20 30 -32 12 -21 -17 10 -11 -12 7 -26 15 -12 16 -12 8
1 -5 9 0 8 13 -4 25 -21 31 -36 7 -16 -24 20 -17 -5 7 -26 13 -12 18 -13 13
-4 -5 9 0 8 13 -4 25 -21 31 -36 7 -16 -24 20 -17 -5 7 -26 13 -12 18 -13 13
-4 -8 13 -7 13 8 1 18 -15 23 -26 7 -16 -5 3 -10 2 -10 -3 0 -12 25 -33 32
-27 3 3 11 -2 19 -12 9 -11 10 -14 2 -9 -22 12 -14 -10 9 -30 22 -19 23 -19 8
1 -15 20 -14 20 8 1 23 -20 30 -32 12 -21 -5 3 -10 2 -10 -3 0 -19 112 -112
148 -122 49 -15 1290 -21 2017 -11 461 7 355 8 -715 8 -912 0 -1266 4 -1297
12 -25 7 -60 29 -90 57 l-48 46 49 -41 c27 -23 67 -46 90 -52 45 -12 2309 -14
2572 -3 79 4 144 3 147 -2 3 -5 -31 -9 -76 -8 l-82 1 73 -4 c66 -4 72 -6 73
-26 0 -21 1 -21 9 -2 6 14 9 15 9 5 1 -9 -8 -23 -19 -33 -11 -9 -20 -22 -20
-29 0 -6 7 -3 15 8 14 18 15 17 4 -8 -7 -15 -15 -25 -19 -23 -5 3 -11 -2 -14
-11 -8 -22 -8 -26 4 -19 6 3 7 -1 4 -9 -3 -9 -11 -14 -17 -13 -6 1 -12 -7 -14
-18 -3 -17 -2 -18 7 -5 10 13 11 13 7 0 -2 -8 -10 -15 -18 -15 -8 0 -14 -10
-13 -22 0 -12 -4 -21 -9 -20 -5 1 -12 -4 -15 -12 -3 -9 0 -11 9 -6 8 5 11 4 6
-1 -5 -5 -12 -9 -15 -9 -9 -1 -142 -140 -142 -149 0 -4 3 -5 8 -3 4 3 7 -17 7
-43 0 -26 -3 -46 -7 -43 -18 10 -6 -13 19 -39 27 -28 66 -37 78 -17 7 10 171
90 214 104 12 4 20 9 18 12 -8 7 -214 -87 -228 -103 -17 -21 -54 -17 -75 9
-19 22 -19 22 2 4 23 -19 59 -23 70 -6 7 12 150 81 219 106 53 19 138 18 216
-2 81 -21 127 -45 164 -87 l30 -33 -35 31 c-67 61 -174 95 -286 92 l-69 -1 85
-7 c146 -11 233 -45 275 -108 14 -20 30 -37 37 -37 6 0 13 -7 15 -15 4 -13 3
-13 -6 0 -9 13 -11 13 -11 -2 0 -10 9 -25 20 -36 19 -18 51 -139 49 -185 -1
-12 -7 5 -15 38 -8 37 -11 45 -9 20 3 -22 5 -53 5 -68 0 -19 4 -26 13 -22 6 4
1 -3 -12 -14 -21 -19 -35 -21 -140 -19 l-116 2 122 5 c67 3 125 10 130 15 5 5
1 7 -10 3 -9 -4 -87 -7 -172 -8 l-155 -2 -35 -38 c-30 -34 -35 -45 -33 -87 l1
-47 6 45 c4 25 7 -46 6 -156 0 -111 -3 -197 -7 -190 -5 8 -8 7 -8 -3 0 -7 17
-31 39 -52 l39 -39 158 0 c175 0 249 -10 471 -65 172 -42 491 -107 505 -103 5
2 -75 21 -179 41 -103 21 -251 53 -328 72 -217 54 -294 65 -467 65 l-158 0
-32 31 -33 31 33 -26 c33 -26 36 -26 190 -26 177 0 236 -9 509 -74 103 -25
273 -61 378 -81 104 -20 221 -42 260 -50 38 -8 81 -16 95 -18 l25 -4 -26 -2
c-14 0 -68 8 -119 19 -51 11 -103 20 -114 19 -18 -1 44 -14 252 -55 20 -4 22
-10 22 -67 l0 -63 -60 -52 c-33 -29 -60 -58 -60 -63 0 -6 5 -7 12 -3 7 4 8 3
4 -5 -4 -6 -12 -9 -17 -6 -13 9 -29 -40 -28 -83 2 -35 2 -34 8 10 9 60 20 73
14 16 -3 -27 1 -58 11 -83 13 -33 13 -37 1 -21 -8 11 -15 24 -15 30 0 5 -3 7
-6 4 -8 -9 26 -69 36 -63 5 3 12 0 16 -6 4 -8 3 -9 -4 -5 -7 4 -12 3 -12 -2 0
-28 182 -164 217 -162 4 1 -17 14 -48 30 -30 16 -78 50 -105 75 l-49 47 50
-42 c69 -58 149 -96 274 -131 58 -16 88 -26 66 -23 -22 3 -37 3 -33 -1 4 -4
46 -9 94 -11 79 -4 95 -1 188 32 152 55 254 100 292 129 19 14 34 24 34 21 0
-16 -92 -69 -176 -102 -51 -21 -92 -39 -90 -41 5 -5 122 39 174 66 46 24 112
78 112 93 0 5 -6 6 -12 2 -8 -4 -10 -3 -5 2 5 5 14 9 19 9 6 0 13 6 16 14 3 8
0 11 -5 8 -6 -4 -8 4 -5 21 5 24 6 24 12 7 13 -33 21 44 10 85 -9 32 -9 31 -5
-15 5 -56 -7 -29 -18 40 -4 27 -3 35 3 25 15 -23 12 -2 -4 28 -21 40 -76 89
-120 107 -21 9 -40 14 -42 12 -3 -2 15 -12 39 -21 24 -9 57 -31 73 -49 l29
-32 -30 27 c-16 15 -51 36 -76 47 -26 10 -50 25 -54 32 -5 8 -4 10 3 5 8 -5
12 4 11 31 -1 38 -1 38 -9 8 -7 -28 -8 -28 -9 -5 -1 33 40 72 93 87 l41 12
-45 -5 c-25 -4 -52 -11 -60 -17 -11 -8 -10 -6 1 7 14 15 37 19 145 22 71 1
156 6 189 9 183 20 501 82 675 131 241 69 267 74 402 74 l126 0 26 31 c14 17
26 27 26 23 0 -4 -12 -21 -27 -36 -26 -28 -29 -28 -144 -28 -134 0 -165 -5
-379 -66 -236 -67 -597 -133 -795 -147 l-50 -3 52 -2 c124 -5 536 69 793 142
213 61 244 66 378 66 77 1 122 5 132 13 35 27 60 71 59 101 l-1 31 -9 -30 c-6
-21 -7 -16 -2 20 3 28 7 121 8 207 l3 158 -30 25 c-30 25 -34 26 -157 23 -70
-1 -133 2 -141 6 -12 7 -13 7 -2 -5 10 -11 42 -13 141 -11 127 3 129 2 158
-24 l28 -26 -29 22 c-28 19 -40 21 -158 18 -123 -3 -128 -2 -150 21 -13 13
-18 21 -12 18 8 -4 10 9 6 43 -3 31 2 68 12 99 19 59 20 64 4 55 -7 -4 -8 -3
-4 5 4 6 11 9 16 6 4 -3 15 6 24 20 21 32 20 41 -1 24 -16 -13 -17 -12 -4 4 8
9 16 15 19 12 7 -7 42 25 42 38 0 6 -8 4 -18 -4 -10 -8 4 8 32 34 108 102 240
138 376 102 71 -18 220 -92 266 -132 l29 -25 -30 20 c-45 28 -55 34 -55 29 0
-2 54 -41 119 -86 115 -78 149 -92 181 -71 10 6 4 8 -21 4 -32 -6 -46 0 -113
45 -42 28 -76 54 -76 57 0 2 34 -18 75 -46 41 -27 84 -50 97 -50 36 0 51 15
46 44 -3 15 -1 23 5 19 5 -3 8 0 5 8 -3 8 -10 14 -16 14 -6 0 -17 7 -24 15
-11 12 -11 12 5 1 25 -19 21 2 -5 25 -12 10 -18 13 -14 7 10 -19 1 -16 -15 4
-10 11 -10 14 -1 9 21 -12 13 10 -10 30 -22 19 -23 19 -8 -1 15 -20 14 -20 -8
-1 -23 20 -30 32 -12 21 17 -10 11 12 -7 26 -11 10 -14 10 -9 2 11 -19 1 -16
-15 4 -10 11 -10 14 -1 9 6 -4 12 -3 12 3 0 10 -19 26 -32 26 -3 0 -10 4 -15
9 -5 5 -3 6 5 2 15 -9 15 -1 1 25 -5 11 -14 17 -19 14 -5 -3 -12 0 -16 6 -4 8
-3 9 4 5 7 -4 12 -4 12 1 0 15 -19 38 -31 38 -7 0 -14 7 -16 15 -4 13 -3 13 6
0 20 -28 11 0 -18 58 -15 31 -36 79 -46 105 -10 26 -21 43 -25 37 -4 -6 -12 7
-18 28 -16 53 -14 65 4 22 l14 -35 -4 32 c-3 19 -1 33 7 37 7 2 3 5 -8 6 -239
20 1804 11 2184 -10 226 -12 252 -7 319 53 38 33 41 35 17 8 -16 -18 -43 -42
-60 -52 -16 -11 -25 -19 -19 -19 5 0 24 10 41 23 48 35 109 114 71 91 -9 -5
-9 -2 1 9 16 20 25 23 15 5 -4 -7 2 -4 14 6 26 23 30 44 5 25 -15 -11 -14 -10
1 9 21 24 31 29 20 10 -4 -7 2 -4 14 6 26 23 30 44 5 25 -15 -11 -14 -10 1 9
21 24 31 29 20 9 -4 -6 2 -3 14 7 26 23 30 45 5 25 -16 -13 -17 -12 -4 4 8 9
16 15 19 12 7 -6 32 15 32 27 0 5 -6 6 -12 2 -7 -4 -4 2 6 14 23 26 34 29 15
5 -7 -10 -1 -7 14 6 30 27 38 52 10 30 -10 -7 -7 -1 6 14 27 30 41 37 20 10
-11 -15 -10 -14 9 1 23 20 31 42 10 30 -7 -4 -4 2 6 14 23 26 34 29 15 5 -7
-10 1 -5 19 11 33 31 45 58 15 35 -10 -7 -7 -1 6 14 27 30 41 37 20 10 -11
-15 -10 -14 9 1 23 20 31 42 10 30 -7 -4 -4 2 6 14 23 26 34 29 15 5 -7 -10 1
-5 19 11 33 31 45 58 15 35 -10 -7 -7 -1 6 14 27 30 41 37 20 10 -11 -15 -10
-14 9 1 23 20 31 42 10 30 -7 -4 -4 2 6 14 23 26 34 29 16 5 -7 -10 10 7 38
37 49 53 65 79 40 64 -7 -4 -4 2 6 14 23 26 34 29 16 5 -7 -10 10 7 38 37 49
53 65 79 40 64 -7 -4 -4 2 6 14 23 26 34 29 16 5 -7 -10 10 7 38 37 50 54 69
85 35 59 -15 -11 -14 -10 1 9 21 24 31 29 20 10 -4 -7 2 -4 14 6 26 23 30 44
5 25 -10 -7 -7 -1 6 14 27 30 41 37 20 10 -11 -15 -10 -14 9 1 23 20 31 42 10
30 -7 -4 -2 5 11 19 24 26 37 36 27 19 -3 -5 9 -9 25 -9 31 0 31 0 7 13 -12 7
-18 13 -12 14 7 0 22 -9 35 -21 13 -11 18 -17 10 -13 -9 4 -12 2 -9 -7 3 -8
10 -14 16 -14 6 0 17 -7 24 -15 11 -12 11 -12 -4 -1 -26 19 -22 -2 4 -25 13
-12 18 -13 13 -4 -8 13 -7 13 8 1 19 -15 23 -26 6 -15 -7 4 -10 1 -7 -7 3 -8
10 -14 15 -14 6 0 15 -4 20 -9 5 -5 3 -6 -4 -2 -19 11 -16 -9 4 -25 15 -12 16
-12 8 1 -8 13 -7 13 8 1 18 -15 23 -26 7 -16 -21 13 -9 -13 17 -36 20 -18 24
-19 13 -4 -14 18 -14 19 2 7 9 -8 15 -19 12 -26 -6 -14 88 -106 109 -106 18 0
66 37 110 86 41 46 49 68 15 38 l-23 -19 19 22 c10 12 23 21 28 20 6 -1 13 4
16 12 3 9 0 11 -9 6 -8 -5 -5 1 5 13 23 26 34 29 15 5 -11 -15 -10 -14 9 1 22
19 31 43 12 31 -16 -10 -11 1 7 16 15 12 16 12 8 -1 -5 -9 0 -8 13 4 26 23 30
44 5 25 -15 -11 -14 -10 1 9 21 24 31 29 20 10 -4 -7 2 -4 14 6 26 23 30 45 5
25 -16 -13 -17 -12 -4 3 7 10 17 16 21 13 29 -18 55 140 28 173 -11 13 -11 14
1 8 9 -6 12 -4 9 5 -3 8 -10 14 -16 14 -6 0 -17 7 -24 15 -11 12 -11 12 5 1
35 -27 15 6 -41 65 -31 33 -48 49 -37 35 l20 -26 -27 24 c-15 13 -24 29 -22
35 3 7 -6 21 -18 32 -23 19 -23 19 -8 -1 11 -15 7 -14 -13 4 -28 25 -38 43
-12 21 8 -7 15 -9 15 -5 0 11 -111 135 -122 135 -5 0 1 -10 14 -23 13 -12 17
-17 8 -11 -33 25 -56 24 -96 -1 l-39 -25 35 30 c19 16 29 30 24 30 -15 0 -180
-181 -176 -193 1 -5 -1 -6 -6 -3 -5 3 -22 -8 -37 -24 -16 -17 -25 -30 -21 -30
5 0 3 -7 -4 -15 -22 -27 -63 -18 -101 23 l-34 37 35 -32 c34 -31 82 -44 94
-25 3 5 -9 6 -26 4 -27 -4 -37 1 -71 39 -21 24 -35 37 -31 29 5 -10 0 -9 -14
4 -25 21 -31 36 -7 16 33 -28 11 8 -37 60 -28 30 -45 46 -37 35 14 -20 13 -20
-9 -1 -23 20 -30 32 -12 21 19 -12 10 12 -12 31 -22 19 -23 19 -8 -1 11 -15 7
-14 -13 4 -28 25 -38 43 -12 21 24 -20 17 5 -7 26 -13 12 -18 13 -13 4 5 -9 0
-8 -13 4 -25 21 -31 36 -7 16 33 -28 11 8 -37 60 -28 30 -45 46 -37 35 14 -20
13 -20 -9 -1 -23 20 -30 32 -12 21 19 -12 10 12 -12 31 -22 19 -23 19 -8 -1
11 -15 7 -14 -13 4 -28 25 -38 43 -12 21 24 -20 17 5 -7 26 -13 12 -18 13 -13
4 8 -13 7 -13 -8 -1 -18 15 -23 26 -7 16 6 -3 10 -2 10 3 0 12 -25 33 -32 27
-3 -3 -13 5 -24 17 -15 18 -16 20 -1 9 25 -19 21 2 -5 25 -14 12 -18 14 -13 4
4 -8 -4 -4 -18 9 -15 14 -27 27 -27 29 0 3 9 -3 20 -13 11 -10 20 -14 20 -8 0
5 -14 22 -32 39 -18 16 -26 20 -18 9 15 -20 14 -20 -8 -1 -23 20 -30 32 -12
21 19 -12 10 12 -12 31 -22 19 -23 19 -8 -1 15 -20 14 -20 -8 -1 -23 20 -30
32 -12 21 19 -12 10 12 -12 31 -22 19 -23 19 -8 -1 15 -20 14 -20 -8 -1 -23
20 -30 32 -12 21 19 -12 10 12 -12 31 -22 19 -23 19 -8 -1 15 -20 14 -20 -8
-1 -23 20 -30 32 -12 21 19 -12 10 12 -12 31 -22 19 -23 19 -8 -1 15 -20 14
-20 -8 -1 -23 20 -30 32 -12 21 19 -12 10 12 -12 31 -19 15 -20 16 -9 2 23
-30 7 -20 -25 14 -16 18 -19 24 -6 14 12 -11 22 -15 22 -9 0 10 -84 85 -103
92 -6 2 3 -9 19 -25 17 -16 21 -21 9 -12 -60 50 -39 49 -1115 52 -876 2 -910
2 -270 -3 l735 -6 -700 -2 c-839 -1 -1249 7 -1266 24 -10 10 -6 11 22 3 18 -6
131 -9 249 -8 l215 2 -235 6 c-129 4 -236 7 -237 8 -2 1 -3 11 -3 23 0 13 -4
18 -12 13 -7 -4 -8 -3 -4 5 4 6 11 9 16 6 5 -3 17 9 26 27 9 18 34 59 56 91
21 31 36 61 33 66 -3 6 0 13 6 17 8 5 9 3 4 -7 -8 -12 -6 -12 8 0 20 16 23 36
5 25 -9 -5 -9 -2 1 9 16 20 26 23 15 5 -5 -9 -2 -9 9 1 20 16 23 36 5 25 -8
-4 -10 -3 -5 2 5 5 14 9 19 9 6 0 13 6 16 14 3 9 0 11 -9 6 -8 -5 -11 -4 -6 1
5 5 14 9 19 9 6 0 13 6 16 14 3 9 0 11 -9 6 -8 -5 -11 -4 -6 1 5 5 14 9 19 9
6 0 13 6 16 14 3 9 0 11 -9 6 -8 -5 -11 -4 -6 1 5 5 14 9 19 9 6 0 13 6 16 14
3 9 0 11 -9 6 -8 -5 -11 -4 -6 1 5 5 14 9 19 9 6 0 13 6 16 14 3 8 0 11 -7 7
-7 -5 -9 -1 -5 8 3 9 10 14 14 11 5 -3 15 8 23 25 14 27 14 30 -5 35 -24 8
-110 -11 -158 -35 -106 -53 -242 -76 -354 -61 -84 12 -174 43 -208 72 -18 15
-13 14 22 -5 73 -39 156 -59 255 -59 102 -1 173 13 262 54 34 15 87 33 118 40
30 7 53 14 51 17 -9 8 -108 -20 -170 -48 -88 -39 -157 -53 -265 -52 -150 1
-273 50 -353 141 -18 20 -35 36 -39 36 -4 0 -11 4 -16 9 -5 5 -3 6 5 2 17 -10
15 -2 -6 34 -10 16 -21 28 -24 25 -16 -17 -51 144 -37 167 5 8 9 -9 11 -42 l1
-55 6 60 6 60 140 0 c183 1 179 0 220 36 31 27 50 59 26 45 -5 -3 -4 13 1 37
9 38 8 80 -7 267 -3 44 -2 48 4 20 l8 -35 2 33 c1 42 -19 91 -52 120 -30 28
-76 36 -342 57 -215 17 -278 29 -455 85 -118 37 -222 64 -160 41 71 -26 294
-93 355 -106 39 -8 156 -22 260 -30 269 -22 314 -29 339 -57 20 -21 20 -21 1
-5 -28 22 -97 34 -235 42 -245 13 -371 34 -546 91 -100 33 -291 81 -587 150
-64 15 -116 29 -113 31 2 2 36 -4 75 -13 40 -9 74 -14 77 -11 7 7 -154 39
-165 33 -5 -4 -13 -1 -17 5 -4 8 -3 9 4 5 8 -5 12 5 12 32 0 40 -33 97 -50 87
-21 -13 -20 19 0 39 13 11 19 15 15 7 -5 -9 -3 -12 6 -9 8 3 14 10 14 15 0 6
4 15 9 20 5 5 6 3 2 -4 -15 -27 12 -11 53 31 29 30 42 50 37 61 -3 9 -2 14 3
11 5 -3 12 1 15 10 9 23 7 31 -3 15 -6 -8 -7 3 -4 30 3 28 -1 58 -10 82 -9 20
-14 37 -12 37 10 0 28 -46 35 -89 6 -39 8 -41 9 -13 2 72 -49 146 -131 188
-68 34 -73 29 -8 -7 30 -16 64 -39 75 -51 11 -11 1 -7 -23 10 -44 31 -140 72
-247 104 -49 15 -53 17 -20 13 25 -3 33 -2 20 3 -11 5 -101 9 -200 10 -151 1
-192 -2 -254 -18z m517 -130 c42 -16 91 -41 107 -55 l30 -26 -43 27 c-23 15
-45 24 -49 20 -3 -3 -1 -6 5 -6 6 0 24 -12 41 -26 22 -18 31 -35 31 -55 0 -21
4 -28 13 -24 6 4 -2 -7 -19 -23 -55 -51 -132 -73 -289 -82 -204 -11 -389 0
-442 28 -23 12 -45 27 -49 34 -4 6 3 4 17 -5 35 -25 46 -21 20 7 -13 14 -21
32 -18 43 4 16 5 15 6 -3 4 -76 176 -112 456 -94 101 6 92 7 -100 9 -115 2
-214 3 -219 2 -5 -1 -4 5 3 13 7 9 18 14 24 13 7 -1 13 13 14 33 l1 35 -8 -30
-8 -30 -1 33 c0 17 4 32 10 32 5 0 7 5 4 10 -4 6 -1 9 6 8 6 -2 14 3 17 11 3
9 0 11 -9 7 -8 -4 -2 3 12 15 15 12 76 41 135 65 138 55 191 57 302 14z m-34
-409 l28 -29 -23 -15 c-18 -11 -66 -16 -192 -19 -157 -4 -168 -3 -185 16 -9
11 -11 16 -3 11 9 -5 12 -3 9 6 -3 8 -10 13 -16 12 -5 -1 -16 5 -24 15 -12 15
-11 16 5 3 11 -9 17 -10 17 -2 0 8 53 11 177 11 153 0 179 -2 197 -17 21 -18
21 -18 2 4 -18 22 -26 23 -220 26 l-201 2 201 3 200 2 28 -29z m71 -197 c71
-9 132 -18 135 -21 3 -3 -20 -2 -50 2 -30 4 -86 10 -125 13 -98 9 -580 14
-573 7 5 -6 247 -15 738 -30 58 -2 173 -15 255 -30 143 -25 186 -39 154 -49
-14 -4 -652 -20 -1304 -31 -176 -3 -332 -2 -347 2 -15 4 157 9 385 11 638 4
980 22 953 49 -2 3 -7 4 -10 4 -4 -1 -19 5 -34 13 -46 24 -354 39 -632 32
-578 -15 -605 -15 -560 -6 25 5 74 7 110 5 53 -3 57 -2 25 4 -37 8 -38 8 -10
11 17 1 82 8 145 15 174 19 587 18 745 -1z m260 -274 c165 -6 510 -10 767 -10
257 0 469 -4 472 -8 3 -5 -7 -7 -22 -6 -53 6 -1373 12 -1368 7 3 -3 315 -8
693 -12 l688 -6 3 -65 c2 -36 1 -79 -3 -97 -6 -31 -6 -31 -79 -38 -103 -10
-2690 12 -3150 27 -347 11 -380 13 -400 31 -11 10 -16 16 -11 13 7 -3 10 17 7
58 -3 47 0 65 12 75 32 27 235 31 1196 27 l975 -4 -750 9 c-930 12 -1343 8
-1402 -13 -47 -17 -56 -16 -21 3 12 6 56 15 97 20 96 10 1897 1 2296 -11z
m155 -368 c219 -7 270 -16 270 -43 0 -6 -7 -3 -16 5 -17 18 -69 22 -59 6 4 -6
15 -8 25 -5 12 4 22 0 28 -12 8 -13 10 -1045 3 -1171 -1 -8 -10 -12 -23 -10
-28 4 -32 37 -14 103 8 28 15 41 16 30 l1 -20 9 20 c5 11 8 31 8 45 l0 25 -8
-25 c-7 -19 -8 -14 -5 20 2 25 7 239 11 476 6 393 5 434 -11 464 -9 18 -12 29
-6 26 6 -4 11 -2 11 3 0 6 -9 11 -20 11 -11 0 -20 -6 -20 -12 0 -10 -2 -10 -9
0 -7 11 -10 10 -15 -3 -9 -24 -8 -43 2 -28 4 6 6 -53 4 -130 -4 -227 -8 -245
-12 -57 l-4 175 -6 -180 c-3 -99 -1 -186 4 -192 14 -21 1 -15 -20 9 -10 12
-13 18 -5 13 9 -5 12 -3 9 6 -3 8 -10 14 -15 14 -6 0 -15 4 -20 9 -5 5 -2 6 6
1 9 -5 12 -3 9 6 -3 8 -10 13 -16 12 -6 -2 -9 3 -7 10 7 16 -33 80 -44 72 -5
-3 -13 0 -17 6 -4 8 -3 9 4 5 23 -14 12 11 -15 35 l-28 24 20 -25 c11 -13 -16
8 -59 48 -127 117 -334 203 -531 222 l-80 7 107 0 c59 0 110 2 113 5 3 3 -261
6 -586 7 -326 1 -591 -1 -588 -4 3 -2 194 -6 425 -7 230 -2 390 -4 354 -5
-204 -8 -382 -61 -520 -157 -25 -17 -49 -29 -54 -28 -11 4 -156 -138 -156
-151 0 -5 8 -3 18 4 15 11 15 11 4 -1 -7 -8 -18 -15 -24 -15 -6 0 -13 -6 -16
-14 -3 -9 0 -11 9 -6 8 5 11 4 6 -1 -5 -5 -14 -9 -19 -9 -6 0 -13 -6 -16 -14
-3 -9 0 -11 8 -6 9 5 11 4 6 -4 -4 -6 -11 -9 -16 -6 -5 3 -16 -8 -25 -24 -18
-36 -19 -45 -3 -35 7 4 8 3 4 -5 -4 -6 -11 -9 -16 -6 -7 5 -41 -65 -55 -115
-5 -19 -4 -21 4 -10 10 13 11 13 10 0 0 -8 -4 -24 -9 -35 l-9 -20 -1 20 c-2
17 -3 16 -10 -5 -11 -35 -11 -60 1 -35 6 13 6 5 2 -25 -4 -25 -7 -106 -5 -180
1 -74 -4 -180 -11 -235 -12 -94 -12 -76 -15 286 -1 330 0 386 13 386 8 0 12
-3 10 -6 -2 -4 3 -14 10 -24 11 -15 14 -16 25 -2 11 13 10 15 -6 9 -15 -5 -16
-4 -4 4 8 6 17 9 22 6 13 -9 29 37 25 74 l-4 37 -1 -42 c-1 -23 -6 -44 -11
-47 -5 -4 -7 2 -5 11 3 10 11 108 19 218 l14 200 -3 -160 c-3 -114 -2 -139 4
-85 13 130 12 262 -2 255 -7 -4 -4 1 7 10 18 15 76 16 705 11 377 -4 786 -10
910 -14z m-2015 -33 c6 -6 9 -144 9 -377 l-2 -367 9 350 c4 193 6 356 4 363
-3 8 0 10 7 6 8 -5 9 -54 4 -173 -4 -91 -9 -832 -12 -1646 -3 -814 -9 -1685
-13 -1935 -6 -353 -7 -239 -5 510 l2 965 -9 -730 c-4 -401 -10 -838 -11 -970
-2 -132 -4 398 -6 1178 l-2 1417 -24 0 c-19 0 -25 -7 -31 -32 -4 -18 -9 -222
-11 -453 -11 -1122 -25 -2121 -31 -2223 -3 -62 -10 -109 -14 -105 -17 17 15
3977 33 4178 1 11 4 -7 8 -40 l7 -60 1 63 c3 82 15 106 50 97 15 -3 32 -11 37
-16z m2595 4 c-64 -6 -69 -18 -7 -18 48 0 52 -2 55 -25 5 -39 3 -351 -9 -1255
-6 -456 -8 -1075 -4 -1375 5 -369 4 -610 -4 -745 -14 -240 -19 -848 -8 -832 6
8 7 8 5 -2 -2 -8 -12 -15 -22 -17 -13 -2 -16 2 -10 14 4 9 11 391 15 847 21
2394 31 3254 36 3292 5 35 2 45 -20 67 -32 32 -47 33 -47 4 0 -17 -3 -19 -9
-10 -7 11 -10 10 -15 -3 -10 -27 -7 -42 5 -25 9 12 9 11 3 -5 -13 -34 -22
-681 -23 -1765 -1 -1005 -14 -2014 -30 -2245 -4 -60 -7 448 -6 1130 1 1057 0
1154 -7 660 -4 -319 -7 -893 -6 -1277 2 -383 0 -694 -4 -691 -16 9 -5 2078 20
3773 6 356 10 454 20 453 6 -2 12 4 12 13 0 9 -5 12 -12 8 -7 -4 -4 2 6 14 15
17 29 22 65 20 l46 -1 -45 -4z m-2311 -243 c-5 -124 -8 -624 -7 -1111 0 -487
-2 -891 -6 -897 -4 -6 -12 -265 -18 -574 -6 -310 -12 -621 -14 -693 -2 -71 -5
-213 -5 -315 l-2 -185 -7 130 c-3 72 -3 247 2 390 4 143 8 377 8 520 0 143 5
357 11 475 6 118 14 710 19 1315 8 956 13 1187 25 1173 1 -2 -1 -104 -6 -228z
m2380 -1486 c-5 -918 -11 -1678 -13 -1689 -3 -11 -6 -194 -7 -406 -1 -225 -5
-392 -11 -400 -6 -9 -6 43 -2 141 4 85 8 646 8 1245 1 600 3 928 6 730 4 -258
7 -83 10 620 3 539 5 1089 5 1222 0 133 3 234 7 224 3 -10 2 -769 -3 -1687z
m-377 446 c-8 -217 -8 185 0 1005 2 138 4 18 5 -265 2 -283 -1 -616 -5 -740z
m-877 1170 c152 -14 278 -61 410 -155 70 -50 198 -182 190 -195 -8 -13 14 -52
25 -45 5 3 12 0 16 -6 4 -8 3 -9 -4 -5 -17 10 -15 3 10 -48 12 -25 25 -43 29
-40 15 9 41 -100 46 -191 7 -109 -16 -239 -47 -267 -11 -10 -20 -24 -20 -30 0
-7 7 -3 15 8 14 18 15 17 4 -8 -7 -15 -15 -25 -19 -23 -9 6 -42 -64 -35 -75 3
-5 0 -12 -6 -16 -8 -5 -9 -3 -4 7 8 12 6 12 -8 0 -20 -16 -23 -36 -4 -25 7 4
9 3 4 -2 -5 -5 -12 -9 -15 -9 -13 0 -32 -16 -32 -27 0 -7 6 -6 15 2 24 20 18
5 -7 -16 -13 -12 -18 -13 -13 -4 5 9 0 8 -13 -4 -26 -23 -30 -44 -4 -25 50 39
-45 -53 -118 -114 -47 -39 -143 -127 -215 -196 l-130 -125 131 132 c72 73 128
132 125 132 -14 0 -271 -267 -264 -274 4 -4 2 -6 -6 -4 -7 1 -16 -3 -19 -11
-3 -8 0 -11 7 -7 19 12 12 0 -16 -25 -14 -13 -22 -17 -18 -9 5 10 1 8 -13 -4
-26 -23 -30 -44 -4 -25 15 11 15 11 4 -1 -7 -8 -18 -15 -24 -15 -6 0 -13 -6
-16 -14 -3 -9 0 -11 9 -6 8 5 11 4 6 -1 -5 -5 -14 -9 -20 -9 -7 0 -12 -10 -11
-22 0 -12 -3 -20 -8 -17 -9 6 -25 -30 -33 -74 -3 -15 2 -8 11 16 9 24 18 41
20 39 2 -2 -3 -24 -11 -48 -9 -24 -20 -84 -25 -134 l-9 -90 3 95 c2 55 0 84
-4 70 -10 -32 -10 -146 0 -185 7 -28 8 -29 10 -5 1 17 7 6 19 -35 10 -33 27
-79 39 -102 12 -24 20 -43 17 -43 -6 0 -44 74 -60 119 -8 20 -14 29 -14 21 -1
-25 68 -162 78 -155 5 3 13 0 17 -6 5 -8 3 -9 -6 -4 -8 5 -11 3 -8 -6 3 -8 10
-14 15 -14 6 0 15 -4 20 -9 5 -5 3 -6 -4 -2 -22 12 -14 -10 9 -30 22 -19 23
-19 8 1 -8 11 0 7 18 -9 18 -17 32 -32 32 -34 0 -3 -9 3 -20 13 -11 10 -20 14
-20 8 0 -5 9 -18 20 -28 11 -10 20 -14 20 -9 0 5 54 -45 120 -111 66 -66 120
-123 120 -128 0 -4 -13 7 -30 25 -16 18 -29 29 -29 23 0 -15 46 -65 61 -66 7
0 1 -5 -14 -10 -33 -12 -99 4 -119 28 -12 14 -12 16 0 9 9 -6 12 -4 9 5 -3 8
-10 14 -15 14 -6 0 -15 4 -20 9 -5 5 -2 6 6 1 9 -5 12 -3 9 6 -3 8 -10 14 -15
14 -6 0 -15 4 -20 9 -5 5 -2 6 6 1 9 -5 12 -3 9 6 -3 8 -10 14 -15 14 -6 0
-15 4 -20 9 -5 5 -2 6 6 1 9 -5 12 -3 9 6 -3 8 -10 14 -15 14 -6 0 -15 4 -20
9 -5 5 -3 6 5 2 18 -11 15 9 -5 25 -15 12 -16 12 -8 -1 8 -13 7 -13 -8 -1 -19
15 -23 26 -6 15 7 -4 10 -1 7 7 -3 8 -10 14 -16 14 -6 0 -17 6 -24 14 -11 11
-11 13 1 6 9 -5 12 -3 9 6 -3 8 -10 13 -16 12 -5 -1 -16 5 -24 14 -9 12 -9 15
0 9 6 -4 12 -2 12 3 0 6 -7 11 -16 11 -9 0 -12 5 -8 12 4 7 3 8 -4 4 -19 -12
-14 -103 8 -146 11 -22 18 -40 15 -40 -2 0 -13 17 -24 38 -27 49 -27 34 0 -22
11 -24 30 -52 42 -63 19 -15 20 -16 8 0 -19 24 -8 21 15 -5 10 -12 13 -18 5
-13 -9 5 -12 3 -9 -6 3 -8 10 -14 15 -14 6 0 15 -4 20 -9 4 -5 3 -6 -3 -3 -7
4 -15 0 -18 -8 -5 -13 -55 -15 -391 -15 -212 1 -385 2 -385 3 0 2 25 27 56 57
31 30 54 49 50 43 -4 -7 -4 -13 -1 -13 11 0 115 93 115 103 0 5 -8 4 -17 -4
-10 -7 -8 -2 4 11 21 22 26 23 55 12 37 -13 89 -4 96 17 3 9 0 11 -8 6 -9 -5
-11 -4 -6 4 4 6 11 9 16 6 11 -7 42 43 35 56 -4 5 -1 8 6 7 6 -2 14 3 17 11 3
8 0 11 -7 7 -7 -5 -9 -1 -5 8 3 9 10 14 14 11 9 -6 23 25 15 33 -3 3 -5 -1 -5
-8 0 -7 -2 -11 -5 -8 -3 2 4 29 14 59 11 30 20 45 21 34 l1 -20 9 20 c5 11 8
31 8 45 l0 25 -8 -25 c-6 -16 -7 -7 -2 25 14 111 5 228 -25 319 -16 47 -25 82
-21 78 5 -5 20 -43 33 -83 13 -41 24 -67 25 -58 1 44 -83 234 -100 224 -5 -3
-12 0 -16 6 -5 8 -3 9 6 4 8 -5 11 -3 8 6 -3 8 -10 14 -16 14 -5 0 -14 4 -19
9 -5 5 -2 6 6 1 9 -5 12 -3 9 6 -3 8 -10 13 -16 12 -5 -1 -18 7 -28 19 -11 12
-13 18 -6 14 24 -14 11 11 -20 40 -32 28 -32 28 -9 2 36 -42 20 -34 -20 9 -18
20 -25 31 -15 23 11 -9 17 -10 15 -4 -5 16 -88 104 -96 104 -4 0 8 -16 27 -35
19 -19 32 -35 29 -35 -3 0 -23 19 -44 41 -22 23 -34 39 -27 35 6 -4 12 -4 12
1 -1 10 -68 83 -77 83 -4 0 8 -16 27 -35 19 -19 32 -35 29 -35 -3 0 -23 19
-44 41 -22 23 -34 39 -27 35 24 -14 12 11 -20 40 -32 28 -32 28 -9 2 34 -39
21 -35 -15 4 -16 17 -23 28 -16 24 24 -14 11 11 -20 40 -32 28 -32 28 -9 2 34
-39 21 -35 -15 4 -16 17 -23 28 -16 24 6 -4 12 -3 12 2 0 12 -25 33 -32 27 -3
-3 -13 5 -24 17 -15 18 -16 20 -1 9 25 -19 21 2 -5 25 -12 10 -18 13 -13 5 5
-10 4 -12 -4 -7 -6 4 -9 12 -6 17 7 11 -63 140 -82 152 -7 4 -13 13 -13 20 0
7 4 6 10 -3 9 -13 10 -13 9 0 0 8 -4 24 -9 35 l-9 20 -1 -20 c-2 -17 -3 -16
-10 5 -11 36 -11 60 1 35 7 -16 8 -12 4 14 -3 18 -6 41 -6 50 -1 9 -5 3 -8
-14 -14 -58 -24 113 -12 200 13 92 28 151 31 120 2 -17 3 -16 10 5 11 34 11
60 0 35 -5 -13 -9 -14 -9 -5 0 22 17 59 18 40 1 -13 2 -13 11 0 5 8 10 22 10
30 0 13 -1 13 -10 0 -5 -8 -10 -10 -10 -5 0 14 15 36 26 38 5 1 9 10 8 19 0 9
4 16 9 15 5 -1 12 4 15 12 3 10 0 11 -9 5 -12 -7 -12 -5 0 9 16 20 25 23 15 5
-4 -7 2 -4 14 6 26 23 30 44 5 25 -10 -7 -3 3 16 24 19 20 37 34 42 32 4 -3
33 13 65 34 84 55 203 117 276 143 57 20 82 22 278 22 186 0 202 1 120 9 -142
12 -326 2 -402 -24 -69 -22 -195 -88 -278 -144 -29 -20 -47 -28 -40 -20 20 24
194 124 273 158 106 44 261 57 472 37z m-1706 -341 c-21 -67 -31 -89 -39 -84
-4 3 -15 -6 -24 -20 -21 -32 -20 -40 2 -25 9 7 0 -4 -21 -23 -66 -61 -120 -81
-222 -83 -130 -2 -135 -3 -135 -15 0 -5 4 -8 8 -5 4 2 9 -5 9 -17 2 -18 0 -19
-8 -7 -8 12 -9 11 -6 -5 2 -11 9 -19 16 -17 7 1 10 -2 7 -7 -3 -5 7 -37 23
-72 16 -35 30 -56 33 -48 6 18 28 -82 27 -124 -1 -34 -26 -122 -28 -97 -1 13
-2 13 -11 0 -5 -8 -10 -22 -10 -30 0 -13 1 -13 11 0 9 13 10 13 6 0 -2 -8 -10
-15 -17 -15 -7 0 -15 -6 -18 -14 -3 -9 0 -11 9 -6 8 5 11 4 6 -1 -5 -5 -14 -9
-19 -9 -6 0 -13 -6 -16 -14 -3 -9 0 -11 9 -6 26 15 -26 -37 -86 -87 -60 -50
-59 -50 10 17 l70 67 -74 -63 c-40 -35 -76 -69 -78 -77 -11 -26 33 -65 127
-113 52 -27 86 -42 75 -33 -11 9 -53 32 -92 51 -40 20 -78 43 -85 52 -11 14
-11 14 2 5 8 -7 56 -33 105 -58 50 -26 108 -63 130 -82 l40 -36 -40 28 c-46
32 -48 34 65 -71 46 -44 78 -72 71 -62 -21 27 -7 20 20 -10 13 -15 16 -21 7
-14 -11 8 -18 9 -18 3 0 -11 19 -27 32 -27 3 0 10 -4 15 -9 5 -5 2 -6 -6 -1
-9 5 -12 3 -9 -6 3 -8 10 -14 15 -14 6 0 15 -4 20 -9 5 -5 3 -6 -4 -2 -16 9
-16 1 -2 -25 5 -11 14 -17 19 -14 5 3 12 0 16 -6 4 -8 3 -9 -4 -5 -7 4 -12 4
-12 1 0 -14 34 -71 46 -78 31 -18 58 -191 45 -287 -6 -48 -9 -56 -11 -30 l-2
35 -9 -40 c-4 -22 -8 -49 -7 -60 0 -16 2 -15 8 5 6 20 8 21 8 5 1 -25 -35
-136 -37 -115 -1 13 -2 13 -11 0 -5 -8 -10 -22 -10 -30 0 -13 1 -13 10 0 5 8
10 11 10 5 0 -14 -20 -43 -20 -30 0 6 -22 -31 -48 -82 -27 -50 -54 -98 -61
-107 -7 -8 -10 -19 -7 -24 6 -10 -18 -35 -25 -27 -3 2 -32 -23 -65 -57 -57
-60 -47 -57 26 7 19 16 28 22 21 12 -18 -22 -118 -106 -107 -89 4 6 3 12 -3
12 -5 0 -13 -4 -16 -10 -3 -5 -37 -28 -75 -50 -64 -37 -110 -80 -110 -102 0
-5 19 -28 43 -52 23 -23 29 -27 13 -9 -45 50 -26 39 24 -14 25 -26 37 -41 28
-34 -11 8 -18 9 -18 3 0 -11 19 -27 32 -27 3 0 10 -4 15 -9 5 -5 3 -6 -4 -2
-7 4 -13 4 -13 -1 0 -15 19 -38 31 -38 7 0 14 -7 16 -15 4 -13 3 -13 -6 0 -9
13 -11 13 -11 -3 0 -9 9 -25 20 -34 11 -10 20 -24 19 -33 0 -12 -2 -12 -7 2
-4 9 -7 -41 -7 -113 0 -72 3 -120 7 -107 4 13 4 5 1 -17 -4 -22 -7 -62 -8 -90
l0 -50 86 -1 c78 -1 92 -4 158 -38 40 -20 70 -33 67 -28 -3 5 -36 24 -73 43
-62 30 -76 33 -153 33 -81 -1 -82 -1 -30 7 30 5 71 6 90 2 46 -7 154 -60 177
-86 10 -11 12 -17 4 -12 -9 5 -12 3 -9 -6 3 -8 10 -13 15 -12 5 1 7 -19 3 -48
-6 -43 -4 -49 9 -44 12 5 13 3 4 -6 -9 -9 -26 -4 -74 21 -34 17 -85 39 -113
48 -65 20 -195 20 -261 0 -27 -9 -59 -19 -70 -22 -11 -4 -2 3 20 15 36 18 25
22 -16 5 -11 -5 -18 -1 -22 13 -3 12 -1 19 4 16 4 -3 15 8 24 24 18 36 19 45
3 35 -7 -4 -8 -3 -4 5 4 6 11 9 16 6 5 -3 16 11 25 31 17 41 19 56 5 34 -5 -8
-10 -10 -10 -5 0 15 16 37 26 35 5 0 10 7 12 17 3 15 1 16 -8 3 -10 -12 -11
-10 -6 10 31 123 31 194 1 281 -13 39 -13 42 0 25 22 -29 18 -12 -10 45 -14
27 -30 47 -35 44 -5 -3 -12 0 -16 6 -4 8 -3 9 4 5 7 -4 12 -4 12 1 -1 10 -68
83 -77 83 -4 0 9 -17 28 -37 18 -20 -2 -4 -46 36 -44 40 -81 77 -83 81 -1 4
30 24 70 45 112 59 185 111 278 199 47 45 78 72 70 60 -8 -11 2 -3 23 19 38
40 51 70 20 46 -16 -13 -17 -12 -5 3 8 10 19 16 25 15 7 -1 12 8 11 20 0 12 3
20 7 17 10 -6 63 95 55 104 -3 3 -6 1 -6 -4 0 -6 -7 -19 -15 -30 -12 -15 -11
-10 2 24 9 24 19 38 23 32 5 -8 9 -6 14 5 10 26 7 42 -5 25 -8 -12 -9 -11 -5
5 51 192 46 306 -19 435 -14 28 -23 50 -20 50 6 0 44 -74 60 -119 8 -20 14
-29 14 -21 1 25 -68 162 -78 155 -5 -3 -13 0 -17 6 -4 8 -3 9 4 5 21 -13 13
10 -10 30 -19 15 -20 16 -9 2 19 -25 8 -22 -15 4 -10 12 -13 18 -6 14 6 -4 12
-4 12 1 -1 11 -47 63 -56 63 -4 0 3 -12 17 -27 13 -15 -23 17 -81 72 -141 134
-220 191 -289 211 -100 29 -150 61 -121 79 5 3 7 0 4 -8 -3 -8 2 -17 10 -20
10 -4 13 -1 10 8 -3 7 3 16 13 19 10 4 29 16 43 27 l25 21 -36 -21 c-56 -33
-59 -25 -3 10 27 17 67 47 89 67 40 37 39 36 -5 -13 l-45 -50 53 50 c29 27 50
55 48 61 -3 7 2 20 10 31 14 17 14 16 4 -7 l-11 -25 20 25 c12 14 19 33 17 42
-2 10 1 16 7 15 6 -1 12 7 14 18 3 16 2 17 -6 5 -13 -18 -13 -3 -1 25 6 13 9
15 9 5 2 -24 21 10 20 35 l0 20 -8 -20 c-5 -11 -6 15 -3 57 4 68 -3 119 -24
184 -5 16 -4 17 6 4 9 -13 11 -12 7 5 -2 11 -8 19 -13 18 -6 -1 -10 8 -10 20
1 13 -4 21 -12 19 -8 -1 -11 2 -8 7 8 12 -22 83 -33 77 -4 -3 -7 5 -7 17 1 13
-4 21 -12 19 -8 -1 -11 2 -8 7 3 5 34 6 68 4 80 -6 221 18 290 50 30 13 79 48
109 78 30 30 37 38 15 18 -69 -59 -85 -66 -22 -9 32 30 65 55 73 56 8 2 17 5
21 8 14 15 21 -13 11 -45z m3244 -47 c104 -72 244 -103 431 -97 l91 3 -80 -8
c-74 -8 -145 -6 -235 5 -33 4 -33 4 -10 -6 14 -7 87 -11 173 -11 88 0 147 -4
147 -9 0 -6 6 -7 13 -3 7 4 9 3 4 -2 -5 -5 -13 -9 -19 -9 -16 0 -79 -117 -74
-138 2 -9 0 -15 -5 -12 -4 3 -15 -11 -24 -31 -17 -42 -20 -66 -4 -44 8 12 9
11 5 -5 -28 -101 -32 -179 -12 -253 7 -29 9 -52 5 -52 -16 0 -9 -19 14 -41 12
-12 16 -19 10 -15 -7 4 -13 5 -13 1 0 -9 50 -85 56 -85 3 0 2 5 -2 12 -4 7 -3
8 4 4 6 -4 9 -12 6 -19 -2 -7 6 -22 18 -33 23 -19 23 -19 8 1 -8 11 0 7 18 -9
18 -17 32 -32 32 -34 0 -3 -9 3 -20 13 -31 28 -24 2 8 -28 16 -15 32 -24 36
-20 4 5 6 3 4 -2 -2 -6 2 -11 7 -13 6 -2 18 -11 28 -19 16 -15 12 -18 -54 -45
-39 -15 -91 -40 -115 -54 -24 -14 -44 -24 -44 -21 0 3 18 16 40 28 22 12 38
24 36 26 -7 7 -135 -74 -190 -120 -100 -82 -196 -171 -196 -180 0 -6 11 0 25
13 14 13 25 21 25 19 0 -3 -17 -21 -37 -40 -20 -18 -31 -25 -23 -14 15 20 14
20 -8 1 -23 -20 -31 -43 -10 -30 7 4 8 3 4 -5 -4 -6 -11 -9 -16 -6 -5 3 -21
-17 -35 -44 -27 -55 -30 -65 -15 -56 13 8 13 -5 0 -25 -9 -13 -10 -13 -10 0 0
13 -1 13 -10 0 -5 -8 -9 -24 -9 -35 l0 -20 9 20 c6 13 7 7 2 -20 -9 -52 -9
-209 0 -260 7 -35 6 -37 -4 -15 -7 15 -12 75 -12 148 -1 87 -3 113 -10 90 -16
-62 14 -330 32 -280 2 8 12 -4 23 -28 24 -54 24 -65 -1 -20 -23 42 -26 36 -5
-14 9 -20 20 -34 25 -31 5 3 12 0 16 -6 4 -8 3 -9 -4 -5 -7 4 -12 4 -12 1 0
-14 30 -62 46 -76 16 -12 17 -12 9 1 -8 13 -7 13 8 1 18 -15 23 -26 7 -16 -5
3 -10 2 -10 -3 0 -14 129 -133 184 -171 69 -48 56 -31 -21 27 -38 28 -86 70
-108 93 -29 31 -22 27 24 -15 67 -60 202 -153 329 -226 40 -22 70 -45 67 -50
-3 -5 -1 -11 5 -15 5 -3 10 -15 10 -26 0 -13 4 -18 13 -13 7 4 9 3 4 -2 -5 -5
-14 -9 -20 -9 -5 0 -12 -6 -15 -14 -3 -8 0 -11 7 -7 19 12 12 0 -11 -20 -22
-19 -23 -19 -8 1 11 15 7 14 -13 -4 -28 -25 -39 -53 -12 -31 24 20 18 5 -7
-16 -12 -10 -18 -13 -14 -6 4 6 5 12 2 12 -12 0 -57 -80 -51 -90 3 -6 1 -9 -6
-8 -6 2 -14 -3 -17 -11 -2 -8 0 -11 6 -7 5 3 1 -22 -9 -55 -12 -37 -20 -94
-20 -147 -1 -65 -4 -78 -9 -52 l-7 35 -1 -35 c0 -19 3 -44 8 -55 l9 -20 1 20
c2 17 3 16 10 -5 4 -14 8 -32 9 -40 1 -13 0 -13 -9 0 -9 13 -10 13 -10 0 0 -8
5 -22 10 -30 9 -13 10 -13 11 0 0 8 9 -3 19 -25 24 -53 24 -70 0 -25 -27 49
-25 31 5 -35 17 -39 29 -54 37 -49 10 5 10 4 2 -5 -8 -9 -28 -8 -85 4 -140 29
-286 17 -380 -30 -45 -23 -118 -78 -119 -89 0 -4 16 6 35 23 106 93 266 123
460 86 43 -9 85 -13 93 -10 7 2 11 1 7 -4 -3 -5 1 -12 7 -15 7 -3 4 -4 -7 -1
-274 64 -441 41 -573 -78 -26 -23 -40 -33 -32 -23 14 18 13 19 -4 13 -17 -7
-18 -4 -13 43 5 38 3 49 -6 44 -7 -4 1 7 17 24 16 17 33 29 37 26 5 -3 28 8
51 24 75 50 104 57 228 56 113 -1 114 -1 40 8 -41 4 -97 6 -125 2 -50 -5 -132
-41 -170 -72 -20 -17 -20 -17 -2 4 9 11 43 34 75 50 54 27 64 29 187 29 l130
0 3 26 c2 15 -1 42 -7 60 -8 29 -9 26 -5 -26 l4 -60 -15 70 c-8 39 -17 117
-19 175 l-4 105 7 -108 c5 -59 11 -110 14 -113 3 -3 3 39 0 93 -4 75 -2 112
11 156 9 32 14 62 11 68 -4 5 -1 8 6 7 6 -2 14 3 17 11 3 10 0 11 -9 5 -12 -6
-12 -5 0 9 8 10 16 15 19 12 5 -5 122 100 135 121 8 14 -4 47 -17 45 -3 -1
-19 5 -34 13 -15 7 -61 26 -102 40 -92 33 -179 82 -244 135 -26 23 -45 41 -42
41 3 0 31 -20 62 -45 30 -25 58 -45 62 -45 4 0 -6 10 -23 22 -16 12 -61 52
-100 88 -38 36 -59 52 -45 35 l25 -30 -27 24 c-15 13 -24 29 -22 36 3 7 0 16
-7 21 -8 5 -10 3 -4 -7 8 -12 6 -12 -8 0 -19 15 -23 26 -6 15 7 -4 10 -1 7 7
-3 8 -10 13 -15 12 -5 -1 -9 8 -9 20 1 12 -4 22 -11 22 -6 0 -15 4 -20 9 -5 5
-3 6 5 2 6 -4 12 -5 12 -3 0 13 -34 83 -45 92 -15 12 -29 49 -15 40 6 -3 10
-13 10 -22 0 -9 2 -14 5 -11 9 8 -6 59 -15 53 -9 -6 -20 20 -19 43 1 11 4 8
10 -8 7 -20 8 -17 4 15 -3 22 -6 58 -7 80 -1 37 -2 36 -9 -15 -5 -37 -6 -13
-4 75 2 88 8 147 19 183 10 30 19 52 22 50 2 -3 -1 -19 -7 -37 -6 -18 -9 -34
-7 -37 7 -6 50 115 52 143 0 11 4 19 8 17 6 -4 48 57 48 70 0 4 -6 4 -12 0 -8
-4 -10 -3 -5 2 5 5 12 9 15 9 13 0 32 16 32 27 0 7 -6 6 -15 -2 -26 -22 -16
-4 12 21 20 18 24 19 13 4 -15 -20 -14 -20 8 -1 24 20 30 41 10 31 -18 -9 94
98 134 128 47 36 230 149 224 138 -3 -5 -54 -39 -113 -75 -60 -37 -137 -94
-173 -128 -53 -49 -54 -51 -10 -14 50 43 164 121 270 186 26 15 40 31 40 45 0
16 2 17 10 5 13 -21 13 -3 -1 22 -8 16 -8 19 1 13 8 -5 11 -3 8 6 -3 8 -10 14
-16 14 -5 0 -14 4 -19 9 -5 5 -3 6 5 2 21 -12 13 10 -10 30 -19 15 -20 16 -9
2 19 -25 8 -22 -15 4 -10 12 -13 18 -6 14 18 -11 15 9 -5 25 -14 12 -16 12 -8
0 5 -10 4 -12 -4 -7 -6 4 -9 11 -6 16 8 13 -13 50 -27 47 -6 -1 -13 5 -15 13
-4 13 -3 13 7 0 9 -13 10 -12 7 5 -2 11 -8 19 -15 18 -18 -4 -42 94 -41 166 1
66 15 138 19 96 l1 -20 9 20 c5 11 9 27 9 35 1 13 0 13 -9 0 -5 -8 -10 -10
-10 -5 0 14 20 43 20 30 1 -5 10 7 21 28 11 21 17 42 14 48 -4 5 -1 8 6 7 6
-2 14 3 17 11 3 8 0 11 -7 7 -7 -5 -9 -1 -5 9 4 8 1 22 -6 30 -7 8 -9 15 -4
15 4 0 3 5 -2 10 -6 6 -62 12 -125 15 -135 6 -193 24 -260 79 -14 11 -8 4 14
-16 52 -50 114 -68 249 -74 61 -3 114 -7 117 -11 12 -13 -236 7 -282 23 -29
10 -68 36 -100 66 -29 27 -46 46 -38 42 9 -4 12 -2 9 7 -3 8 -10 14 -15 14 -6
0 -15 4 -20 9 -5 5 -2 6 6 1 9 -5 12 -3 9 6 -3 8 -10 14 -15 14 -6 0 -15 4
-20 9 -5 5 -3 6 5 2 14 -8 15 -5 6 18 -3 9 -12 16 -19 16 -8 0 -11 8 -8 19 7
27 33 20 93 -28 56 -45 167 -101 196 -100 11 0 -8 10 -41 23 -65 24 -115 54
-185 109 -24 20 -48 33 -54 30 -5 -3 -6 -1 -2 6 5 8 16 5 37 -11 17 -13 58
-42 92 -66z m-4443 -523 c333 -6 608 -14 612 -17 4 -4 -91 -4 -210 0 -119 3
-685 9 -1257 14 -1180 8 -1099 13 -1195 -73 -28 -25 -49 -47 -47 -49 2 -2 24
16 49 40 82 78 57 76 792 76 637 0 1809 -16 1853 -25 15 -4 20 -10 16 -21 -5
-13 -7 -13 -14 -2 -5 7 -9 10 -9 6 0 -3 -3 -14 -7 -24 -5 -13 -3 -15 8 -9 8 5
11 5 6 -1 -5 -5 -14 -9 -19 -9 -6 0 -13 -6 -16 -14 -3 -9 0 -11 9 -6 8 5 11 4
6 -1 -5 -5 -14 -9 -19 -9 -6 0 -13 -6 -16 -14 -3 -9 0 -11 9 -6 8 5 1 -6 -15
-23 -30 -32 -43 -41 -31 -22 9 15 -6 12 -24 -4 -9 -8 -38 -26 -66 -41 -27 -14
-39 -23 -25 -19 14 4 43 18 65 32 22 14 35 19 28 11 -21 -25 -98 -59 -170 -74
-83 -18 -773 -20 -1623 -5 l-555 10 -50 -24 -50 -25 30 25 c17 13 26 24 21 24
-13 0 -66 -51 -66 -62 0 -5 5 -6 10 -3 19 12 10 -2 -17 -26 l-28 -24 20 25
c16 21 14 20 -13 -4 -30 -28 -45 -55 -22 -41 18 11 11 -1 -12 -21 -22 -19 -23
-19 -8 1 15 20 14 20 -8 1 -22 -19 -31 -43 -12 -31 19 12 10 -2 -17 -26 l-28
-24 20 25 c16 21 14 20 -13 -4 -30 -28 -45 -55 -22 -41 18 11 11 -1 -12 -21
-22 -19 -23 -19 -8 1 15 20 14 20 -8 1 -22 -19 -31 -43 -12 -31 20 12 9 -2
-22 -31 l-33 -29 25 30 25 30 -33 -29 c-30 -28 -45 -55 -22 -41 18 11 11 -1
-12 -21 -22 -19 -23 -19 -8 1 15 20 15 20 -8 1 -12 -11 -21 -25 -18 -32 2 -6
-7 -22 -22 -35 l-27 -24 25 30 25 30 -33 -29 c-31 -29 -44 -54 -19 -40 6 4 3
-2 -7 -14 -11 -12 -21 -20 -24 -17 -7 7 -42 -25 -42 -38 0 -5 7 -4 15 3 26 22
16 4 -12 -21 -20 -18 -24 -19 -13 -4 15 20 14 20 -8 1 -22 -19 -31 -43 -12
-31 19 12 10 -2 -17 -26 l-28 -24 20 25 c16 21 14 20 -13 -4 -31 -29 -47 -61
-17 -36 26 22 16 4 -12 -21 -20 -18 -24 -19 -13 -4 15 20 14 20 -8 1 -22 -19
-31 -43 -12 -31 18 11 11 -1 -12 -21 -22 -19 -23 -19 -8 1 15 20 15 20 -8 1
-12 -11 -20 -26 -18 -33 3 -7 0 -15 -6 -19 -7 -5 -8 -2 -4 7 4 8 -2 3 -13 -10
-12 -13 -21 -28 -21 -34 0 -6 7 -2 15 9 14 18 14 17 3 -9 -9 -22 -9 -36 0 -60
10 -29 10 -30 -3 -13 -17 23 -20 14 -4 -15 5 -11 14 -17 19 -14 5 3 12 0 16
-6 4 -8 3 -9 -4 -5 -26 16 -10 -12 25 -45 25 -22 29 -24 14 -6 -36 40 -20 33
20 -10 18 -20 25 -31 15 -23 -11 9 -18 10 -15 3 5 -14 108 -123 117 -123 3 0
-16 23 -43 50 -27 28 -47 50 -44 50 2 0 29 -25 59 -56 30 -31 49 -54 43 -50
-29 16 -10 -13 39 -59 l53 -50 -45 48 c-24 26 -42 47 -39 47 2 0 29 -26 59
-57 30 -31 47 -51 38 -44 -35 26 -17 -6 24 -44 31 -29 35 -31 14 -7 -46 50
-26 38 24 -15 25 -26 35 -39 23 -29 -35 29 -27 3 9 -30 18 -16 26 -21 19 -11
-21 27 -7 20 20 -10 13 -15 16 -21 7 -14 -10 7 -18 9 -18 4 0 -13 35 -45 42
-38 3 3 11 -2 19 -12 9 -11 10 -14 2 -9 -19 11 -16 -9 4 -25 11 -10 14 -10 9
-1 -11 18 -1 15 15 -5 12 -14 12 -16 0 -9 -9 6 -12 4 -9 -5 3 -8 10 -14 16
-14 5 0 14 -4 19 -9 5 -5 2 -6 -6 -1 -9 5 -12 3 -9 -6 3 -8 10 -14 16 -14 5 0
14 -4 19 -9 5 -5 3 -6 -4 -2 -25 14 -13 -8 24 -46 20 -21 42 -38 47 -38 6 0
-5 14 -24 31 l-35 30 39 -28 39 -28 166 1 c91 0 362 4 601 8 588 11 1532 -6
1581 -28 33 -15 33 -15 4 -9 -16 3 -27 3 -23 -2 3 -4 23 -8 42 -10 20 -2 51
-13 69 -24 31 -19 136 -122 108 -106 -9 5 -12 3 -9 -6 3 -8 10 -13 15 -12 5 1
7 -14 5 -34 -4 -28 -2 -34 9 -28 8 4 6 -1 -4 -11 -17 -18 -57 -19 -1303 -22
-910 -1 -1298 1 -1327 9 -27 7 -59 29 -96 66 -31 31 -48 50 -38 43 30 -22 19
5 -15 36 -18 16 -24 19 -14 7 27 -32 15 -29 -15 4 -13 14 -18 23 -11 19 21
-12 13 10 -10 30 -19 15 -20 16 -9 2 21 -28 7 -21 -20 9 -13 15 -16 21 -6 14
30 -24 18 4 -15 35 -18 16 -24 19 -14 7 27 -32 15 -29 -15 4 -13 14 -18 23
-11 19 6 -4 12 -4 12 1 -1 11 -47 63 -56 63 -4 0 3 -12 17 -27 l24 -28 -27 24
c-15 13 -24 29 -22 35 3 7 -6 21 -18 32 l-23 19 19 -22 c27 -32 15 -29 -15 4
-13 14 -18 23 -11 19 24 -14 12 11 -20 40 -18 16 -24 19 -14 7 29 -35 14 -27
-20 9 -16 18 -21 26 -11 19 30 -23 18 4 -15 35 -18 16 -24 19 -14 7 27 -32 15
-29 -15 4 -13 14 -18 23 -11 19 24 -14 11 11 -20 40 -32 28 -32 28 -9 2 36
-42 20 -34 -20 9 -18 20 -26 31 -16 24 30 -23 18 4 -15 35 -18 16 -24 19 -14
7 27 -32 15 -29 -15 4 -13 14 -18 23 -11 19 24 -14 11 11 -20 40 -32 28 -32
28 -9 2 36 -42 20 -34 -20 9 -18 20 -26 31 -16 24 30 -23 18 4 -15 35 -18 16
-24 19 -14 7 27 -32 15 -29 -15 4 -13 14 -18 23 -11 19 26 -16 10 12 -30 49
-41 38 -42 39 -13 5 l30 -35 -32 29 c-17 15 -30 33 -28 40 5 11 -38 66 -51 66
-4 0 3 -11 16 -25 13 -14 21 -25 19 -25 -3 0 -18 14 -35 32 -16 17 -23 28 -16
24 21 -12 13 10 -10 30 -19 15 -20 16 -9 2 21 -28 7 -21 -20 9 -13 15 -16 21
-6 14 20 -16 22 -9 5 19 -10 16 -10 24 0 40 16 27 15 35 -3 20 -26 -22 -16 -4
12 21 20 18 24 19 13 4 -15 -20 -14 -20 8 -1 22 19 31 43 12 31 -20 -12 -9 2
27 36 l38 34 -29 -32 c-17 -18 -27 -33 -23 -33 9 0 76 73 77 84 0 5 -7 3 -15
-4 -30 -25 -14 -3 22 31 34 31 35 31 13 4 l-25 -30 33 29 c30 28 45 55 22 41
-20 -12 -9 2 22 31 l33 29 -25 -30 -25 -30 33 29 c30 28 45 55 22 41 -20 -12
-9 2 22 31 l33 29 -25 -30 c-18 -21 -12 -19 18 10 23 21 42 43 42 49 0 5 -9 1
-20 -9 -11 -10 -20 -16 -20 -14 0 3 17 21 37 40 24 21 30 25 18 9 -17 -21 -15
-20 13 4 31 29 47 61 17 36 -30 -25 -14 -3 22 31 34 31 35 31 13 4 l-25 -30
33 29 c30 28 45 55 22 41 -19 -12 -10 2 17 26 l28 24 -20 -25 c-16 -21 -14
-20 13 4 31 29 47 61 17 36 -30 -25 -14 -3 22 31 34 31 35 31 13 4 l-25 -30
33 29 c30 28 45 55 22 41 -19 -12 -10 2 17 26 l28 24 -20 -25 c-16 -21 -14
-20 13 4 31 29 47 61 17 36 -28 -24 -15 -4 17 26 28 24 30 25 13 4 -17 -21
-15 -20 13 4 30 28 45 55 22 41 -18 -11 -11 1 12 21 22 19 23 19 8 -1 -15 -20
-15 -20 8 -1 12 11 21 25 18 32 -2 6 7 22 22 35 l27 24 -24 -27 c-14 -16 -21
-28 -17 -28 9 0 55 52 56 63 0 5 -4 5 -10 2 -19 -12 -10 2 17 26 l28 24 -20
-25 -20 -25 23 19 c12 11 21 25 18 32 -7 19 97 110 146 127 37 13 141 16 698
16 360 1 927 -4 1260 -10z m6855 -64 c176 0 370 4 432 9 86 7 119 6 145 -4 50
-20 98 -58 92 -74 -3 -8 0 -17 7 -22 8 -5 10 -3 4 7 -8 12 -6 12 8 0 18 -15
23 -26 7 -16 -5 3 -10 2 -10 -3 0 -12 25 -33 32 -27 3 3 11 -2 19 -12 9 -11
10 -14 2 -9 -22 12 -14 -10 9 -30 19 -15 20 -16 9 -1 -19 24 -8 21 15 -5 10
-12 13 -18 5 -13 -9 5 -12 3 -9 -6 3 -8 10 -14 16 -14 6 0 17 -7 24 -15 11
-12 11 -12 -4 -1 -26 19 -22 -2 4 -25 13 -12 18 -13 13 -4 -8 13 -7 13 8 1 18
-15 23 -26 7 -16 -19 12 -10 -12 12 -31 19 -15 20 -16 9 -1 -19 24 -8 21 15
-5 10 -12 13 -18 7 -14 -22 12 -14 -10 9 -30 19 -15 20 -16 9 -1 -19 24 -8 21
15 -5 10 -12 13 -18 7 -14 -22 12 -14 -10 9 -30 22 -19 23 -19 8 1 -14 18 -14
19 2 7 9 -8 15 -19 12 -25 -2 -7 10 -28 27 -47 16 -19 28 -29 24 -22 -10 19 0
14 21 -10 15 -19 16 -20 2 -9 -10 7 -18 9 -18 3 0 -12 25 -34 32 -27 3 3 11
-2 19 -12 9 -11 10 -14 2 -9 -7 4 -13 3 -13 -2 0 -12 25 -33 32 -27 3 3 13 -5
24 -17 15 -18 16 -20 2 -9 -26 19 -22 -2 4 -25 13 -12 18 -13 13 -4 -8 13 -7
13 8 1 18 -15 23 -26 7 -16 -19 12 -10 -12 12 -31 19 -15 20 -16 9 -1 -21 27
-7 20 20 -10 13 -15 16 -21 7 -14 -10 7 -18 9 -18 3 0 -12 25 -34 32 -27 3 3
11 -2 19 -12 9 -11 10 -14 2 -9 -7 4 -13 3 -13 -2 0 -12 25 -33 32 -27 3 3 13
-5 24 -17 15 -18 16 -20 2 -9 -31 24 -19 -4 14 -35 18 -16 24 -19 14 -6 -31
36 -13 25 25 -15 18 -21 24 -29 12 -19 -13 11 -23 15 -23 9 0 -16 36 -44 45
-36 4 5 5 3 2 -3 -3 -6 22 -37 56 -70 l62 -59 -55 60 -55 60 63 -60 c59 -57
74 -73 52 -60 -6 4 -10 -8 -10 -30 0 -26 3 -34 13 -29 7 4 9 3 4 -2 -5 -5 -14
-9 -20 -9 -5 0 -12 -6 -15 -14 -3 -8 0 -11 7 -7 20 13 12 0 -16 -25 l-28 -24
20 25 c16 21 14 20 -13 -4 -30 -28 -45 -55 -22 -41 18 11 11 -1 -12 -21 -22
-19 -23 -19 -8 1 15 20 14 20 -8 1 -22 -19 -31 -43 -12 -31 20 12 9 -2 -22
-31 l-33 -29 25 30 25 30 -33 -29 c-30 -28 -45 -55 -22 -41 18 11 11 -1 -12
-21 -22 -19 -23 -19 -8 1 15 20 15 20 -8 1 -12 -11 -21 -25 -18 -32 2 -6 -7
-22 -22 -35 l-27 -24 25 30 25 30 -33 -29 c-30 -28 -45 -55 -22 -41 19 12 10
-2 -17 -26 l-28 -24 20 25 20 25 -23 -19 c-12 -11 -21 -25 -18 -32 2 -6 -7
-22 -22 -35 l-27 -24 25 30 25 30 -33 -29 c-30 -28 -45 -55 -22 -41 19 12 10
-2 -17 -26 l-28 -24 20 25 20 25 -23 -19 c-12 -11 -21 -25 -18 -32 2 -6 -7
-22 -22 -35 l-27 -24 24 28 c14 15 21 27 17 27 -9 0 -55 -52 -56 -63 0 -5 5
-5 10 -2 18 11 11 -1 -12 -21 -22 -19 -23 -19 -8 1 15 20 14 20 -8 1 -22 -19
-31 -43 -12 -31 19 12 10 -2 -17 -26 l-28 -24 20 25 c16 21 14 20 -13 -4 -30
-28 -45 -55 -22 -41 18 11 11 -1 -12 -21 -22 -19 -23 -19 -8 1 15 20 14 20 -8
1 -22 -19 -31 -43 -12 -31 18 11 11 -1 -12 -21 -22 -19 -23 -19 -8 1 11 15 7
14 -13 -4 -28 -25 -39 -53 -12 -31 26 22 16 4 -12 -21 -21 -18 -24 -19 -13 -4
11 15 8 14 -13 -4 -28 -25 -39 -53 -12 -31 26 22 16 4 -12 -21 -20 -18 -24
-19 -13 -4 15 20 14 20 -8 1 -22 -19 -31 -43 -12 -31 19 12 10 -2 -17 -26
l-28 -24 20 25 20 25 -23 -19 c-12 -11 -21 -25 -18 -32 5 -12 -56 -75 -89 -92
-40 -20 -532 -32 -1457 -35 -521 -2 -951 -1 -956 2 -6 3 432 7 971 9 949 3
1384 13 1438 33 26 10 100 79 85 79 -5 0 -17 -11 -28 -25 -11 -14 -32 -32 -46
-39 -48 -24 -490 -36 -1470 -39 l-944 -3 6 28 c4 21 2 27 -7 22 -7 -4 -8 -3
-4 2 5 5 14 9 20 9 5 0 12 6 15 14 3 9 0 11 -9 5 -12 -6 -12 -5 0 9 8 10 16
15 19 12 7 -6 32 15 32 27 0 5 -6 6 -12 2 -7 -4 5 12 27 35 52 55 111 89 166
97 24 3 484 6 1021 7 l976 2 49 34 c28 19 40 25 29 13 -10 -12 -37 -30 -60
-41 -22 -12 -35 -21 -28 -21 22 0 55 20 95 58 37 37 52 66 20 41 -16 -11 -16
-11 -5 1 7 8 18 15 24 15 6 0 13 6 16 14 3 9 0 11 -9 6 -8 -5 -11 -4 -6 1 5 5
14 9 19 9 6 0 13 6 16 14 3 9 0 11 -9 5 -12 -7 -12 -5 0 9 16 20 26 23 15 5
-5 -9 -2 -9 9 1 20 16 23 36 5 25 -9 -5 -9 -2 1 9 16 20 26 23 15 5 -5 -9 -2
-9 9 1 20 16 23 36 5 25 -9 -5 -9 -2 1 9 16 20 25 23 15 5 -4 -7 2 -4 14 6 26
23 30 45 5 25 -16 -13 -17 -12 -4 4 8 9 16 15 19 12 7 -7 42 25 42 38 0 5 -7
4 -15 -3 -24 -20 -18 -5 7 16 13 12 18 13 13 4 -5 -9 0 -8 13 4 24 21 31 46 7
26 -26 -22 -16 -4 12 21 20 18 24 19 13 4 -15 -20 -14 -20 8 -1 22 19 31 43
12 31 -19 -12 -10 2 17 26 l28 24 -20 -25 c-16 -21 -14 -20 13 4 30 28 45 55
22 41 -20 -12 -9 2 27 36 l38 34 -30 -35 c-29 -34 -28 -33 13 5 39 36 61 73
27 45 -38 -32 -8 2 62 70 l78 75 -65 -70 -65 -70 72 69 c40 38 70 73 67 78 -3
5 0 7 7 6 6 -2 14 3 17 11 3 9 0 11 -9 6 -8 -5 -11 -4 -6 1 5 5 14 9 20 9 7 0
12 16 12 40 0 24 -4 39 -11 38 -7 -1 -11 5 -10 15 0 9 -4 17 -11 17 -7 0 -18
7 -25 15 -11 12 -11 12 5 1 30 -23 18 4 -15 35 -18 16 -24 19 -14 7 27 -32 15
-29 -15 4 -13 14 -18 23 -11 19 21 -12 13 10 -10 30 -19 15 -20 16 -9 2 19
-25 8 -22 -15 4 -10 12 -13 18 -6 14 24 -14 11 11 -20 40 -18 16 -24 19 -14 7
27 -32 15 -29 -15 4 -13 14 -18 23 -11 19 21 -12 13 10 -10 30 -19 15 -20 16
-9 2 19 -25 8 -22 -15 4 -10 12 -13 18 -6 14 24 -14 11 11 -20 40 -18 16 -24
19 -14 7 27 -32 15 -29 -15 4 -13 14 -18 23 -11 19 21 -12 13 10 -10 30 -19
15 -20 16 -9 2 19 -25 8 -22 -15 4 -10 12 -13 18 -6 14 24 -14 11 11 -20 40
-18 16 -24 19 -14 7 27 -32 15 -29 -15 4 -13 14 -18 23 -11 19 21 -12 13 10
-10 30 -19 15 -20 16 -9 2 19 -25 8 -22 -15 4 -10 12 -13 18 -6 14 24 -14 11
11 -20 40 -18 16 -24 19 -14 7 29 -35 14 -27 -20 9 -16 18 -21 26 -11 19 25
-19 21 2 -5 25 -12 10 -18 13 -14 7 11 -20 1 -15 -20 9 -15 19 -16 20 -1 9 25
-19 21 2 -5 25 -12 10 -18 13 -14 7 10 -19 1 -16 -15 4 -10 11 -10 14 -1 9 6
-4 12 -3 12 2 0 10 -91 102 -101 102 -4 0 11 -19 35 -42 32 -33 33 -35 4 -9
l-38 35 -1062 0 -1063 1 -51 29 c-29 15 -69 46 -90 69 -22 22 -33 36 -25 32 9
-5 12 -3 9 6 -3 8 -10 14 -15 14 -6 0 -15 4 -20 9 -5 5 -3 6 5 2 15 -9 15 -6
-3 37 -8 20 -15 48 -15 62 0 18 -4 24 -12 19 -8 -5 -7 -1 2 10 13 17 51 18
795 9 429 -4 924 -8 1100 -8z m-4992 -406 l1 -344 6 315 c3 173 8 307 12 297
5 -10 12 -16 17 -12 5 3 13 0 17 -6 4 -8 3 -9 -4 -5 -16 10 -15 1 3 -35 9 -16
20 -27 25 -24 5 3 12 0 16 -6 5 -8 3 -9 -6 -4 -8 5 -11 3 -8 -6 3 -8 10 -14
16 -14 5 0 14 -4 19 -9 5 -5 2 -6 -6 -1 -9 5 -12 3 -9 -6 3 -8 10 -14 16 -14
5 0 14 -4 19 -9 5 -5 2 -6 -6 -1 -9 5 -12 3 -9 -6 3 -8 10 -13 16 -12 5 1 16
-5 24 -15 12 -15 11 -16 -4 -3 -26 20 -22 -2 4 -25 13 -12 18 -13 13 -4 -8 13
-7 13 8 1 18 -15 23 -26 7 -16 -19 12 -10 -12 12 -31 19 -15 20 -16 9 -1 -19
24 -8 21 15 -5 10 -12 13 -18 7 -14 -7 4 -13 4 -13 -1 1 -11 47 -63 56 -63 4
0 -3 12 -17 28 l-24 27 26 -23 c15 -13 26 -29 25 -36 -1 -13 99 -126 112 -126
3 0 -20 28 -53 63 -33 34 2 1 78 -73 75 -74 137 -137 137 -139 0 -2 -9 4 -20
14 -11 10 -20 14 -20 8 0 -13 35 -45 42 -37 3 3 9 0 14 -7 5 -8 3 -10 -6 -4
-8 5 -11 3 -8 -6 3 -8 10 -14 16 -14 5 0 14 -4 19 -9 5 -5 3 -6 -4 -2 -17 9
-16 6 3 -40 9 -22 22 -43 30 -47 8 -4 14 -16 13 -25 0 -14 -2 -14 -10 3 -8 17
-9 17 -4 -5 2 -14 5 -36 6 -50 1 -23 2 -23 8 5 12 49 24 -91 13 -145 -7 -31
-10 -37 -12 -20 -1 19 -5 15 -15 -20 -26 -87 -28 -96 -15 -80 10 13 11 13 7 0
-2 -8 -10 -15 -17 -15 -7 0 -15 -6 -18 -14 -3 -9 0 -11 9 -6 8 5 11 4 6 -1 -5
-5 -14 -9 -20 -9 -5 0 -12 -6 -15 -14 -3 -8 0 -11 7 -7 24 15 6 -4 -116 -124
-71 -69 -101 -96 -68 -60 l60 65 -73 -70 c-39 -38 -72 -74 -72 -78 0 -5 7 -4
15 3 35 29 11 0 -42 -50 -51 -48 -53 -49 -13 -7 24 26 41 47 38 47 -9 0 -112
-109 -117 -123 -2 -7 6 -3 18 7 44 40 19 8 -36 -44 -51 -49 -53 -50 -18 -10
l40 45 -53 -50 c-28 -27 -52 -53 -52 -58 0 -5 7 -4 15 3 33 27 12 1 -41 -50
l-55 -55 5 255 c3 140 7 316 9 390 3 76 2 100 -2 55 -5 -74 -6 -69 -11 70 -4
96 -7 -3 -8 -271 -1 -232 -5 -443 -9 -469 -4 -35 -3 -46 5 -41 17 10 15 1 -3
-14 -13 -10 -14 1 -10 92 2 56 7 485 11 951 3 466 8 846 11 844 2 -3 5 -159 6
-348z m1822 129 c-3 -73 -10 -500 -16 -948 -6 -448 -13 -817 -16 -820 -3 -3
-3 229 -1 515 3 286 2 396 -1 245 -5 -250 -6 -223 -11 290 l-5 565 -3 -635
c-1 -349 -5 -646 -8 -660 -4 -20 -3 -22 5 -10 8 11 11 -27 10 -140 l0 -155
-25 48 c-14 26 -29 45 -34 42 -5 -3 -12 0 -16 6 -5 8 -3 9 6 4 8 -5 11 -3 8 6
-3 8 -10 13 -16 12 -6 -2 -9 3 -6 10 3 8 -5 25 -16 38 -12 13 -19 18 -15 12 9
-18 0 -16 -16 4 -10 11 -10 14 -1 9 21 -12 13 10 -10 30 -19 15 -20 16 -9 2
19 -25 8 -22 -15 4 -10 12 -13 18 -6 14 6 -4 12 -4 12 1 -1 10 -68 83 -77 83
-4 0 8 -16 27 -35 19 -19 32 -35 29 -35 -3 0 -25 21 -49 47 -25 26 -37 41 -27
34 40 -31 12 9 -45 64 -58 55 -59 56 -13 8 27 -29 47 -53 44 -53 -2 0 -29 25
-59 56 -30 31 -49 54 -42 50 26 -15 10 12 -30 49 l-43 40 34 -37 c19 -21 33
-38 30 -38 -3 0 -25 21 -49 47 -25 26 -37 41 -27 34 34 -26 16 6 -25 44 -31
29 -35 31 -14 8 41 -45 28 -42 -15 4 -18 20 -28 33 -21 29 24 -14 12 11 -20
40 -27 24 -29 25 -13 4 l20 -25 -22 19 c-13 10 -20 22 -17 27 7 11 -26 60 -36
54 -5 -3 -12 0 -16 6 -4 8 -3 9 4 5 7 -4 12 -4 12 -1 0 14 -34 71 -46 78 -8 4
-14 16 -13 25 0 16 1 16 7 0 4 -10 7 27 7 82 0 54 -2 96 -5 94 -2 -3 -7 -39
-11 -82 -6 -77 -6 -77 -7 -17 -2 68 15 146 28 126 5 -10 9 -8 14 4 9 25 7 37
-5 29 -8 -4 -8 0 0 15 13 24 23 28 15 6 -11 -27 5 -16 21 15 9 17 13 35 10 40
-3 5 0 12 6 16 8 5 9 3 4 -7 -5 -8 1 -5 13 5 26 23 30 44 5 25 -16 -11 -16
-11 -5 1 7 8 18 15 24 15 6 0 13 6 16 14 3 8 0 11 -7 7 -21 -13 -11 0 21 30
l33 29 -25 -30 c-19 -23 106 91 175 159 21 21 -33 -21 -95 -73 -36 -31 -56
-45 -45 -32 38 44 168 142 181 137 7 -3 16 0 20 6 5 7 2 8 -7 3 -8 -5 26 29
75 76 49 46 90 82 91 79 3 -8 35 21 35 32 0 5 -6 6 -12 2 -9 -5 -9 -2 1 9 7 9
15 17 16 17 2 0 2 -21 0 -47 -2 -27 -9 -237 -16 -468 -9 -329 -9 -469 0 -645
7 -124 14 -234 17 -245 4 -16 3 -17 -5 -5 -9 13 -11 13 -11 -2 0 -13 9 -18 33
-19 31 -1 31 -1 7 -10 -23 -7 -24 -8 -2 -6 12 1 22 4 22 7 -1 3 3 17 9 32 7
18 11 263 11 705 1 629 7 791 29 831 5 9 9 -119 10 -304 1 -175 4 -320 7 -323
2 -2 4 124 4 280 0 156 3 308 7 338 5 43 4 53 -7 46 -9 -5 -11 -4 -6 3 20 33
25 3 21 -120z m-3222 -163 c81 -14 184 -57 227 -94 14 -11 -1 -5 -34 14 -112
66 -214 86 -381 75 l-110 -7 145 -1 c187 -1 279 -25 377 -98 33 -25 48 -31 38
-14 -12 20 2 9 36 -27 l34 -38 -35 30 c-22 19 -15 8 20 -31 30 -34 63 -62 73
-63 9 0 34 -17 55 -37 20 -20 31 -33 23 -28 -9 4 -12 2 -9 -7 3 -8 10 -14 16
-14 5 0 14 -4 19 -9 5 -5 3 -6 -4 -2 -15 9 -17 -12 -3 -34 9 -13 10 -13 11 0
1 25 18 -22 17 -50 0 -23 -1 -22 -8 5 -7 27 -8 28 -8 5 -1 -14 3 -43 7 -65 l9
-40 2 35 c2 32 3 30 10 -15 10 -63 10 -191 0 -230 -5 -21 -8 -24 -10 -10 l-1
20 -9 -20 c-5 -11 -9 -27 -9 -35 -1 -13 0 -13 9 0 8 13 10 12 10 -2 0 -10 -6
-18 -13 -18 -7 0 -21 -16 -30 -35 -20 -42 -21 -49 -5 -39 7 4 8 3 4 -5 -4 -6
-11 -9 -16 -6 -4 3 -15 -6 -24 -20 -21 -32 -20 -41 2 -24 15 13 16 12 4 -3 -8
-10 -19 -16 -24 -15 -6 1 -13 -4 -16 -12 -3 -8 0 -11 7 -7 19 12 12 0 -11 -20
-22 -19 -23 -19 -8 1 15 20 15 20 -8 1 -12 -11 -21 -25 -18 -32 2 -6 -12 -27
-32 -45 l-37 -34 35 40 c21 24 9 15 -30 -21 -36 -34 -81 -69 -100 -79 -88 -45
-71 -45 -1303 -45 -1278 0 -1204 -3 -1272 58 l-30 27 30 -33 c59 -66 -19 -62
1269 -62 972 0 1180 3 1224 14 55 15 130 54 152 80 7 9 17 16 23 16 13 0 -60
-58 -98 -78 -82 -42 -76 -42 -1301 -42 -992 0 -1177 2 -1205 14 -19 8 -54 36
-79 62 -25 27 -37 42 -27 35 25 -19 21 2 -5 25 -12 10 -18 13 -14 7 11 -20 1
-15 -20 9 -15 19 -16 20 -1 9 30 -24 18 4 -15 35 -18 16 -24 19 -14 7 27 -32
15 -29 -15 4 -13 14 -18 23 -11 19 21 -12 13 10 -10 30 -19 15 -20 16 -9 2 21
-28 7 -21 -20 9 -13 15 -16 21 -7 14 31 -24 19 4 -14 35 -18 16 -24 19 -14 7
29 -35 14 -27 -20 9 -16 18 -21 26 -12 19 31 -23 19 4 -14 35 -18 16 -24 19
-14 7 27 -32 15 -29 -15 4 -13 14 -18 23 -11 19 24 -14 11 11 -20 40 -32 28
-32 28 -9 2 36 -42 20 -34 -20 9 -18 20 -26 31 -16 24 30 -23 18 4 -15 35 -18
16 -24 19 -14 7 27 -32 15 -29 -15 4 -13 14 -19 24 -14 21 6 -4 10 11 10 37 0
24 -3 41 -7 38 -19 -11 -4 7 44 52 l53 50 -45 -50 -45 -50 52 49 c29 27 49 54
46 60 -3 6 -2 8 2 3 9 -8 45 20 45 36 0 6 -10 2 -22 -9 -13 -10 -3 3 22 29 50
53 70 65 24 15 -21 -24 -17 -22 14 7 41 38 59 70 25 44 -10 -7 2 8 27 34 24
26 46 47 49 47 3 0 -10 -16 -29 -35 -19 -19 -31 -35 -27 -35 9 0 91 89 96 104
2 6 -6 2 -18 -8 -37 -33 -23 -12 16 25 24 21 30 25 18 9 -17 -21 -15 -20 13 4
31 29 47 61 17 36 -30 -25 -14 -3 22 31 34 31 35 31 13 4 l-25 -30 33 29 c32
29 44 54 20 40 -7 -4 5 12 27 36 71 76 -12 71 1151 70 575 -1 1048 1 1052 4 8
9 39 7 125 -9z m5899 -56 c345 -8 485 -8 589 1 172 15 203 8 273 -62 28 -28
43 -45 34 -38 -26 18 -22 -3 4 -26 12 -10 18 -13 14 -6 -10 18 -1 15 15 -5 10
-11 10 -14 2 -9 -25 15 -12 -11 19 -40 l33 -29 -25 30 -25 30 27 -24 c15 -13
24 -29 22 -35 -3 -7 6 -21 18 -32 l23 -19 -19 23 c-27 31 -15 28 15 -5 13 -14
18 -23 12 -19 -25 14 -12 -11 19 -40 32 -28 32 -28 9 -1 -34 38 -21 34 15 -5
16 -17 23 -28 17 -24 -25 14 -12 -11 19 -40 32 -28 32 -28 9 -1 -34 38 -21 34
15 -5 16 -17 23 -28 17 -24 -27 15 -11 -12 29 -49 l43 -40 -34 38 c-19 20 -33
37 -30 37 3 0 25 -21 49 -47 25 -26 37 -41 28 -34 -35 26 -17 -6 24 -44 31
-29 35 -31 14 -7 -41 44 -28 41 15 -5 18 -20 28 -33 22 -29 -9 5 -13 -2 -13
-24 0 -22 4 -29 13 -24 7 4 9 3 4 -2 -5 -5 -14 -9 -19 -9 -6 0 -13 -6 -16 -14
-3 -9 0 -11 9 -6 8 5 1 -6 -15 -23 -36 -39 -49 -43 -15 -4 23 26 23 26 -9 -2
-31 -29 -44 -54 -19 -40 6 4 -1 -7 -17 -24 -36 -39 -49 -43 -15 -4 23 26 23
26 -9 -2 -31 -29 -44 -54 -19 -40 6 4 -1 -7 -17 -24 -36 -39 -49 -43 -15 -4
23 26 23 26 -9 -2 -30 -28 -45 -55 -22 -41 19 12 10 -2 -17 -26 l-28 -24 20
25 20 25 -28 -24 c-26 -23 -38 -49 -17 -36 18 11 11 -1 -12 -21 -22 -19 -23
-19 -8 1 11 15 7 14 -13 -4 -26 -23 -38 -49 -17 -36 18 11 11 -1 -12 -21 -22
-19 -23 -19 -8 1 15 20 14 20 -8 1 -22 -19 -31 -43 -12 -31 18 11 11 -1 -12
-21 -22 -19 -23 -19 -8 1 15 20 14 20 -8 1 -23 -20 -31 -42 -9 -30 8 5 8 2 -2
-9 -16 -20 -25 -23 -15 -4 4 6 -2 3 -14 -7 -26 -23 -30 -44 -4 -25 9 7 -1 -6
-23 -29 -22 -24 -56 -47 -77 -54 -26 -8 -329 -8 -1100 -2 l-1063 9 -58 27
c-59 28 -139 86 -217 158 l-45 42 53 -44 c30 -23 75 -58 100 -77 l47 -33 -40
33 c-22 19 -70 62 -106 96 -36 35 -68 61 -71 58 -3 -3 -13 5 -24 17 -10 12
-13 18 -5 13 9 -5 12 -3 9 6 -3 8 -10 14 -16 14 -5 0 -14 4 -19 9 -5 5 -2 6 6
1 9 -5 12 -3 9 6 -3 8 -11 14 -18 14 -7 0 -15 7 -17 15 -4 13 -3 13 7 0 9 -13
11 -12 8 5 -2 11 -9 20 -17 20 -8 0 -18 11 -22 25 -9 24 -8 24 6 6 8 -11 15
-14 15 -8 0 7 -9 20 -20 29 -11 10 -20 24 -19 33 0 11 3 9 10 -5 7 -16 8 -12
4 14 -3 18 -6 43 -6 55 -1 12 -5 7 -9 -14 -5 -25 -8 -10 -9 57 -1 100 16 205
29 182 6 -9 10 -6 15 13 4 15 4 32 -1 39 -4 7 -3 9 4 5 6 -3 16 2 21 13 14 26
14 34 -1 25 -7 -4 -10 -4 -6 0 3 4 8 6 11 4 6 -5 37 23 37 34 0 6 -8 5 -17 -3
-10 -7 4 10 32 39 27 29 53 52 58 52 4 0 -5 -11 -20 -25 -15 -13 -23 -25 -18
-25 6 0 42 33 80 72 39 40 49 53 23 28 -27 -24 -48 -42 -48 -39 0 2 26 29 57
59 31 30 51 47 44 38 -21 -28 -2 -21 37 13 51 45 129 78 225 96 69 13 187 14
762 11 374 -2 568 -1 430 2 -470 13 -1113 11 -1196 -4 -85 -15 -155 -43 -208
-83 -30 -22 -33 -23 -17 -5 29 34 133 81 211 96 90 18 660 20 1287 5z m-9719
-287 c-1 -5 8 -18 20 -28 18 -16 20 -16 8 -1 -21 27 -7 20 20 -10 13 -15 16
-21 7 -14 -31 24 -19 -4 14 -35 18 -16 24 -19 14 -6 -27 31 -15 28 15 -5 13
-14 18 -23 12 -19 -22 12 -14 -10 9 -30 19 -15 20 -16 9 -1 -21 27 -7 20 20
-10 13 -15 16 -21 7 -14 -10 7 -18 10 -18 5 1 -11 68 -84 77 -84 4 0 -6 15
-23 33 l-29 32 31 -28 c17 -16 31 -36 30 -45 0 -9 4 -17 11 -17 6 0 14 -3 17
-7 3 -5 3 -6 -1 -3 -3 3 -12 -7 -20 -21 -17 -34 -17 -39 2 -24 30 25 14 3 -22
-31 -34 -31 -35 -31 -13 -4 l25 30 -33 -29 c-30 -28 -45 -55 -22 -41 20 12 9
-2 -22 -31 l-33 -29 25 30 25 30 -33 -29 c-30 -28 -45 -55 -22 -41 20 12 9 -2
-22 -31 l-33 -29 25 30 c15 18 7 13 -21 -12 -24 -24 -53 -43 -64 -43 -10 0
-33 12 -49 28 l-31 27 29 -32 c31 -35 53 -40 89 -22 21 10 21 10 3 -5 -32 -26
-59 -19 -101 25 -22 23 -34 39 -27 35 24 -14 12 11 -20 40 -32 28 -32 28 -9 2
36 -42 20 -34 -20 9 -18 20 -26 31 -16 24 30 -23 18 4 -15 35 -18 16 -24 19
-14 7 27 -32 15 -29 -15 4 -13 14 -18 23 -11 19 21 -12 13 10 -10 30 -19 15
-20 16 -9 2 19 -25 8 -22 -15 4 -10 12 -13 18 -6 14 8 -5 12 1 12 19 0 18 -4
24 -12 19 -8 -4 -10 -3 -5 2 5 5 14 9 20 9 5 0 12 6 15 14 3 8 0 11 -7 7 -17
-11 -13 0 6 15 14 12 16 12 9 -1 -4 -8 7 1 23 20 17 19 29 40 27 46 -3 7 5 20
17 31 l22 18 -20 -25 -20 -25 23 19 c12 11 21 25 18 32 -3 7 5 20 17 31 l22
18 -19 -22 c-11 -13 -15 -23 -10 -23 13 0 36 39 30 49 -3 5 4 17 17 27 l22 19
-20 -25 c-14 -17 -7 -14 21 10 44 38 48 48 12 30 -22 -11 -22 -10 -3 5 20 16
42 15 38 -3z m12129 -74 c13 -13 16 -17 6 -9 -35 27 -17 5 34 -44 29 -28 40
-35 24 -17 -41 44 -28 41 15 -5 18 -20 28 -32 20 -28 -9 5 -12 3 -9 -6 3 -8
10 -13 16 -12 5 1 16 -5 24 -15 12 -15 11 -16 -4 -3 -22 17 -23 8 -2 -24 9
-14 20 -23 24 -20 5 3 12 0 16 -6 4 -8 3 -9 -4 -5 -19 11 -14 -9 8 -34 15 -17
17 -26 9 -37 -17 -19 -24 -16 -8 5 7 9 1 6 -14 -7 -28 -25 -39 -53 -12 -31 30
25 14 3 -22 -31 -34 -31 -36 -31 -13 -4 18 21 13 19 -18 -10 -43 -40 -59 -72
-19 -40 12 11 -3 -7 -34 -39 l-56 -58 -29 17 c-16 9 -20 13 -9 10 13 -4 5 9
-25 39 -53 55 -68 61 -19 9 l34 -38 -37 34 c-20 18 -34 39 -32 45 3 7 -6 21
-18 32 -18 15 -20 15 -9 2 19 -25 8 -22 -15 4 -10 12 -13 18 -6 14 23 -13 12
10 -18 39 -17 16 -30 39 -30 52 0 14 -4 21 -10 18 -18 -11 -11 1 12 21 22 19
23 19 8 -1 -15 -20 -14 -20 8 -1 22 19 31 43 12 31 -20 -12 -9 2 22 31 l33 29
-25 -30 -25 -30 33 29 c30 28 45 55 22 41 -20 -12 -9 2 27 36 l38 34 -29 -32
c-17 -18 -27 -33 -23 -33 4 0 22 16 39 36 18 20 41 40 52 45 17 8 15 8 -9 4
-22 -4 -26 -3 -15 5 23 15 37 12 62 -12z m-5035 -703 c-5 -115 -10 -370 -10
-565 -1 -195 -5 -332 -8 -305 -5 46 -6 45 -7 -24 -1 -41 -4 -72 -7 -69 -3 3 1
239 10 524 8 285 16 591 17 679 1 146 2 152 8 65 3 -52 2 -189 -3 -305z m19
-347 c-4 -266 -11 -622 -16 -793 -5 -192 -4 -318 2 -330 9 -20 9 -20 -6 -1
-15 19 -16 17 -15 -25 1 -24 4 -34 6 -22 3 17 10 20 33 17 25 -4 29 -1 33 23
3 15 5 0 4 -34 0 -35 3 -66 6 -70 4 -3 6 48 5 115 -1 67 2 125 5 129 4 3 7
-57 7 -135 l0 -141 -25 24 c-21 21 -55 34 -55 21 0 -2 -3 -13 -6 -23 -6 -16
-5 -15 9 2 14 19 15 17 4 -18 -7 -20 -13 -32 -15 -25 -11 41 -13 43 -22 28 -6
-10 -8 8 -5 50 19 235 43 1082 44 1518 1 94 4 172 7 172 4 0 4 -217 0 -482z
m-656 25 c0 -11 -43 -53 -54 -53 -6 0 -2 7 8 15 11 8 16 15 11 15 -11 0 -45
-31 -45 -42 0 -4 9 -8 19 -8 11 0 22 -4 25 -9 3 -4 33 -11 67 -15 37 -3 70
-13 81 -23 18 -16 18 -17 1 -27 -12 -7 -216 -12 -609 -14 -533 -3 -592 -1
-604 13 -7 9 -9 15 -4 14 5 -1 25 0 44 1 l35 3 -40 8 c-22 4 -2 4 45 1 110 -9
154 -8 330 9 80 7 239 14 354 14 159 0 210 3 214 13 2 6 8 9 14 6 6 -4 9 -1 6
7 -3 8 -10 14 -15 14 -6 0 -15 4 -20 9 -5 5 -2 6 6 1 9 -5 12 -3 9 5 -2 7 -19
14 -38 17 -63 6 -42 11 50 11 50 0 94 3 98 6 4 4 -42 6 -101 4 -59 -2 -107 0
-107 5 0 4 50 7 110 7 61 0 110 -3 110 -7z m179 -249 c54 -36 12 -39 -659 -42
-355 -1 -656 0 -670 3 -24 6 -24 7 -5 18 13 7 61 11 135 9 107 -3 316 9 505
28 44 5 213 7 375 4 248 -4 298 -7 319 -20z m31 -144 c25 -14 -23 -20 -185
-23 l-150 -3 163 -2 c99 -1 172 2 185 9 21 10 21 10 3 -5 -24 -19 -189 -21
-506 -7 -372 18 -602 23 -596 13 3 -5 162 -12 353 -15 191 -4 362 -11 378 -17
28 -9 28 -10 -10 -5 -109 13 -592 16 -801 6 -226 -11 -270 -9 -258 11 4 7 9 7
13 0 4 -8 60 -9 169 -5 91 3 157 10 150 14 -7 5 -80 7 -163 4 l-150 -4 135 10
c74 5 212 16 305 23 182 16 935 12 965 -4z m-350 -130 c294 0 360 -3 376 -14
17 -13 17 -16 4 -30 -20 -19 -353 -37 -670 -34 -214 1 -207 2 130 10 195 4
396 12 445 17 l90 10 -105 -5 c-58 -3 -319 -9 -580 -15 -261 -5 -527 -13 -590
-18 -93 -7 -121 -5 -148 7 -18 8 -30 17 -28 20 3 3 74 5 158 6 141 1 158 3
223 28 67 26 76 27 204 23 74 -3 295 -5 491 -5z m-1206 -220 c-5 -20 -3 -22 5
-10 6 9 11 10 11 3 0 -6 3 -20 6 -30 5 -15 4 -15 -5 -3 -6 8 -11 11 -11 5 0
-13 20 -43 20 -30 0 13 20 -17 20 -30 0 -5 -5 -3 -11 5 -8 12 -9 11 -6 -5 2
-11 8 -19 14 -18 6 1 14 -4 17 -13 3 -8 2 -12 -4 -9 -14 9 -12 -1 5 -36 9 -16
20 -27 25 -24 5 3 14 -5 20 -17 11 -22 10 -22 -4 -4 -18 23 -21 14 -5 -15 5
-11 14 -17 19 -14 5 3 12 0 16 -6 5 -8 3 -9 -6 -4 -8 5 -11 3 -8 -6 3 -8 10
-14 16 -14 6 0 17 -7 24 -15 11 -12 11 -12 -4 -1 -29 21 -21 -3 9 -30 15 -13
21 -16 14 -6 -22 29 -7 19 25 -15 16 -18 19 -24 7 -14 -13 11 -23 15 -23 9 0
-13 35 -44 43 -38 4 3 5 2 2 -2 -6 -8 25 -43 38 -43 6 0 2 10 -9 22 -10 12 3
4 29 -19 58 -50 181 -115 262 -139 33 -9 110 -25 170 -34 109 -18 109 -18 45
-19 -36 0 -128 3 -205 9 -77 5 -211 12 -298 15 -137 6 -160 10 -180 27 -12 11
-16 17 -9 13 14 -7 15 97 2 235 -7 71 -8 59 -5 -70 3 -146 3 -150 -6 -60 -5
52 -8 125 -7 162 2 36 1 65 -2 63 -8 -5 -29 22 -23 29 4 3 4 6 1 6 -3 0 -13
-10 -24 -22 -19 -22 -19 -23 1 -8 19 14 19 14 3 -6 -15 -17 -18 -41 -18 -137
0 -72 -4 -117 -10 -117 -6 0 -9 -16 -6 -37 2 -21 1 -29 -2 -18 -5 18 -6 18
-13 -5 -7 -19 -7 -16 -3 10 16 92 28 301 24 407 -3 65 -2 123 2 129 4 5 5 28
3 50 l-5 39 10 -35 c5 -19 6 -46 4 -60z m998 76 c78 -11 164 -13 311 -9 198 6
257 2 257 -16 0 -28 -83 -33 -705 -41 -352 -5 -647 -10 -655 -11 -8 -1 -23 -1
-34 -1 -15 2 -16 5 -6 17 9 11 32 15 79 15 61 0 137 8 406 44 134 18 219 19
347 2z m511 -153 c3 -5 -180 -7 -406 -5 -376 2 -419 1 -497 -17 -47 -11 -76
-20 -65 -20 11 0 47 6 80 14 47 11 147 14 469 15 225 0 406 -3 402 -7 -4 -5
-119 -10 -254 -13 l-247 -6 230 -2 c128 -1 245 2 264 8 28 8 32 7 22 -3 -9 -9
-155 -12 -642 -11 -346 1 -627 -1 -624 -4 3 -3 173 -7 377 -10 205 -2 375 -6
378 -9 3 -3 -153 -3 -346 -1 -193 3 -360 1 -373 -3 -14 -6 -20 -5 -16 1 3 6
-1 10 -10 10 -10 0 -13 -5 -9 -12 5 -9 2 -8 -9 1 -13 10 -15 17 -6 27 9 11 45
14 148 15 91 0 163 7 216 18 69 16 138 18 497 20 229 0 419 -2 421 -6z m391
-105 c-3 -62 -10 -169 -14 -238 -8 -123 -8 -122 -5 50 2 138 1 156 -5 85 -4
-49 -8 -129 -9 -176 -1 -77 1 -88 21 -105 22 -19 23 -19 8 1 -14 18 -14 19 1
7 10 -7 29 -11 43 -8 18 3 26 0 26 -9 0 -12 -56 -14 -336 -14 -184 1 -338 -2
-342 -5 -3 -4 153 -5 346 -4 194 2 352 0 352 -4 0 -5 -183 -7 -407 -7 -379 1
-403 2 -333 15 200 37 308 83 420 180 l65 56 -65 -61 c-63 -59 -183 -131 -244
-145 -15 -4 -26 -9 -24 -12 9 -8 97 26 156 61 59 34 192 150 192 166 0 6 -6 7
-12 3 -7 -4 -5 2 6 14 10 12 23 20 28 19 6 -1 13 4 16 12 3 9 0 11 -9 6 -8 -5
-11 -4 -6 1 5 5 14 9 20 9 5 0 12 6 15 14 3 9 0 11 -8 6 -9 -5 -11 -4 -6 4 4
6 11 9 16 6 11 -7 62 86 55 102 -3 9 0 11 6 7 7 -4 9 0 5 12 -3 11 -1 26 5 34
8 12 9 10 4 -7 -3 -12 -1 -25 6 -29 8 -5 10 4 7 30 -2 20 0 36 4 36 5 0 6 -51
2 -112z m-474 -43 c0 -1 -8 -9 -17 -16 -12 -10 -15 -10 -9 -1 6 10 -37 11
-220 7 -126 -3 -231 -8 -234 -12 -3 -3 79 -3 182 1 189 7 284 1 241 -15 -33
-12 -491 -32 -650 -28 -90 3 -146 8 -154 16 -14 14 23 18 301 33 425 24 560
27 560 15z m-1485 -521 c204 -4 903 -10 1555 -13 652 -4 1193 -10 1202 -15 9
-4 19 -15 23 -24 5 -12 1 -12 -16 4 -21 19 -53 19 -1293 26 -699 4 -1449 11
-1666 16 -404 10 -501 5 -529 -23 -13 -13 -10 -13 19 2 40 20 -59 20 1060 4
393 -6 1077 -11 1520 -11 443 -1 823 -4 845 -8 l40 -7 3 -61 c2 -46 -1 -64
-13 -74 -13 -11 -317 -11 -1728 -1 -1485 10 -1715 14 -1734 27 -13 8 -23 10
-23 4 0 -6 11 -15 25 -20 40 -15 3429 -36 3463 -21 25 11 26 10 8 -4 -24 -19
-109 -19 -2044 -5 -799 6 -1413 15 -1427 20 -13 5 -29 19 -35 31 -9 16 -9 20
0 14 8 -5 11 8 9 49 -2 41 2 61 13 72 23 23 107 33 238 28 63 -2 282 -7 485
-10z m2165 -341 c0 -5 -462 -7 -1027 -7 -680 1 -984 -2 -898 -8 72 -4 526 -7
1010 -6 484 2 846 0 805 -3 -124 -10 -1787 -9 -1886 1 -236 25 -113 29 929 29
587 1 1067 -2 1067 -6z m-670 -113 c-161 -19 -453 -28 -595 -20 l-150 9 165
-3 c91 -1 228 1 305 4 93 5 7 7 -253 7 -215 0 -395 3 -399 6 -3 4 218 6 493 5
277 0 470 -4 434 -8z m-239 -365 c50 -17 93 -55 94 -83 1 -9 2 -32 3 -50 2
-24 6 -31 15 -26 7 5 7 1 -2 -10 -31 -37 -244 -128 -282 -120 -17 4 -20 3 -10
-4 24 -17 -49 -35 -88 -21 -47 16 -27 28 56 31 39 2 70 5 68 8 -2 3 3 13 10
23 11 15 13 16 19 2 3 -8 11 -15 18 -14 10 0 10 2 1 6 -7 2 -13 10 -13 17 0 7
-10 21 -22 32 -22 19 -22 19 -8 0 14 -19 14 -19 -10 -4 -15 10 -60 18 -115 21
-91 6 -166 22 -163 35 1 4 -2 14 -6 23 -20 46 56 106 164 129 l45 9 -42 -3
c-64 -6 -149 -49 -173 -88 -11 -18 -20 -28 -20 -21 0 41 97 103 193 123 61 13
214 5 268 -15z"/>
<path d="M4691 5950 c27 -14 846 -31 1993 -40 638 -6 1161 -8 1163 -6 5 5
-770 15 -1647 21 -660 5 -1308 17 -1474 29 -27 2 -42 0 -35 -4z"/>
<path d="M5106 4208 c-6 -43 -27 -2540 -21 -2546 6 -6 35 2576 29 2586 -1 2
-5 -16 -8 -40z"/>
<path d="M7730 5365 c-2 -170 -4 -965 -4 -1765 -1 -800 2 -1329 6 -1175 4 154
7 789 6 1410 -1 1014 5 1627 17 1755 2 30 1 38 -5 25 -6 -16 -9 -13 -12 20 -3
22 -6 -99 -8 -270z"/>
<path d="M1625 2551 c65 -72 -52 -66 1381 -69 710 -1 1301 1 1312 5 11 5 -565
8 -1281 8 -716 0 -1314 3 -1330 8 -15 4 -47 24 -70 44 -40 36 -41 36 -12 4z"/>
<path d="M9145 4640 c731 -12 1750 -16 1870 -6 103 8 113 7 158 -14 26 -12 47
-26 47 -31 0 -5 5 -9 11 -9 22 0 -11 28 -59 50 -44 21 -54 22 -157 14 -130
-11 -517 -11 -1560 -3 -507 5 -613 4 -310 -1z"/>
<path d="M9413 4363 c225 -2 589 -2 810 0 221 1 38 2 -408 2 -445 0 -626 -1
-402 -2z"/>
<path d="M9577 2703 c254 -2 672 -2 930 0 257 1 50 2 -462 2 -511 0 -722 -1
-468 -2z"/>
<path d="M5657 4243 c10 -10 13 -14 6 -9 -9 6 -18 3 -28 -10 -15 -19 -15 -18
-9 1 4 15 1 13 -10 -5 -13 -21 -15 -73 -13 -350 l2 -325 6 325 c5 257 5 237 2
-95 -3 -231 -8 -492 -11 -579 -6 -125 -4 -163 6 -175 8 -9 11 -11 9 -6 -3 6 6
10 19 10 20 0 22 -2 9 -11 -8 -6 -15 -15 -15 -19 0 -5 10 0 21 11 27 24 49 75
48 111 -1 21 -4 17 -11 -17 -5 -25 -13 -49 -17 -53 -4 -4 -2 22 6 59 11 53 13
176 11 585 -2 285 0 511 4 501 6 -14 7 -14 7 4 1 19 -36 64 -53 64 -5 0 0 -8
11 -17z"/>
<path d="M1925 4186 c-16 -8 -43 -29 -60 -47 -29 -32 -29 -32 13 4 23 20 43
38 45 39 1 2 405 5 897 8 l895 5 -880 2 c-717 2 -886 0 -910 -11z"/>
<path d="M3082 3927 c-27 -29 -28 -58 -2 -122 18 -44 21 -31 4 22 -5 16 -4 16
5 2 38 -59 53 -261 26 -364 -7 -27 -13 -41 -15 -30 l-1 20 -9 -20 c-5 -11 -9
-27 -9 -35 -1 -13 0 -13 10 0 8 12 9 10 5 -10 -4 -14 -12 -46 -18 -71 -6 -26
-7 -55 -3 -65 5 -11 9 -23 9 -29 1 -5 10 -11 21 -12 19 -3 19 -2 1 5 -12 5 1
8 37 8 41 -1 61 4 79 19 13 11 11 8 -4 -7 -16 -16 -25 -28 -20 -28 16 0 64 58
57 69 -4 7 -1 10 7 9 17 -4 22 40 9 83 -9 30 -9 28 -6 -21 4 -54 4 -54 -10 15
-15 74 -18 133 -5 80 7 -29 8 -29 9 -4 1 23 6 27 47 33 26 3 65 6 87 6 l40 0
-7 -67 c-9 -84 2 -78 13 8 7 52 9 56 10 23 0 -22 -6 -64 -15 -93 -18 -62 -11
-107 18 -117 27 -8 163 -8 177 0 6 4 11 15 11 24 0 13 -2 13 -16 -4 -14 -18
-14 -18 -3 5 7 14 9 45 6 75 -3 32 -2 44 3 31 l9 -20 0 20 c0 11 -4 29 -9 40
l-9 20 -1 -20 c-3 -42 -20 41 -26 130 -7 95 12 258 26 220 5 -16 8 -13 13 15
4 18 5 35 2 38 -3 3 -5 -3 -5 -13 0 -10 -2 -16 -5 -13 -4 3 -3 18 1 33 5 19 9
23 15 14 10 -17 23 32 15 58 -7 23 -71 43 -136 43 -68 0 -95 -25 -87 -84 4
-28 3 -35 -3 -21 l-9 20 0 -20 c-1 -25 18 -59 20 -35 1 19 18 -18 18 -40 0 -9
-4 -8 -9 5 -11 25 -11 -1 0 -35 7 -21 8 -22 10 -5 2 17 3 16 10 -5 12 -36 12
-59 1 -42 -6 10 -10 9 -14 -8 -5 -20 -11 -21 -99 -18 l-93 3 -6 30 c-4 17 -7
22 -8 11 0 -11 -4 -17 -7 -14 -3 3 -1 21 5 39 6 23 10 27 11 14 2 -24 50 121
50 152 0 12 -14 33 -31 47 -27 23 -40 26 -103 26 -63 0 -75 -3 -94 -23z"/>
<path d="M3865 3936 c-22 -16 -22 -61 0 -191 22 -134 27 -253 11 -325 -8 -37
-15 -54 -16 -40 l-2 25 -8 -25 c-4 -14 -8 -36 -8 -50 l0 -25 8 25 c7 23 8 23
9 3 1 -12 -4 -34 -9 -49 -9 -23 -7 -31 11 -51 14 -14 33 -22 48 -22 l26 2 -25
4 c-27 5 -60 30 -60 46 0 5 8 -1 18 -13 16 -20 29 -22 236 -30 137 -6 226 -5
237 0 10 6 21 10 26 10 4 -1 -3 -7 -17 -15 -19 -10 -63 -13 -190 -10 l-165 4
160 -10 c171 -10 203 -5 230 35 8 11 15 39 15 62 0 35 -5 47 -31 68 -32 27
-47 30 -89 15 -19 -6 -15 -7 16 -3 32 4 46 1 65 -16 l24 -21 -27 16 c-26 16
-33 16 -116 -4 -91 -21 -148 -26 -190 -14 -18 4 -20 8 -10 15 10 7 10 10 -4
19 -19 10 -25 74 -10 94 4 6 45 10 92 10 49 0 85 4 86 10 0 6 4 17 7 25 4 8 8
38 10 65 3 39 4 36 3 -13 -1 -34 3 -62 7 -62 4 0 7 30 5 68 -2 52 -6 67 -18
67 -8 0 -15 7 -15 15 0 12 -17 16 -82 18 l-83 3 -1 32 -1 32 -8 -30 c-7 -28
-8 -28 -9 -5 -1 23 18 67 19 45 1 -5 6 1 11 14 9 22 13 23 62 18 41 -5 47 -4
27 4 -14 6 -41 9 -62 7 -20 -2 -34 0 -32 4 10 15 73 8 146 -18 139 -49 136
-48 153 -34 10 9 15 32 16 79 1 48 3 59 9 41 8 -24 8 -24 9 -3 1 12 -13 38
-30 58 l-31 35 -217 0 c-170 0 -221 -3 -236 -14z"/>
<path d="M2241 3906 c-12 -12 -21 -26 -21 -30 0 -4 10 3 23 16 12 13 15 16 7
5 -8 -10 -20 -57 -27 -105 l-12 -87 4 80 c3 63 2 72 -5 40 -12 -54 -12 -117 0
-135 8 -12 10 -12 10 -1 0 19 11 7 14 -16 5 -30 32 -26 74 11 22 20 61 45 87
57 25 11 44 23 42 26 -9 8 -90 -38 -130 -73 -20 -19 -45 -34 -55 -34 -10 1 -5
6 13 14 17 7 39 23 50 36 11 12 36 30 55 40 58 30 111 50 105 40 -3 -5 -1 -11
4 -14 21 -13 23 -119 6 -262 -9 -81 -15 -171 -13 -200 3 -29 1 -51 -4 -48 -4
3 -8 1 -8 -4 0 -14 110 -33 152 -26 34 6 38 10 44 43 4 20 0 108 -10 196 -18
171 -19 238 -7 270 5 11 6 -13 4 -55 -2 -41 0 -102 5 -135 8 -53 9 -46 8 62
-1 122 4 147 26 125 7 -7 17 -12 22 -12 6 0 -7 12 -29 25 -57 36 -39 31 39
-10 39 -20 82 -35 102 -35 33 0 34 1 35 43 l2 42 6 -35 c7 -33 7 -32 15 23 9
69 -3 108 -43 133 -25 17 -25 17 -11 -1 14 -17 14 -17 -18 -1 -29 15 -65 17
-287 15 -247 -1 -254 -2 -274 -23z"/>
<path d="M9121 3856 c13 -18 12 -18 -8 -8 -14 8 -90 12 -225 12 -172 0 -207
-3 -227 -16 -24 -17 -24 -17 -6 -119 4 -25 4 -27 -5 -10 -9 18 -10 17 -5 -5 2
-14 5 -34 6 -45 1 -16 2 -16 8 5 6 19 10 10 16 -44 8 -71 2 -164 -17 -250 -9
-41 -12 -47 -19 -31 -6 16 -8 16 -8 3 -1 -9 -4 -25 -7 -35 -5 -15 -4 -16 6 -3
10 12 11 11 6 -10 -3 -14 -6 -29 -6 -35 0 -5 -4 -3 -9 4 -8 12 -11 9 -16 -11
-10 -40 -2 -61 25 -69 14 -4 120 -7 237 -8 l211 -1 34 26 33 26 -33 -31 c-18
-17 -29 -31 -24 -31 28 0 92 104 92 149 0 29 -48 81 -73 80 -22 -2 -22 -2 0
-6 28 -5 63 -49 63 -77 -1 -11 -8 -34 -16 -51 -8 -16 -12 -21 -8 -10 15 54 16
76 0 100 -9 14 -25 25 -36 25 -10 0 -60 -20 -111 -45 -92 -45 -141 -55 -155
-34 -3 6 -8 29 -10 51 -1 22 -6 43 -10 46 -3 4 -3 -11 1 -33 4 -22 4 -37 1
-34 -3 3 -10 26 -14 51 -10 52 -12 51 85 49 34 -1 64 2 66 6 3 5 -33 8 -81 7
-61 0 -78 2 -61 8 13 5 43 7 66 3 23 -3 58 -3 77 1 31 5 37 11 46 45 7 25 7
45 1 57 -16 30 -49 54 -68 49 -15 -4 -14 -5 4 -6 34 -2 65 -48 57 -85 -3 -17
-10 -35 -15 -40 -4 -5 -4 8 2 28 8 30 7 42 -6 62 -13 21 -23 24 -78 25 -64 1
-133 15 -92 19 11 1 14 4 8 7 -8 3 -12 20 -12 41 2 35 2 35 7 7 4 -29 5 -28
16 15 11 45 11 45 61 51 l50 6 -43 1 c-24 1 -53 -3 -65 -9 -21 -10 -21 -10 -3
5 39 31 131 14 167 -30 9 -11 9 -15 2 -10 -37 22 16 -65 58 -97 22 -15 30 -17
45 -8 18 11 17 12 -3 6 -14 -4 -30 2 -50 21 l-28 26 29 -21 c43 -32 106 -9
106 38 0 14 -2 14 -9 2 -6 -9 -7 8 -4 46 3 34 1 75 -5 92 -13 35 -6 42 8 9 6
-17 9 -18 9 -6 1 9 -11 30 -25 45 -15 15 -20 19 -13 9z"/>
<path d="M9306 3841 c-26 -27 -27 -31 -17 -72 l11 -44 -5 41 c-5 46 22 95 53
93 13 0 11 -3 -5 -9 -38 -15 -42 -38 -27 -150 12 -91 11 -123 -2 -245 -17
-158 -26 -197 -20 -85 4 67 4 70 -5 30 -9 -42 -8 -73 6 -160 4 -27 3 -30 -4
-15 -9 20 -10 20 -10 -1 -1 -27 32 -57 56 -51 15 4 14 5 -4 6 -12 0 -24 5 -27
10 -3 5 13 5 37 -1 57 -13 127 -2 127 20 0 14 2 15 9 3 17 -26 24 34 13 97
l-10 57 3 -70 4 -70 -14 86 c-8 47 -18 103 -23 125 -4 21 -5 50 -1 64 6 21 7
22 9 5 1 -19 2 -18 10 3 14 33 28 27 58 -23 15 -24 33 -45 40 -45 6 0 12 -8
12 -17 0 -15 -2 -16 -10 -3 -9 13 -10 13 -10 0 0 -8 5 -22 10 -30 9 -13 10
-13 10 0 0 13 1 13 10 0 5 -8 10 -22 10 -30 0 -13 -1 -13 -10 0 -11 17 -13 1
-4 -25 5 -12 9 -13 14 -5 5 8 9 4 13 -9 3 -13 1 -19 -6 -14 -6 4 -8 -2 -4 -18
4 -13 7 -28 7 -34 0 -5 4 -5 8 2 5 8 12 2 20 -20 10 -29 10 -30 -3 -13 -20 26
-19 6 1 -22 19 -27 65 -52 96 -52 26 0 102 20 96 25 -2 2 -25 -1 -51 -7 -53
-11 -82 -7 -112 17 -17 13 -14 13 17 -1 31 -15 45 -15 94 -6 31 7 63 17 70 23
16 13 17 53 4 84 -6 13 -7 4 -3 -26 3 -27 1 -49 -5 -53 -6 -3 -8 1 -5 12 2 10
-3 53 -11 95 -10 45 -15 118 -14 179 l1 103 7 -132 c3 -73 8 -134 11 -137 2
-2 4 70 4 162 0 91 -3 153 -6 136 -6 -26 -7 -26 -7 -4 0 14 4 36 8 50 7 21 8
22 10 5 2 -17 3 -16 10 5 11 34 11 60 0 35 -5 -13 -9 -14 -9 -5 0 22 17 59 18
40 1 -13 2 -13 11 0 15 23 12 64 -6 86 -8 10 -12 13 -9 6 6 -11 3 -12 -11 -4
-32 16 -117 24 -161 14 -24 -6 -40 -6 -37 -1 3 5 13 9 22 10 11 0 13 2 4 6 -7
3 -22 -3 -33 -13 -20 -18 -27 -40 -9 -29 5 3 7 0 5 -7 -3 -8 1 -33 9 -56 9
-24 11 -40 6 -37 -4 3 -12 20 -16 38 -4 17 -9 27 -11 22 -2 -6 6 -35 17 -65
11 -30 18 -45 16 -32 -2 12 -1 20 4 17 13 -8 32 -118 27 -160 -3 -36 -4 -34
-6 15 -2 30 -7 66 -11 80 -8 24 -8 9 4 -132 l4 -47 -34 25 c-19 15 -34 29 -34
32 0 3 5 1 12 -6 23 -23 31 -12 8 13 -12 13 -26 22 -31 20 -4 -3 -11 0 -15 6
-4 8 -3 9 4 5 7 -4 12 -1 12 8 0 20 -17 29 -24 14 -3 -7 -3 -1 0 13 4 19 0 32
-15 46 -20 18 -66 132 -57 140 2 2 14 -26 26 -62 12 -36 24 -64 27 -61 3 3 -7
37 -22 77 -26 67 -76 139 -96 139 -5 0 3 -12 19 -27 15 -16 19 -20 7 -11 -16
13 -101 38 -129 38 -1 0 -15 -13 -30 -29z"/>
<path d="M10069 3859 c-11 -7 -9 -40 5 -109 3 -14 -3 0 -14 30 -24 71 -25 43
-1 -35 11 -33 20 -51 21 -40 l1 20 9 -20 c5 -11 9 -29 9 -40 l0 -20 -10 20
c-7 16 -8 12 -4 -14 3 -18 5 -39 6 -45 1 -6 4 0 8 14 6 19 10 10 16 -44 9 -80
2 -162 -20 -226 -8 -25 -12 -32 -9 -16 14 77 12 84 -6 21 -19 -69 -26 -123 -9
-75 7 20 7 17 3 -13 -3 -26 0 -47 11 -65 l16 -27 -20 24 c-12 13 -21 19 -21
14 0 -6 8 -16 18 -24 13 -11 54 -16 167 -18 164 -3 208 6 272 55 19 14 36 24
38 22 3 -2 -21 -21 -52 -41 -31 -20 -51 -37 -46 -37 14 0 81 46 116 78 28 26
37 49 15 36 -9 -5 -9 -2 1 9 15 19 26 23 15 5 -5 -7 -3 -8 5 -4 7 5 10 15 7
23 -3 8 -2 11 4 8 10 -6 45 54 36 63 -3 3 -6 1 -6 -4 0 -6 -7 -19 -15 -30 -9
-11 -6 2 7 36 30 77 30 197 1 263 -24 51 -23 64 1 20 8 -16 15 -22 16 -15 0
19 -31 63 -40 57 -5 -3 -12 0 -16 6 -4 8 -3 9 4 5 27 -16 9 13 -29 49 -23 22
-38 34 -34 26 5 -9 3 -12 -6 -9 -8 3 -14 10 -14 16 0 5 -4 14 -9 19 -5 5 -6 2
-1 -6 5 -9 3 -12 -6 -9 -8 3 -14 11 -14 18 0 7 -7 15 -15 17 -13 4 -13 3 0 -7
12 -10 10 -10 -10 -5 -14 3 -41 10 -60 15 -45 11 -326 18 -341 9z m329 -113
c15 -8 38 -27 52 -42 14 -16 17 -22 8 -15 -20 15 -24 1 -6 -17 9 -9 13 -56 13
-160 0 -86 4 -150 10 -154 6 -5 2 -8 -7 -8 -10 0 -18 -2 -18 -4 0 -2 -3 -12
-7 -22 -5 -13 -3 -15 8 -10 8 4 4 -2 -9 -13 -13 -11 -39 -23 -58 -27 -34 -6
-99 5 -76 13 8 3 5 11 -10 23 -17 13 -24 33 -30 76 l-6 59 2 -63 c1 -35 -1
-57 -5 -50 -8 14 -13 175 -9 278 3 60 3 62 10 25 l7 -40 3 40 c2 22 4 51 5 64
1 29 39 61 72 61 13 0 36 -6 51 -14z"/>
<path d="M8600 3004 c0 -3 26 -17 58 -32 l57 -27 1056 -9 c581 -5 1073 -6
1093 -2 20 4 51 21 69 38 l32 30 -33 -25 c-18 -14 -53 -29 -78 -33 -25 -3
-517 -3 -1093 2 l-1046 9 -57 27 c-32 15 -58 25 -58 22z"/>
<path d="M6690 2520 c41 -4 125 -9 185 -10 91 -2 102 -4 65 -11 -25 -4 -211
-7 -415 -7 -203 1 -352 4 -330 8 26 5 15 6 -30 3 -38 -3 -164 -7 -279 -9 -114
-2 -211 -5 -214 -9 -8 -7 1178 -6 1261 2 67 6 87 18 45 27 -13 3 -99 7 -193 9
-107 3 -142 2 -95 -3z"/>
<path d="M6630 2070 c-36 -3 32 -5 150 -4 200 2 205 2 80 -6 -173 -10 -885
-10 -845 0 49 12 17 11 -110 -5 -66 -8 -151 -15 -189 -15 -38 0 -67 -2 -65 -4
7 -7 1322 13 1346 20 13 3 20 10 17 15 -6 10 -281 9 -384 -1z"/>
<path d="M9065 2305 c6 -2 399 -5 875 -7 476 -2 759 -1 630 3 -243 7 -1523 10
-1505 4z"/>
</g>
</svg>
